<?xml version="1.0" encoding="UTF-8" standalone="no"?>
<!DOCTYPE svg PUBLIC "-//W3C//DTD SVG 1.1//EN" "http://www.w3.org/Graphics/SVG/1.1/DTD/svg11.dtd">
<svg width="100%" height="100%" viewBox="0 0 79 26" version="1.1" xmlns="http://www.w3.org/2000/svg" xmlns:xlink="http://www.w3.org/1999/xlink" xml:space="preserve" xmlns:serif="http://www.serif.com/" style="fill-rule:evenodd;clip-rule:evenodd;stroke-linejoin:round;stroke-miterlimit:2;">
    <rect id="Artboard1" x="0" y="0" width="78" height="25.215" style="fill:white;"/>
    <g id="Artboard11" serif:id="Artboard1">
        <g transform="matrix(1,0,0,1,-0.99997,-0.8426)">
            <path d="M5.316,22.64C5.552,22.64 5.744,22.447 5.744,22.209C5.744,21.971 5.552,21.778 5.316,21.778C5.08,21.778 4.889,21.971 4.889,22.209C4.889,22.447 5.08,22.64 5.316,22.64" style="fill:rgb(0,156,221);fill-rule:nonzero;"/>
        </g>
        <g transform="matrix(1,0,0,1,-0.99997,-0.8426)">
            <path d="M38.416,26.014C38.652,26.014 38.844,25.821 38.844,25.584C38.844,25.346 38.652,25.153 38.416,25.153C38.18,25.153 37.989,25.346 37.989,25.584C37.989,25.821 38.18,26.014 38.416,26.014" style="fill:rgb(109,32,119);fill-rule:nonzero;"/>
        </g>
        <g transform="matrix(1,0,0,1,-0.99997,-0.8426)">
            <path d="M18.168,23.405L18.168,23.404C18.167,22.924 18,22.519 17.698,22.246L17.677,22.226L17.672,22.222L17.671,22.222C17.386,21.978 17.001,21.849 16.544,21.844C16.542,21.844 16.538,21.844 16.534,21.844C16.53,21.844 16.526,21.844 16.521,21.845L16.518,21.844C16.504,21.844 16.495,21.845 16.488,21.845C16.483,21.845 16.474,21.844 16.464,21.844L16.458,21.845C16.454,21.844 16.442,21.844 16.442,21.844C16.443,21.844 16.442,21.844 16.44,21.844C16.438,21.844 16.435,21.844 16.431,21.844C15.975,21.85 15.592,21.978 15.308,22.222L15.307,22.222L15.281,22.246C14.979,22.518 14.813,22.921 14.81,23.398L14.81,23.399L14.81,23.401L14.807,25.872C14.807,25.905 14.821,25.938 14.846,25.961C14.871,25.984 14.905,25.998 14.94,25.998L15.38,25.998C15.415,25.998 15.449,25.984 15.474,25.961C15.498,25.938 15.512,25.905 15.512,25.872L15.513,23.484C15.516,23.134 15.605,22.886 15.767,22.722C15.923,22.564 16.162,22.474 16.491,22.468C16.817,22.474 17.055,22.564 17.212,22.722C17.373,22.886 17.462,23.134 17.465,23.485L17.465,25.872C17.465,25.905 17.479,25.938 17.503,25.961C17.528,25.984 17.563,25.998 17.597,25.998L18.038,25.998C18.072,25.998 18.107,25.984 18.131,25.961C18.157,25.938 18.17,25.905 18.17,25.872L18.168,23.405Z" style="fill:rgb(208,0,112);fill-rule:nonzero;"/>
        </g>
        <g transform="matrix(1,0,0,1,-0.99997,-0.8426)">
            <path d="M33.506,23.405L33.506,23.404C33.505,22.924 33.338,22.519 33.035,22.246L33.009,22.222L33.008,22.222C32.724,21.978 32.339,21.849 31.882,21.844C31.88,21.844 31.876,21.844 31.872,21.844C31.868,21.844 31.863,21.844 31.859,21.845L31.856,21.844C31.842,21.844 31.833,21.845 31.826,21.845C31.821,21.845 31.812,21.844 31.802,21.844L31.795,21.845C31.792,21.844 31.78,21.844 31.78,21.844C31.781,21.844 31.779,21.844 31.778,21.844C31.775,21.844 31.772,21.844 31.769,21.844C31.313,21.85 30.929,21.978 30.645,22.222L30.644,22.222L30.618,22.246C30.317,22.518 30.15,22.921 30.148,23.398L30.147,23.401L30.145,25.872C30.145,25.905 30.159,25.938 30.184,25.961C30.208,25.984 30.243,25.998 30.278,25.998L30.717,25.998C30.752,25.998 30.786,25.984 30.811,25.961C30.836,25.938 30.85,25.905 30.85,25.872L30.851,23.484C30.854,23.134 30.943,22.886 31.105,22.722C31.261,22.564 31.5,22.474 31.829,22.468C32.154,22.474 32.393,22.564 32.549,22.722C32.71,22.886 32.8,23.134 32.803,23.485L32.802,25.872C32.802,25.905 32.816,25.938 32.841,25.961C32.866,25.984 32.9,25.998 32.935,25.998L33.375,25.998C33.41,25.998 33.444,25.984 33.469,25.961C33.494,25.938 33.508,25.905 33.508,25.872L33.506,23.405Z" style="fill:rgb(208,0,112);fill-rule:nonzero;"/>
        </g>
        <g transform="matrix(1,0,0,1,-0.99997,-0.8426)">
            <path d="M25.281,23.92L25.281,23.951C25.28,24.345 25.239,24.729 25.089,25.004C24.942,25.269 24.705,25.446 24.246,25.453C24.243,25.453 24.221,25.453 24.221,25.453C23.758,25.448 23.519,25.271 23.371,25.004C23.22,24.728 23.178,24.34 23.178,23.944L23.178,23.92C23.178,23.527 23.22,23.211 23.371,22.936C23.519,22.668 23.758,22.491 24.221,22.487L24.239,22.487C24.701,22.491 24.94,22.668 25.089,22.936C25.239,23.211 25.281,23.527 25.281,23.92ZM25.412,22.266C25.409,22.263 25.407,22.26 25.404,22.257C25.153,22.026 24.753,21.883 24.288,21.883C24.282,21.882 24.272,21.882 24.263,21.882C23.882,21.882 23.505,21.962 23.178,22.242L23.178,22.242L23.178,21.996L23.178,21.996L23.178,20.751C23.178,20.718 23.164,20.685 23.139,20.663C23.115,20.639 23.08,20.626 23.046,20.626L22.612,20.626C22.578,20.626 22.544,20.639 22.518,20.663C22.493,20.685 22.48,20.718 22.48,20.751L22.48,21.996L22.48,21.996L22.48,24.64L22.48,24.64L22.48,25.879C22.48,25.912 22.494,25.944 22.518,25.967C22.543,25.99 22.578,26.004 22.612,26.004L23.046,26.004C23.08,26.004 23.115,25.99 23.139,25.967C23.165,25.944 23.178,25.912 23.178,25.879L23.178,25.623C23.468,25.946 23.883,26.058 24.263,26.057L24.29,26.057C24.753,26.056 25.154,25.913 25.404,25.682C25.871,25.24 25.978,24.562 25.979,23.932C25.978,23.306 25.871,22.706 25.412,22.266" style="fill:rgb(208,0,112);fill-rule:nonzero;"/>
        </g>
        <g transform="matrix(1,0,0,1,-0.99997,-0.8426)">
            <path d="M13.59,24.496C13.588,24.827 13.516,25.009 13.419,25.094C13.184,25.311 12.894,25.343 12.541,25.344L12.53,25.344C12.19,25.344 11.966,25.285 11.839,25.194C11.719,25.106 11.656,24.982 11.653,24.768L11.653,24.758C11.656,24.545 11.72,24.413 11.842,24.319C11.97,24.222 12.184,24.159 12.506,24.159L13.59,24.159L13.59,24.496ZM14.317,23.229L14.317,23.219C14.317,22.8 14.178,22.441 13.886,22.201C13.591,21.959 13.169,21.845 12.625,21.845L12.598,21.845C12.027,21.843 11.573,21.968 11.228,22.335L11.226,22.334L11.207,22.358C11.181,22.386 11.155,22.416 11.131,22.448C11.131,22.448 11.13,22.448 11.13,22.449L11.095,22.491C11.073,22.516 11.063,22.549 11.068,22.583C11.071,22.617 11.089,22.65 11.115,22.673L11.135,22.69C11.142,22.699 11.151,22.708 11.16,22.715L11.237,22.779L11.443,22.957C11.469,22.98 11.504,22.992 11.538,22.99C11.571,22.989 11.602,22.974 11.623,22.948L11.755,22.792L11.755,22.792C11.837,22.702 11.922,22.639 12.024,22.594C12.168,22.531 12.353,22.502 12.62,22.499L12.632,22.499C13.012,22.5 13.249,22.577 13.384,22.696C13.519,22.813 13.588,22.989 13.589,23.264C13.589,23.266 13.589,23.271 13.59,23.277L13.59,23.536L12.461,23.536C12.006,23.537 11.625,23.64 11.35,23.854C11.077,24.064 10.925,24.386 10.925,24.762L10.925,24.777C10.926,25.09 11.043,25.397 11.257,25.61C11.546,25.895 11.931,25.998 12.512,25.998L12.813,25.998C13.346,25.999 13.728,25.867 13.974,25.602C14.219,25.337 14.317,24.953 14.317,24.476L14.317,23.229Z" style="fill:rgb(208,0,112);fill-rule:nonzero;"/>
        </g>
        <g transform="matrix(1,0,0,1,-0.99997,-0.8426)">
            <path d="M26.996,24.772L26.996,24.763C26.998,24.55 27.063,24.418 27.184,24.324C27.312,24.227 27.527,24.164 27.848,24.164L28.932,24.164L28.932,24.501C28.931,24.831 28.858,25.014 28.761,25.099C28.527,25.315 28.237,25.348 27.883,25.349L27.873,25.349C27.532,25.349 27.308,25.29 27.182,25.198C27.061,25.111 26.999,24.987 26.996,24.772M29.66,23.235L29.66,23.225C29.66,22.806 29.52,22.447 29.228,22.207C28.934,21.965 28.511,21.852 27.968,21.852L27.94,21.852C27.369,21.85 26.916,21.974 26.57,22.342L26.569,22.34L26.549,22.364C26.523,22.393 26.498,22.423 26.473,22.454C26.473,22.454 26.473,22.455 26.472,22.455L26.437,22.497C26.416,22.522 26.406,22.556 26.41,22.589C26.414,22.623 26.431,22.656 26.457,22.679L26.477,22.696C26.485,22.705 26.493,22.714 26.503,22.722L26.58,22.785L26.785,22.963C26.812,22.985 26.846,22.998 26.88,22.996C26.913,22.995 26.945,22.979 26.966,22.954L27.098,22.798L27.098,22.798C27.18,22.709 27.264,22.645 27.366,22.601C27.511,22.538 27.695,22.508 27.963,22.505L27.975,22.505C28.355,22.506 28.591,22.583 28.727,22.702C28.862,22.819 28.93,22.995 28.931,23.27C28.931,23.272 28.931,23.276 28.932,23.283L28.932,23.542L27.803,23.542C27.348,23.543 26.967,23.645 26.693,23.86C26.42,24.069 26.267,24.392 26.267,24.767L26.267,24.782C26.268,25.095 26.386,25.402 26.6,25.615C26.888,25.899 27.273,26.003 27.854,26.003L28.156,26.003C28.688,26.003 29.07,25.872 29.316,25.606C29.561,25.341 29.66,24.958 29.66,24.481L29.66,23.235Z" style="fill:rgb(208,0,112);fill-rule:nonzero;"/>
        </g>
        <g transform="matrix(1,0,0,1,-0.99997,-0.8426)">
            <path d="M7.537,21.86L6.794,21.86L6.794,21.106L6.793,21.106L6.793,20.742C6.793,20.676 6.736,20.623 6.665,20.623L6.218,20.623C6.185,20.623 6.152,20.635 6.128,20.657C6.104,20.68 6.09,20.711 6.09,20.742L6.09,21.413L6.09,21.413L6.09,24.945C6.091,25.232 6.173,25.49 6.355,25.686C6.528,25.875 6.808,25.993 7.133,25.993L7.349,25.993L7.349,25.991L7.537,25.991C7.57,25.991 7.602,25.976 7.625,25.952C7.648,25.927 7.662,25.892 7.662,25.857L7.662,25.421C7.662,25.386 7.648,25.351 7.625,25.326C7.602,25.301 7.57,25.287 7.537,25.287L7.192,25.287C7.122,25.285 7.066,25.276 7.017,25.259C6.986,25.248 6.966,25.236 6.949,25.225C6.929,25.211 6.918,25.204 6.899,25.184C6.832,25.114 6.795,25.004 6.794,24.84L6.794,22.563L7.537,22.563C7.57,22.563 7.602,22.549 7.625,22.524C7.648,22.499 7.662,22.465 7.662,22.43L7.662,21.993C7.662,21.958 7.648,21.924 7.625,21.899C7.602,21.874 7.57,21.86 7.537,21.86" style="fill:rgb(208,0,112);fill-rule:nonzero;"/>
        </g>
        <g transform="matrix(1,0,0,1,-0.99997,-0.8426)">
            <path d="M10.743,22.375L10.701,22.33C10.7,22.324 10.697,22.319 10.692,22.314L10.667,22.288L10.667,22.288L10.633,22.253L10.604,22.221L10.603,22.223C10.35,21.956 10.036,21.844 9.701,21.844C9.694,21.844 9.686,21.844 9.674,21.844C9.436,21.844 9.155,21.951 8.987,22.154L8.871,22.292L8.871,21.984C8.871,21.951 8.857,21.919 8.832,21.896C8.807,21.872 8.773,21.859 8.738,21.859L8.305,21.859C8.27,21.859 8.236,21.872 8.211,21.896C8.186,21.919 8.172,21.951 8.172,21.984L8.172,25.874C8.172,25.907 8.186,25.939 8.211,25.962C8.236,25.986 8.27,25.999 8.305,25.999L8.38,25.999C8.382,25.999 8.384,26 8.387,26L8.66,26C8.662,26 8.665,25.999 8.667,25.999L8.738,25.999C8.773,25.999 8.807,25.986 8.832,25.962C8.857,25.939 8.871,25.907 8.871,25.874L8.871,25.807C8.871,25.806 8.871,25.805 8.871,25.804L8.871,23.496C8.871,23.493 8.871,23.49 8.871,23.487L8.871,23.3C8.884,23.086 8.952,22.893 9.064,22.752C9.183,22.603 9.358,22.505 9.595,22.505C9.72,22.505 9.802,22.52 9.873,22.549C9.942,22.579 10.012,22.631 10.104,22.726L10.125,22.747L10.219,22.852C10.241,22.877 10.274,22.891 10.308,22.892C10.342,22.892 10.377,22.879 10.403,22.855L10.727,22.559C10.753,22.536 10.77,22.502 10.773,22.468C10.776,22.434 10.765,22.4 10.743,22.375" style="fill:rgb(208,0,112);fill-rule:nonzero;"/>
        </g>
        <g transform="matrix(1,0,0,1,-0.99997,-0.8426)">
            <path d="M21.661,23.871C21.659,23.869 21.657,23.869 21.656,23.867L21.655,23.867C21.402,23.691 21.082,23.629 20.737,23.6L20.09,23.545C19.821,23.523 19.654,23.467 19.557,23.391C19.475,23.328 19.424,23.227 19.423,23.072L19.423,23.068L19.422,23.068L19.423,23.06C19.424,22.876 19.496,22.743 19.622,22.652C19.758,22.554 19.975,22.492 20.281,22.492L20.284,22.492C20.675,22.493 20.999,22.584 21.269,22.757L21.269,22.758L21.433,22.873C21.459,22.892 21.492,22.898 21.524,22.891C21.557,22.884 21.587,22.864 21.606,22.835L21.848,22.483C21.867,22.455 21.876,22.419 21.871,22.386C21.869,22.368 21.861,22.351 21.851,22.336C21.843,22.319 21.83,22.303 21.813,22.292L21.785,22.272C21.4,21.997 20.862,21.843 20.282,21.842C19.818,21.842 19.422,21.954 19.135,22.167C18.85,22.377 18.682,22.695 18.682,23.057L18.682,23.064L18.682,23.074C18.682,23.393 18.801,23.676 19.037,23.869C19.276,24.064 19.612,24.168 20.036,24.202L20.701,24.256C20.945,24.279 21.097,24.333 21.187,24.408C21.265,24.471 21.315,24.572 21.315,24.733L21.315,24.743C21.314,24.945 21.232,25.085 21.08,25.181C20.917,25.285 20.651,25.348 20.282,25.348L20.27,25.349C19.783,25.347 19.437,25.237 19.167,25.015L19.027,24.896C19.002,24.875 18.969,24.865 18.935,24.869C18.901,24.874 18.869,24.891 18.847,24.918L18.569,25.255C18.546,25.282 18.534,25.317 18.536,25.351C18.538,25.385 18.553,25.417 18.579,25.438L18.711,25.55L18.71,25.551C18.713,25.552 18.715,25.554 18.718,25.556L18.735,25.571L18.736,25.569C19.145,25.865 19.655,26.007 20.28,26.007L20.291,26.007C20.806,26.006 21.24,25.895 21.557,25.676C21.871,25.46 22.058,25.127 22.057,24.743L22.057,24.723C22.058,24.336 21.908,24.044 21.661,23.871" style="fill:rgb(208,0,112);fill-rule:nonzero;"/>
        </g>
        <g transform="matrix(1,0,0,1,-0.99997,-0.8426)">
            <path d="M37.618,25.825L37.076,25.059L35.989,23.473L36.833,22.576L37.325,22.056L37.355,22.023C37.412,21.966 37.384,21.907 37.359,21.884C37.335,21.86 37.3,21.847 37.265,21.847L36.701,21.847C36.667,21.847 36.624,21.873 36.599,21.895C36.599,21.895 36.6,21.895 36.599,21.895L34.703,23.917L34.703,20.736C34.703,20.703 34.689,20.671 34.665,20.648C34.64,20.624 34.605,20.611 34.571,20.611L34.137,20.611C34.103,20.611 34.068,20.624 34.044,20.648C34.019,20.671 34.005,20.703 34.005,20.736L34.005,25.873C34.005,25.906 34.019,25.939 34.043,25.962C34.068,25.985 34.103,25.999 34.138,25.999L34.571,25.999C34.605,25.999 34.64,25.985 34.665,25.962C34.69,25.939 34.703,25.906 34.703,25.873L34.703,24.836L35.525,23.946L36.077,24.773L36.075,24.773L36.852,25.935C36.87,25.96 36.899,26.001 36.964,26.001L37.528,26.001C37.563,26.001 37.597,25.988 37.622,25.964C37.647,25.941 37.663,25.882 37.618,25.825" style="fill:rgb(208,0,112);fill-rule:nonzero;"/>
        </g>
        <g transform="matrix(1,0,0,1,-0.99997,-0.8426)">
            <path d="M32.764,20.65L32.841,20.65L32.955,20.985L33.069,20.65L33.144,20.65L33.144,21.047L33.093,21.047L33.093,20.812C33.093,20.804 33.094,20.792 33.094,20.772C33.094,20.753 33.095,20.734 33.095,20.712L32.981,21.047L32.928,21.047L32.814,20.712L32.814,20.768C32.815,20.789 32.815,20.803 32.815,20.812L32.815,21.047L32.764,21.047L32.764,20.65Z" style="fill:rgb(208,0,112);fill-rule:nonzero;"/>
        </g>
        <g transform="matrix(1,0,0,1,-0.99997,-0.8426)">
            <path d="M33.549,20.831C33.573,20.831 33.592,20.827 33.607,20.816C33.62,20.807 33.628,20.789 33.628,20.762C33.628,20.734 33.619,20.715 33.598,20.704C33.587,20.698 33.573,20.696 33.556,20.696L33.427,20.696L33.427,20.831L33.549,20.831ZM33.374,20.65L33.555,20.65C33.584,20.65 33.609,20.654 33.628,20.663C33.665,20.68 33.682,20.711 33.682,20.757C33.682,20.78 33.679,20.8 33.668,20.815C33.658,20.83 33.644,20.843 33.626,20.852C33.642,20.859 33.655,20.866 33.662,20.876C33.669,20.887 33.674,20.904 33.674,20.927L33.677,20.979C33.677,20.995 33.679,21.006 33.68,21.014C33.684,21.025 33.69,21.034 33.698,21.037L33.698,21.047L33.632,21.047C33.63,21.042 33.63,21.038 33.628,21.034C33.626,21.028 33.626,21.018 33.626,21.002L33.622,20.936C33.62,20.91 33.611,20.892 33.594,20.884C33.584,20.879 33.568,20.876 33.546,20.876L33.427,20.876L33.427,21.047L33.374,21.047L33.374,20.65Z" style="fill:rgb(208,0,112);fill-rule:nonzero;"/>
        </g>
        <g transform="matrix(1,0,0,1,-0.99997,-0.8426)">
            <path d="M33.261,21.045C33.246,21.045 33.235,21.033 33.235,21.016C33.235,20.998 33.246,20.986 33.263,20.986C33.278,20.986 33.29,20.998 33.29,21.016C33.29,21.033 33.278,21.045 33.261,21.045" style="fill:rgb(208,0,112);fill-rule:nonzero;"/>
        </g>
        <g transform="matrix(1,0,0,1,-0.99997,-0.8426)">
            <path d="M33.804,21.045C33.788,21.045 33.776,21.033 33.776,21.016C33.776,20.998 33.788,20.986 33.804,20.986C33.821,20.986 33.832,20.998 33.832,21.016C33.832,21.033 33.821,21.045 33.804,21.045L33.804,21.045Z" style="fill:rgb(208,0,112);fill-rule:nonzero;"/>
        </g>
        <g transform="matrix(1,0,0,1,-0.99997,-0.8426)">
            <path d="M42.225,10.685L42.225,10.778C42.222,11.954 42.097,13.103 41.65,13.925C41.21,14.716 40.503,15.245 39.13,15.266C39.121,15.264 39.107,15.264 39.079,15.266L39.056,15.266C37.674,15.252 36.958,14.722 36.516,13.924C36.065,13.098 35.939,11.939 35.939,10.756L35.939,10.685C35.94,9.509 36.065,8.566 36.516,7.744C36.958,6.945 37.674,6.415 39.056,6.403L39.109,6.403C40.492,6.415 41.206,6.945 41.651,7.746C42.099,8.566 42.225,9.509 42.225,10.685ZM42.614,5.743C42.607,5.735 42.6,5.726 42.59,5.718C41.842,5.027 40.645,4.6 39.258,4.598C39.239,4.596 39.21,4.596 39.183,4.596C38.043,4.596 36.918,4.834 35.94,5.671L35.939,5.672L35.939,4.937L35.941,4.937L35.941,1.216C35.941,1.118 35.899,1.021 35.825,0.953C35.752,0.883 35.649,0.843 35.545,0.843L34.25,0.843C34.146,0.843 34.044,0.883 33.97,0.953C33.895,1.021 33.854,1.118 33.854,1.216L33.854,4.937L33.855,4.937L33.855,12.837L33.854,12.837L33.854,16.538C33.854,16.636 33.897,16.732 33.97,16.8C34.044,16.871 34.146,16.91 34.251,16.91L35.545,16.91C35.649,16.91 35.751,16.871 35.825,16.8C35.9,16.732 35.942,16.636 35.942,16.538L35.942,15.772C36.806,16.739 38.046,17.072 39.183,17.071L39.263,17.071C40.647,17.067 41.844,16.639 42.59,15.95C43.986,14.629 44.304,12.604 44.309,10.722C44.305,8.85 43.986,7.059 42.614,5.743" style="fill:rgb(109,32,119);fill-rule:nonzero;"/>
        </g>
        <g transform="matrix(1,0,0,1,-0.99997,-0.8426)">
            <path d="M54.155,10.973C54.155,12.149 54.029,13.092 53.582,13.912C53.136,14.713 52.423,15.243 51.04,15.255L50.987,15.255C49.604,15.243 48.888,14.713 48.447,13.914C47.995,13.092 47.87,12.149 47.869,10.973L47.869,10.902C47.869,9.719 47.995,8.56 48.447,7.734C48.888,6.936 49.604,6.406 50.987,6.392L51.009,6.392C51.037,6.393 51.052,6.393 51.061,6.392C52.434,6.413 53.14,6.942 53.58,7.733C54.027,8.555 54.152,9.704 54.155,10.88L54.155,10.973ZM54.544,15.915C55.916,14.599 56.236,12.808 56.239,10.936C56.235,9.054 55.916,7.029 54.521,5.708C53.775,5.019 52.578,4.591 51.194,4.587L51.114,4.587C49.976,4.586 48.736,4.919 47.872,5.886L47.872,5.121C47.872,5.022 47.831,4.926 47.756,4.858C47.682,4.787 47.58,4.748 47.476,4.748L46.181,4.748C46.077,4.748 45.975,4.787 45.9,4.858C45.827,4.926 45.785,5.022 45.785,5.121L45.785,8.821L45.785,8.821L45.785,16.721L45.785,16.721L45.785,20.442C45.785,20.54 45.826,20.637 45.9,20.705C45.975,20.775 46.077,20.816 46.18,20.816L47.475,20.816C47.58,20.816 47.682,20.775 47.756,20.705C47.829,20.637 47.871,20.54 47.871,20.442L47.871,16.721L47.869,16.721L47.869,15.986L47.87,15.987C48.848,16.824 49.973,17.062 51.114,17.062C51.141,17.062 51.17,17.062 51.188,17.059C52.576,17.058 53.772,16.631 54.521,15.94C54.53,15.932 54.537,15.923 54.544,15.915" style="fill:rgb(109,32,119);fill-rule:nonzero;"/>
        </g>
        <g transform="matrix(1,0,0,1,-0.99997,-0.8426)">
            <path d="M73.127,18.04C73.013,18.349 72.809,18.847 72.672,19.146C72.672,19.146 72.426,19.688 72.077,20.038C71.757,20.357 71.393,20.577 70.982,20.699C70.572,20.821 70.302,20.84 70.302,20.84C69.974,20.862 69.495,20.881 69.238,20.881C68.981,20.881 68.771,20.612 68.771,20.284L68.771,19.405C68.771,19.076 68.904,18.807 69.067,18.807C69.23,18.807 69.631,18.779 69.958,18.745C69.958,18.745 70.207,18.719 70.435,18.544C70.663,18.369 70.779,18.117 70.779,18.117C70.916,17.818 71.118,17.32 71.228,17.01L71.467,16.334C71.576,16.024 71.574,15.517 71.461,15.208L67.836,5.302C67.723,4.993 67.9,4.74 68.229,4.74L69.495,4.74C69.824,4.74 70.18,4.995 70.285,5.306L72.66,12.313C72.766,12.625 72.936,12.624 73.039,12.311L75.354,5.308C75.458,4.995 75.811,4.74 76.14,4.74L77.429,4.74C77.758,4.74 77.934,4.992 77.821,5.301L73.127,18.04Z" style="fill:rgb(109,32,119);fill-rule:nonzero;"/>
        </g>
        <g transform="matrix(1,0,0,1,-0.99997,-0.8426)">
            <path d="M59.326,13.336L59.326,13.307C59.333,12.68 59.524,12.288 59.884,12.013C60.26,11.726 60.894,11.54 61.843,11.54L65.043,11.54L65.043,12.535C65.04,13.511 64.826,14.05 64.539,14.301C63.847,14.939 62.99,15.035 61.945,15.038L61.915,15.038C60.91,15.038 60.249,14.865 59.875,14.593C59.518,14.336 59.335,13.969 59.326,13.336M67.192,8.775L67.192,8.767C67.193,7.53 66.781,6.47 65.918,5.761C65.049,5.048 63.801,4.713 62.195,4.712L62.115,4.712C60.428,4.707 59.09,5.074 58.07,6.158L58.066,6.155L58.007,6.225C57.931,6.309 57.855,6.397 57.782,6.49C57.782,6.491 57.781,6.492 57.781,6.493L57.676,6.617C57.614,6.691 57.583,6.79 57.596,6.89C57.607,6.99 57.658,7.087 57.736,7.154L57.794,7.205C57.817,7.232 57.842,7.257 57.87,7.28L58.098,7.467L58.705,7.992C58.782,8.059 58.885,8.096 58.984,8.091C59.083,8.087 59.175,8.042 59.237,7.968L59.627,7.505L59.627,7.505C59.87,7.242 60.119,7.055 60.42,6.923C60.846,6.736 61.392,6.649 62.181,6.642L62.217,6.64C63.34,6.643 64.038,6.871 64.437,7.222C64.836,7.567 65.038,8.089 65.041,8.899C65.041,8.904 65.041,8.919 65.043,8.937L65.043,9.701L61.711,9.701C60.366,9.705 59.242,10.008 58.431,10.641C57.625,11.259 57.175,12.212 57.175,13.321L57.175,13.363C57.178,14.288 57.525,15.193 58.156,15.823C59.009,16.663 60.145,16.968 61.862,16.968L62.751,16.968C64.323,16.97 65.451,16.581 66.177,15.799C66.902,15.017 67.193,13.884 67.193,12.477L67.193,8.797L67.192,8.775Z" style="fill:rgb(109,32,119);fill-rule:nonzero;"/>
        </g>
        <g transform="matrix(1,0,0,1,-0.99997,-0.8426)">
            <path d="M20.476,4.764C20.132,4.764 19.774,5.034 19.68,5.364L17.417,13.349C17.323,13.68 17.158,13.683 17.051,13.356L14.418,5.357C14.311,5.031 13.942,4.764 13.598,4.764L13.126,4.764C12.782,4.764 12.413,5.031 12.307,5.357L9.695,13.356C9.588,13.683 9.423,13.68 9.329,13.349L7.045,5.364C6.95,5.034 6.591,4.764 6.247,4.764L5.286,4.764C4.942,4.764 4.746,5.031 4.85,5.359L8.343,16.377C8.447,16.704 8.813,16.973 9.157,16.973L9.818,16.973C10.124,16.973 10.455,16.735 10.552,16.444L13.164,8.651C13.273,8.325 13.452,8.325 13.562,8.65L16.173,16.381C16.283,16.706 16.654,16.973 16.998,16.973L17.637,16.973C17.955,16.973 18.294,16.725 18.39,16.421L21.875,5.359C21.978,5.031 21.781,4.763 21.438,4.763L20.476,4.764Z" style="fill:rgb(109,32,119);fill-rule:nonzero;"/>
        </g>
        <g transform="matrix(1,0,0,1,-0.99997,-0.8426)">
            <path d="M32.374,10.483C32.374,6.859 30.451,4.608 27.356,4.608C24.215,4.608 22.339,6.929 22.339,10.817C22.339,14.82 24.231,17.025 27.666,17.025C29.8,17.025 30.944,16.31 32.1,15.155L32.254,15.001L30.779,13.707L30.644,13.842C29.702,14.783 28.936,15.116 27.714,15.116C25.68,15.116 24.527,13.823 24.465,11.473L32.374,11.473L32.374,10.483ZM24.474,9.779C24.517,9.019 24.571,8.679 24.804,8.108C25.231,7.097 26.209,6.469 27.356,6.469C28.504,6.469 29.482,7.097 29.909,8.106C30.142,8.679 30.196,9.019 30.239,9.779L24.474,9.779Z" style="fill:rgb(109,32,119);fill-rule:nonzero;"/>
        </g>
        <g transform="matrix(1,0,0,1,-0.99997,-0.8426)">
            <path d="M2.241,7.292C2.927,7.292 3.484,6.732 3.484,6.042C3.484,5.351 2.927,4.791 2.241,4.791C1.557,4.791 1,5.351 1,6.042C1,6.732 1.557,7.292 2.241,7.292" style="fill:rgb(208,0,112);fill-rule:nonzero;"/>
        </g>
        <g transform="matrix(1,0,0,1,-0.99997,-0.8426)">
            <path d="M77.757,16.966C78.443,16.966 79,16.406 79,15.716C79,15.025 78.443,14.464 77.757,14.464C77.073,14.464 76.517,15.025 76.517,15.716C76.517,16.406 77.073,16.966 77.757,16.966" style="fill:rgb(208,0,112);fill-rule:nonzero;"/>
        </g>
    </g>
</svg>
