<svg width="105" height="32" viewBox="0 0 105 32" fill="none" xmlns="http://www.w3.org/2000/svg">
<path d="M69.8552 14.8087C69.8552 13.9525 69.7178 13.1513 69.4435 12.4045C69.1688 11.6583 68.7793 11.0106 68.2744 10.4614C67.769 9.91299 67.1598 9.47917 66.4466 9.16065C65.7329 8.84265 64.9261 8.68306 64.0259 8.68306C63.1254 8.68306 62.302 8.84265 61.556 9.16065C60.8093 9.47917 60.1614 9.91299 59.6129 10.4614C59.0638 11.0106 58.6358 11.6583 58.3285 12.4045C58.0209 13.1513 57.8674 13.9525 57.8674 14.8087C57.8674 15.6649 58.0209 16.4667 58.3285 17.2129C58.6358 17.9596 59.0638 18.6073 59.6129 19.156C60.1614 19.7051 60.8093 20.1388 61.556 20.4569C62.302 20.7754 63.1254 20.9344 64.0259 20.9344C64.9261 20.9344 65.7329 20.7754 66.4466 20.4569C67.1598 20.1388 67.769 19.7051 68.2744 19.156C68.7793 18.6073 69.1688 17.9596 69.4435 17.2129C69.7178 16.4667 69.8552 15.6649 69.8552 14.8087ZM55.7925 7.10225H57.9662V9.67113H58.0321C58.383 9.14413 58.8003 8.69447 59.2835 8.32077C59.7662 7.94775 60.2716 7.64048 60.7986 7.39862C61.3254 7.15727 61.8689 6.98183 62.4288 6.87163C62.9886 6.76211 63.5207 6.70709 64.0259 6.70709C65.2332 6.70709 66.3364 6.91029 67.3357 7.31635C68.3347 7.72275 69.1966 8.2879 69.9211 9.01247C70.6457 9.73704 71.2107 10.5931 71.6172 11.5812C72.0233 12.5692 72.2265 13.6452 72.2265 14.8087C72.2265 15.9727 72.0233 17.0482 71.6172 18.0362C71.2107 19.0243 70.6457 19.8805 69.9211 20.6051C69.1966 21.3295 68.3347 21.895 67.3357 22.3011C66.3364 22.7071 65.2332 22.9103 64.0259 22.9103C63.5207 22.9103 62.9886 22.8553 62.4288 22.7458C61.8689 22.6356 61.3254 22.4607 60.7986 22.2188C60.2716 21.9774 59.7662 21.6702 59.2835 21.2966C58.8003 20.9235 58.383 20.4733 58.0321 19.9465H57.9662V32H55.7925V7.10225Z" fill="#FF0039"/>
<path d="M83.852 14.8417C83.3029 14.8417 82.617 14.8694 81.7938 14.9239C80.9704 14.9791 80.1799 15.1108 79.4225 15.3193C78.6649 15.5281 78.0171 15.8519 77.4794 16.2908C76.9412 16.7302 76.6726 17.3337 76.6726 18.1021C76.6726 18.6074 76.7765 19.0407 76.9855 19.403C77.1938 19.7653 77.4738 20.0617 77.8252 20.2921C78.176 20.5228 78.5661 20.6875 78.9943 20.7861C79.4225 20.8849 79.8558 20.9344 80.2953 20.9344C81.0856 20.9344 81.7715 20.8026 82.3535 20.5393C82.935 20.2758 83.4238 19.9191 83.8192 19.4689C84.2143 19.0191 84.5051 18.4921 84.6919 17.888C84.8781 17.2845 84.9718 16.6422 84.9718 15.9614V14.8417H83.852ZM84.9718 13.0633V12.6681C84.9718 10.0119 83.6544 8.68314 81.0198 8.68314C79.2191 8.68314 77.6492 9.28729 76.3103 10.4944L74.9928 8.94664C76.4419 7.45372 78.6155 6.707 81.5138 6.707C82.2598 6.707 82.9793 6.8172 83.671 7.03642C84.3625 7.25614 84.9603 7.59117 85.4657 8.04084C85.9706 8.49118 86.3766 9.05667 86.6842 9.73695C86.9915 10.4178 87.1453 11.2302 87.1453 12.174V19.0573C87.1453 19.65 87.1727 20.2707 87.2277 20.9179C87.2822 21.5658 87.3431 22.0983 87.4088 22.5152H85.3012C85.2353 22.1421 85.1859 21.7362 85.153 21.2965C85.1199 20.8578 85.1036 20.4296 85.1036 20.0123H85.0377C84.4007 21.0445 83.6488 21.7856 82.7817 22.2352C81.914 22.6851 80.8551 22.9104 79.6036 22.9104C78.9228 22.9104 78.2641 22.8167 77.6276 22.6306C76.9906 22.4442 76.4254 22.1586 75.9315 21.7741C75.4375 21.3902 75.0422 20.9179 74.7458 20.358C74.4495 19.7982 74.3013 19.1451 74.3013 18.3984C74.3013 17.147 74.6249 16.1648 75.2728 15.4509C75.9202 14.7378 76.7327 14.2051 77.7099 13.8536C78.6865 13.5027 79.7296 13.283 80.8386 13.1951C81.9469 13.1076 82.9627 13.0633 83.8849 13.0633H84.9718Z" fill="#FF0039"/>
<path d="M97.0909 19.8476L101.8 7.10217H104.435L96.7286 26.5331C96.2675 27.7187 95.6799 28.6624 94.9666 29.3653C94.2529 30.0677 93.2264 30.4193 91.8874 30.4193C91.558 30.4193 91.223 30.4079 90.8828 30.3864C90.5422 30.3643 90.2078 30.2983 89.8784 30.1887L90.109 28.0809C90.5701 28.3222 91.1186 28.4431 91.7556 28.4431C92.5239 28.4431 93.1276 28.2013 93.567 27.7187C94.0059 27.2355 94.3904 26.5547 94.7196 25.6769L95.8393 22.7128L89.5161 7.10217H92.2497L97.0909 19.8476Z" fill="#FF0039"/>
<path d="M11.4361 7.09834V22.6298H6.33992V7.09834H0V2.00215H17.5941V7.09834H11.4361Z" fill="#FF0039"/>
<path d="M24.146 17.1998C24.146 17.9884 24.2978 18.6559 25.1167 18.6559C25.7537 18.6559 26.5122 18.3223 26.6031 18.2313L26.8155 22.2659C26.6941 22.3871 24.9346 22.9332 23.0235 22.9332C20.5058 22.9332 19.0498 21.659 19.0498 18.4435V6.76455H24.146V17.1998ZM21.6282 1.90735e-06C23.2663 1.90735e-06 24.3582 0.606707 24.3582 2.30555C24.3582 4.00422 23.2663 4.61093 21.6282 4.61093C19.9597 4.61093 18.8374 4.00422 18.8374 2.30555C18.8374 0.606707 19.9597 1.90735e-06 21.6282 1.90735e-06Z" fill="#FF0039"/>
<path d="M33.5796 1.09196V17.1088C33.5796 18.0491 33.8526 18.6559 34.6414 18.6559C35.1875 18.6559 35.7334 18.4738 36.2491 18.2311L36.4312 22.2657C35.7031 22.5387 34.2166 22.933 32.5786 22.933C30.0608 22.933 28.4834 21.7198 28.4834 18.3829V1.09196H33.5796Z" fill="#FF0039"/>
<path d="M46.9202 17.7713C45.7998 18.962 43.8543 18.7636 42.9972 17.3712L41.1304 14.3385C40.6716 13.593 40.8213 12.6246 41.484 12.0525C42.306 11.3431 43.5659 11.5262 44.152 12.4404L45.2435 14.1777L50.9532 8.07367C49.5095 6.97728 47.6574 6.33991 45.5611 6.33991C40.6469 6.33991 37.0371 9.91951 37.0371 14.7427C37.0371 19.5052 40.6469 23.0543 45.5611 23.0543C50.5361 23.0543 54.1458 19.5052 54.1458 14.7427C54.1458 13.4315 53.8772 12.2133 53.3887 11.1329L46.9202 17.7713Z" fill="#FF0039"/>
</svg>
