<svg width="808" height="113" viewBox="0 0 808 113" fill="none" xmlns="http://www.w3.org/2000/svg">
<g id="Color=Primary, Disposal=Horizontal">
<g id="Shape">
<path d="M380.269 87.0637V1.00846H368.168V87.0637H380.269Z" fill="#1F123F"/>
<path d="M422.026 87.9601C439.954 87.9601 453.961 74.0658 453.961 56.0256C453.961 37.9853 439.954 24.091 422.026 24.091C403.874 24.091 389.867 38.0974 389.867 56.0256C389.867 74.0658 403.986 87.9601 422.026 87.9601ZM422.026 76.4189C410.709 76.4189 401.969 67.4548 401.969 55.9135C401.969 44.3722 410.597 35.6323 422.026 35.6323C433.343 35.6323 441.859 44.4843 441.859 55.9135C441.859 67.5668 433.231 76.4189 422.026 76.4189Z" fill="#1F123F"/>
<path d="M525.988 55.6894C525.764 37.6492 512.094 24.091 494.054 24.091C475.902 24.091 461.895 37.9853 461.895 56.0256C461.895 74.1778 475.902 87.9601 492.485 87.9601C501.897 87.9601 509.517 83.4781 514.335 76.1948V81.5732C514.335 90.6493 507.276 101.294 489.908 101.294C482.625 101.294 477.022 99.3893 470.859 95.3555L466.489 105.216C474.109 110.034 482.176 112.051 490.244 112.051C512.43 112.051 525.988 98.2688 525.988 79.5563V55.6894ZM494.166 76.4189C482.849 76.4189 473.997 67.3427 473.997 56.0256C473.997 44.5963 482.849 35.5202 494.278 35.5202C505.595 35.5202 514.223 44.7084 514.223 56.0256C514.223 67.3427 505.371 76.4189 494.166 76.4189Z" fill="#1F123F"/>
<path d="M541.991 15.1269C546.137 15.1269 549.498 11.6533 549.498 7.50742C549.498 3.47358 546.137 0 541.991 0C537.845 0 534.483 3.47358 534.483 7.50742C534.483 11.6533 537.845 15.1269 541.991 15.1269ZM547.929 87.0637V24.9874H535.94V87.0637H547.929Z" fill="#1F123F"/>
<path d="M583.432 87.9601C597.439 87.9601 607.971 80.7888 607.971 67.903C607.971 55.6894 598.335 52.3279 585.561 50.423C576.821 49.1904 570.77 48.6302 570.77 42.6915C570.77 37.5371 575.476 34.5117 582.2 34.5117C588.923 34.5117 594.189 37.7612 595.309 43.4758H607.411C605.954 31.4864 595.758 24.091 582.2 24.091C568.641 24.091 558.669 31.1502 558.669 42.6915C558.669 54.1207 568.305 58.8268 580.295 60.2835C591.052 61.6281 595.87 63.4209 595.87 68.7994C595.87 74.514 590.603 77.5394 583.768 77.5394C576.261 77.5394 570.434 74.1778 569.426 67.903H557.436C558.669 80.5647 569.202 87.9601 583.432 87.9601Z" fill="#1F123F"/>
<path d="M654.983 24.9874H637.391V9.74844H625.289V24.9874H613.3V35.4081H625.289V66.7825C625.289 78.7719 634.59 87.9601 646.579 87.9601H654.759V76.5309H648.596C641.985 76.5309 637.391 72.1609 637.391 65.5499V35.4081H654.983V24.9874Z" fill="#1F123F"/>
<path d="M671.659 15.1269C675.805 15.1269 679.167 11.6533 679.167 7.50742C679.167 3.47358 675.805 0 671.659 0C667.513 0 664.152 3.47358 664.152 7.50742C664.152 11.6533 667.513 15.1269 671.659 15.1269ZM677.598 87.0637V24.9874H665.608V87.0637H677.598Z" fill="#1F123F"/>
<path d="M737.473 64.5414C735.007 71.6007 728.172 76.5309 719.769 76.5309C708.003 76.5309 699.711 67.7909 699.711 55.9135C699.711 44.0361 708.115 35.5202 719.544 35.5202C728.172 35.5202 735.007 40.4504 737.473 47.5097H750.134C747.221 33.7274 735.12 24.091 719.656 24.091C701.28 24.091 687.722 37.4251 687.722 55.9135C687.722 74.514 701.28 87.9601 719.656 87.9601C735.12 87.9601 747.221 78.2117 750.022 64.5414H737.473Z" fill="#1F123F"/>
<path d="M783.461 87.9601C797.467 87.9601 808 80.7888 808 67.903C808 55.6894 798.364 52.3279 785.59 50.423C776.85 49.1904 770.799 48.6302 770.799 42.6915C770.799 37.5371 775.505 34.5117 782.228 34.5117C788.951 34.5117 794.218 37.7612 795.338 43.4758H807.44C805.983 31.4864 795.786 24.091 782.228 24.091C768.67 24.091 758.698 31.1502 758.698 42.6915C758.698 54.1207 768.334 58.8268 780.323 60.2835C791.08 61.6281 795.899 63.4209 795.899 68.7994C795.899 74.514 790.632 77.5394 783.797 77.5394C776.29 77.5394 770.463 74.1778 769.454 67.903H757.465C758.698 80.5647 769.23 87.9601 783.461 87.9601Z" fill="#1F123F"/>
<path fill-rule="evenodd" clip-rule="evenodd" d="M140.064 56.0256V1.00046H154.07V29.5522C159.201 26.0553 165.401 24.011 172.078 24.011C189.76 24.011 204.093 38.3444 204.093 56.0256C204.093 73.7067 189.76 88.0402 172.078 88.0402C154.397 88.0402 140.064 73.7067 140.064 56.0256ZM172.078 74.0338C162.133 74.0338 154.07 65.9712 154.07 56.0256C154.07 46.0799 162.133 38.0173 172.078 38.0173C182.024 38.0173 190.087 46.0799 190.087 56.0256C190.087 65.9712 182.024 74.0338 172.078 74.0338Z" fill="#1F123F"/>
<path fill-rule="evenodd" clip-rule="evenodd" d="M119.054 82.4989V87.0397H133.061V56.0256C133.061 38.3444 118.727 24.011 101.046 24.011C83.3649 24.011 69.0315 38.3444 69.0315 56.0256C69.0315 73.7067 83.3649 88.0402 101.046 88.0402C107.724 88.0402 113.924 85.9958 119.054 82.4989ZM83.0379 56.0256C83.0379 46.0799 91.1004 38.0173 101.046 38.0173C110.992 38.0173 119.054 46.0799 119.054 56.0256C119.054 65.9712 110.992 74.0338 101.046 74.0338C91.1004 74.0338 83.0379 65.9712 83.0379 56.0256Z" fill="#1F123F"/>
<path d="M32.0146 38.0173C22.0689 38.0173 14.0064 46.0799 14.0064 56.0256C14.0064 65.9712 22.0689 74.0338 32.0146 74.0338C39.4763 74.0338 45.8781 69.4956 48.6104 63.0287H63.2609C60.067 77.3416 47.2902 88.0402 32.0146 88.0402C14.3334 88.0402 0 73.7067 0 56.0256C0 38.3444 14.3334 24.011 32.0146 24.011C47.2902 24.011 60.067 34.7095 63.2609 49.0224H48.6104C45.8781 42.5555 39.4763 38.0173 32.0146 38.0173Z" fill="#1F123F"/>
<path d="M212.097 25.0114V87.0397H226.103V25.0114H212.097Z" fill="#1F123F"/>
<path d="M276.89 2.07027C273.906 0.739656 270.6 0 267.122 0C253.861 0 243.111 10.7501 243.111 24.011V25.0141L234.107 25.0148V39.0212H243.111V87.0397H257.117V39.0212H275.125L294.856 83.3367L290.952 92.1047C288.705 97.1524 282.791 99.4225 277.744 97.1751L272.047 109.971C284.161 115.364 298.354 109.916 303.748 97.8016L336.156 25.0114H320.824L302.522 66.1188L287.921 33.3244C285.6 28.1114 280.486 25.0145 275.125 25.0114L257.117 25.0129V24.011C257.117 18.4856 261.596 14.0064 267.122 14.0064C268.571 14.0064 269.948 14.3146 271.192 14.8689L276.89 2.07027Z" fill="#1F123F"/>
<path d="M227.104 8.00365C227.104 12.4239 223.52 16.0073 219.1 16.0073C214.68 16.0073 211.096 12.4239 211.096 8.00365C211.096 3.58336 214.68 0 219.1 0C223.52 0 227.104 3.58336 227.104 8.00365Z" fill="#1F123F"/>
</g>
</g>
</svg>
