<svg class="w-full h-full" xmlns="http://www.w3.org/2000/svg" fill="none" viewBox="0 0 114 71"><g clip-path="url(#clip0_2801_3617)"><path fill="#22CDC6" d="M113.859 18.108a13.045 13.045 0 00-.601-2.484c-.627-1.775-1.629-3.27-2.91-4.4-.035-.031-.072-.066-.107-.094l-.225-.185c-.038-.034-.075-.062-.113-.094l-1.049-.873-1.3-1.08-1.303-1.084-6.397-5.315v.013a.844.844 0 00-.093-.088c-.032-.028-.07-.063-.107-.09l-.225-.189a10.532 10.532 0 00-.877-.63 7.391 7.391 0 00-.48-.281 8.754 8.754 0 00-.823-.407A9.9 9.9 0 0094.567.09a10.84 10.84 0 00-1.4-.091 12.054 12.054 0 00-2.807.335L73.757 4.444c-.36.088-.683.326-.918.636-.234.31-.378.695-.378 1.08v6.93l-3.277-2.724c-.06-.053-.125-.103-.185-.15a14.069 14.069 0 00-1.954-1.306 14.808 14.808 0 00-1.986-.912 14.906 14.906 0 00-1.73-.516c-.334-.082-.673-.15-1.02-.207-.602-.1-1.219-.163-1.848-.191-1.667-.081-3.427.09-5.238.539-2.333.58-4.573 1.566-6.65 2.878-.15.094-.29.184-.435.282a26.004 26.004 0 00-2.17 1.6c-.195.157-.392.32-.58.482a28.336 28.336 0 00-1.986 1.895c-.58.604-1.13 1.237-1.657 1.895l-3.599-2.991c-.232-.194-.557-.27-.915-.182L1.297 22.373c-.357.088-.68.326-.915.633A1.82 1.82 0 000 24.093v36.362c0 .389.144.702.379.893L11.73 70.78c.05.04.104.075.16.106.213.113.473.147.755.075l34.63-8.568a1.43 1.43 0 00.342-.135c.448-.24.802-.714.912-1.23a1.48 1.48 0 00.044-.354v-7.983c.084.14.172.282.266.416a14.988 14.988 0 001.66 2.105c.15.16.307.32.463.473.16.15.32.3.486.444a15.528 15.528 0 00.846.695c.172.132.347.258.53.38.09.062.18.125.272.184.275.179.554.348.842.51.254.142.514.276.78.405.128.063.263.122.398.185a12.581 12.581 0 00.918.37 12.614 12.614 0 001.278.4c.11.031.222.056.332.085.106.025.219.05.332.075.106.022.213.047.322.066.12.018.232.043.348.062.113.019.225.038.338.053.022.007.041.007.06.01.135.019.266.037.4.053l.461.047c.157.016.307.025.46.035h.01c.157.006.316.015.473.018.16.007.316.01.476.01h.056c.467-.004.94-.022 1.42-.06.16-.012.319-.028.479-.047.166-.022.332-.04.5-.066.164-.022.333-.043.499-.075a9.667 9.667 0 00.58-.103c.115-.022.231-.044.347-.072.053-.013.107-.022.163-.035.144-.034.291-.065.438-.103.138-.034.273-.069.408-.106.106-.029.213-.057.32-.088a17.592 17.592 0 001.228-.395.707.707 0 00.093-.034 14.198 14.198 0 00.61-.229c.12-.044.236-.09.352-.138.338-.14.673-.285 1.005-.441l.43-.207.068-.037a24.026 24.026 0 001.926-1.071c.07-.044.145-.088.214-.132.172-.11.344-.22.513-.335l.11-.072c.144-.097.288-.194.432-.298l.025-.018c.22-.154.439-.314.655-.473a34.999 34.999 0 001.071-.849c.132-.11.266-.226.398-.335.006-.01.012-.013.019-.019.278-.241.548-.489.817-.739.129-.119.254-.241.376-.36.016-.016.031-.028.044-.04l.373-.374a28.58 28.58 0 001.497-1.64c.113-.135.225-.267.335-.405l.16-.197 1.381 1.146 2.22 1.845a.98.98 0 00.677.22c.079 0 .16-.017.239-.035l15.495-3.834c.307-.078.558-.41.558-.742V37.925l.92-.228c.323-.078.646-.17.962-.276 1.66-.538 3.233-1.384 4.664-2.468.414-.31.811-.638 1.2-.99a17.631 17.631 0 001.099-1.067c3.214-3.398 5.294-8.049 5.3-12.715v-.019c0-.71-.047-1.396-.141-2.054zm-87.598.895l10.193-2.524a.452.452 0 01.398.079l4.952 4.118 1.56 1.296.827.683c.175.147.05.504-.198.564l-10.196 2.524a.425.425 0 01-.394-.081l-7.34-6.095c-.175-.147-.05-.504.198-.564zM12.27 30.892l-7.342-6.095c-.175-.147-.05-.504.2-.564l10.155-2.514a.443.443 0 01.398.078l6.515 5.415.827.683c.176.147.05.5-.197.563l-10.164 2.515a.421.421 0 01-.392-.081zm33.698 28.417c0 .332-.248.664-.558.742l-10.487 2.593c-.307.076-.558-.131-.558-.463V51.937c0-.335-.25-.542-.56-.463l-8.451 2.092c-.307.075-.558.403-.558.739v10.244c0 .332-.247.663-.557.739L13.75 67.884c-.307.075-.558-.135-.558-.464V34.252c0-.332.25-.664.558-.74l10.487-2.595c.31-.076.557.131.557.466v10.27c0 .331.25.541.558.463l8.45-2.089c.31-.078.561-.41.561-.742v-10.27c0-.334.251-.666.558-.742l.799-.197.391-.097.057-.012 1.513-.373 7.727-1.914c.31-.078.558.129.558.464v33.165zm19.84-2.928c-9.507 2.352-17.213-4.053-17.213-14.306S56.3 21.606 65.806 19.251c9.507-2.352 17.216 4.052 17.216 14.306 0 10.253-7.709 20.472-17.216 22.824zm45.596-35.552c-.006 3.893-1.804 7.77-4.56 10.52-.003 0-.003.003-.007.006-.363.366-.745.708-1.14 1.027-.003 0-.003.004-.003.004-.41.335-.836.642-1.275.92l-.006.007a12.223 12.223 0 01-3.637 1.587l-2.969.736c-.307.075-.557.404-.557.74v10.243c0 .332-.248.664-.558.74l-10.487 2.596c-.307.075-.558-.132-.558-.464V16.326c0-.335.251-.667.558-.742l14.606-3.614c.899-.22 1.77-.31 2.6-.289 1.791.05 3.398.636 4.695 1.645l.36.3c.454.401.865.865 1.228 1.372 1.084 1.528 1.71 3.514 1.71 5.813v.018z"></path><path fill="#FEFEFE" d="M111.401 20.81v.019c-.006 3.892-1.804 7.77-4.56 10.52-.003 0-.003.003-.006.006-.364.366-.746.707-1.141 1.027-.003 0-.003.003-.003.003-.41.335-.836.642-1.275.92l-.006.007a12.226 12.226 0 01-3.636 1.588l-2.97.736c-.307.075-.557.404-.557.739v10.244c0 .332-.248.664-.558.739l-10.487 2.596c-.307.075-.558-.131-.558-.463V16.325c0-.335.251-.667.558-.742l14.606-3.614c.899-.22 1.77-.31 2.6-.288 1.791.05 3.398.636 4.695 1.644l.36.3c.455.402.865.865 1.228 1.372 1.084 1.529 1.71 3.514 1.71 5.813zM65.806 19.25c-9.507 2.355-17.212 12.57-17.212 22.824 0 10.254 7.705 16.658 17.212 14.306 9.506-2.352 17.215-12.57 17.215-22.824 0-10.253-7.709-16.658-17.215-14.306zm0 24.64c-3.11.771-5.635-1.324-5.635-4.681 0-3.358 2.524-6.702 5.635-7.473 3.113-.77 5.635 1.328 5.635 4.686 0 3.357-2.522 6.698-5.635 7.469zM45.965 26.144V59.31c0 .332-.248.664-.558.743L34.92 62.645c-.307.075-.557-.132-.557-.464V51.937c0-.335-.251-.541-.561-.463l-8.451 2.092c-.307.075-.558.404-.558.739v10.244c0 .332-.247.664-.557.739l-10.487 2.596c-.307.075-.558-.135-.558-.463V34.252c0-.332.251-.664.558-.739l10.487-2.596c.31-.075.557.131.557.466v10.27c0 .331.251.541.558.463l8.45-2.089c.311-.078.562-.41.562-.742v-10.27c0-.334.25-.666.557-.741l.799-.198.391-.097.057-.012 1.513-.373 7.727-1.913c.31-.079.558.128.558.463zM22.823 28.459L12.66 30.974a.42.42 0 01-.391-.082l-7.342-6.094c-.176-.147-.05-.504.2-.564l10.155-2.515a.443.443 0 01.398.079l6.515 5.415.827.682c.175.147.05.501-.198.564zM43.992 23.22l-10.196 2.524a.425.425 0 01-.395-.082l-7.339-6.094c-.175-.148-.05-.505.198-.564l10.192-2.524a.453.453 0 01.398.078l4.952 4.118 1.56 1.297.827.683c.175.147.05.504-.197.563z"></path><path fill="#22CDC6" d="M71.442 36.422c0 3.355-2.522 6.7-5.635 7.47-3.11.77-5.635-1.325-5.635-4.682s2.525-6.702 5.635-7.473c3.113-.77 5.635 1.328 5.635 4.686z"></path></g><defs><clipPath id="clip0_2801_3617"><path fill="#fff" d="M0 0H114V71H0z"></path></clipPath></defs></svg>