<?xml version="1.0" encoding="iso-8859-1"?>
<!-- Generator: Adobe Illustrator 21.0.0, SVG Export Plug-In . SVG Version: 6.00 Build 0)  -->
<svg version="1.1" id="Capa_1" xmlns="http://www.w3.org/2000/svg" xmlns:xlink="http://www.w3.org/1999/xlink" x="0px" y="0px"
	 viewBox="0 0 286.56 39.1" style="enable-background:new 0 0 286.56 39.1;" xml:space="preserve">
<g>
	<path style="fill:#FF6E00;" d="M147.97,30.81c-8.16,0-12.31-3.89-12.31-12.1c0-8.21,4.15-12.1,12.31-12.1
		c8.16,0,12.26,3.89,12.26,12.1C160.23,26.92,156.09,30.81,147.97,30.81L147.97,30.81z M147.97,10.62c-5.66,0-7.3,2.54-7.3,8.08
		c0,5.54,1.64,8.03,7.3,8.03c5.66,0,7.26-2.54,7.26-8.03C155.23,13.21,153.59,10.62,147.97,10.62L147.97,10.62z"/>
	<path style="fill:#FF6E00;" d="M226.31,25.12c4.34,3.41,9.95,5.28,15.79,5.28c0-2.82-1.98-5.21-4.72-5.84
		c-2.89-0.66-5.59-1.9-7.79-3.62c-2.77-2.18-4.48-4.89-4.93-7.76c-0.08-0.48,0.33-0.87,0.8-0.8c2.33,0.38,6.69,0.82,16.89,0.82
		c5.08,0.03,5.95,1.69,7.61,5.82c0,0,0.05,0.11,0.11,0.3c-1.44,3.87-4.2,11.9-5.13,19.18c1.74,0.23,3.51,0.39,5.28,0.51
		c0.51-3.85,1.59-8.02,2.69-11.56c1.1,3.56,2.2,7.77,2.71,11.66c1.79-0.03,3.54-0.15,5.3-0.31c-0.9-7.36-3.71-15.56-5.16-19.46
		c0.08-0.2,0.11-0.31,0.13-0.31c1.64-4.1,2.51-5.75,7.57-5.79c10.38,0,14.72-0.46,17.02-0.85c0.41-0.07,0.75,0.28,0.69,0.69
		c-0.43,2.92-2.15,5.67-4.95,7.87c-2.2,1.72-4.9,2.97-7.79,3.62c-2.75,0.62-4.72,3.02-4.72,5.84c5.84,0,11.44-1.87,15.79-5.28
		c4.57-3.59,7.08-8.38,7.08-13.48v-0.7c0-0.28-0.03-0.57-0.1-0.87c-0.51-2.31-2.98-3.69-5.67-3.13c-1.61,0.33-4.93,1-17.36,1
		c-5.85,0.03-8.66,2.05-10.53,5.05c-1.87-3.02-4.69-5.02-10.54-5.05c-12.43,0-15.76-0.67-17.35-1c-2.67-0.54-5.16,0.84-5.67,3.15
		c-0.07,0.3-0.1,0.57-0.1,0.87v0.71c0,5.1,2.52,9.89,7.08,13.48L226.31,25.12L226.31,25.12z"/>
	<path style="fill:#FF6E00;" d="M51.56,30.68h-5.05v-3.23c-1.69,2.28-4.26,3.23-7.15,3.23c-9.48,0-12.28-5.26-12.28-12.07
		c0-6.8,2.62-12.07,12.25-12.07c9.62,0,12.25,5.53,12.25,12.07v12.07H51.56L51.56,30.68z M32.05,18.63c0,5.61,1.77,7.89,7.33,7.89
		s7.25-2.28,7.25-7.89c0-5.61-1.72-7.89-7.28-7.89c-5.56,0-7.28,2.28-7.28,7.89H32.05L32.05,18.63z"/>
	<path style="fill:#FF6E00;" d="M12.62,30.81c-3.02,0-5.97-1-7.53-3.54v10.15H0V6.67h5.1v3.56c1.69-2.67,4.49-3.59,7.48-3.59
		c8.16,0,11.97,3.94,11.97,12.1c0,8.16-3.8,12.05-11.92,12.05V30.81L12.62,30.81z M5.1,18.74c0,5.44,1.9,7.95,7.53,7.95
		c5.31,0,6.87-2.51,6.87-7.95s-1.56-7.87-6.92-7.87C7.21,10.87,5.1,13.46,5.1,18.74L5.1,18.74L5.1,18.74z"/>
	<path style="fill:#FF6E00;" d="M94.06,30.81c-3.02,0-5.97-1-7.53-3.54v10.15h-5.1V6.67h5.1v3.56c1.69-2.67,4.49-3.59,7.48-3.59
		c8.16,0,11.97,3.94,11.97,12.1c0,8.16-3.8,12.05-11.92,12.05L94.06,30.81L94.06,30.81z M86.54,18.74c0,5.44,1.9,7.95,7.53,7.95
		c5.31,0,6.87-2.51,6.87-7.95s-1.56-7.87-6.92-7.87C88.65,10.87,86.54,13.46,86.54,18.74L86.54,18.74L86.54,18.74z"/>
	<path style="fill:#FF6E00;" d="M128.07,30.77V17.28c-0.08-5.1-2.38-6.61-7.21-6.61c-4.36,0-7.13,1.64-7.13,6.31v13.79h-5.1V0h5.1
		v9.85c1.61-2.59,4.23-3.2,7.13-3.2c9.67,0,12.31,5.31,12.31,10.38v13.76l-5.1,0V30.77L128.07,30.77z"/>
	<path style="fill:#FF6E00;" d="M182.09,30.82c0-3.11,0.05-7.08,0.05-10.15c0-5.66-0.66-9.33-7.21-9.33c-5.53,0-7.08,2.9-7.08,8.08
		v11.41h-5.1V6.66h5.1v3.85c1.9-2.64,4.44-3.2,7.08-3.2c6.79,0,12.23,2.85,12.23,10.28v13.22h-5.05L182.09,30.82L182.09,30.82z"/>
	<path style="fill:#FF6E00;" d="M208.4,23.33c0,0-0.02,0.03-0.03,0.05c-0.39,2.43-2.77,3.38-6.26,3.38c-4.84,0-6.87-1.95-7.26-5.97
		h19.26c0.52-9.07-2.46-14.17-12.1-14.17c-9.64,0-12.26,5.62-12.26,12.15c0,6.53,2.59,12.05,12.23,12.05
		c6.28,0,9.95-1.89,11.61-7.48h-5.18V23.33L208.4,23.33z M202.08,10.71c4.97,0,6.87,2.11,7.08,6.23l-14.35,0
		C195.07,12.79,197.06,10.71,202.08,10.71L202.08,10.71L202.08,10.71z"/>
	<path style="fill:#FF6E00;" d="M73.48,6.69l-7,15.4L59.7,6.69h-5.31l9.38,21.18c-1.3,2.43-2.43,4.36-3.46,4.97
		c-1.16,0.67-2.53,0.49-5.1,0.56h-1.23v4.05l1.48,0c2.07-0.07,3.97-0.07,5.75-0.59c4.02-0.95,5.87-4.8,7.39-8.3
		c3.56-7.31,7.2-15.46,10.18-21.87L73.48,6.69L73.48,6.69z"/>
</g>
</svg>
