<svg id="Layer_1" data-name="Layer 1" xmlns="http://www.w3.org/2000/svg" viewBox="0 0 311.8 103"><title>Yango logo - Brandlogos.net</title><path d="M260.24,369.67l1.68-35.22h-21.8l-.28,63.87L228.1,433.68h22.08L261.36,400l42.77-65.55H279.39Z" transform="translate(-228.1 -332.5)" style="fill:#ffffff"/><path d="M258.73,433.68h22.5l8.39-17.89H307.5l-3.21,17.89h21.24l14.39-99.23H310.16Zm59.26-78-7.27,41.37H298.56Z" transform="translate(-228.1 -332.5)" style="fill:#ffffff"/><path d="M381.82,391.2l2.8-56.74h-24l-33,99.23h20.26l19.71-59.26-3.07,59.26H388l33-99.23H400.69Z" transform="translate(-228.1 -332.5)" style="fill:#ffffff"/><path d="M451,350.25c3.49,0,4.89,3.49,5.17,15.23l19.7-6.71C476,344,468.7,332.5,453.19,332.5c-19.85,0-32.84,17.47-43.6,48.63s-4.33,54.23,12.44,54.23c6.71,0,10.9-2.66,15.65-8.66l-1.26,7h15.79l18.73-56.18H440.75l-6.15,18.73h10.62l-.42,1.26c-3.07,9.36-8.66,20-14.53,20-6.29,0-6.85-8.53,1.54-33.68S444.66,350.25,451,350.25Z" transform="translate(-228.1 -332.5)" style="fill:#ffffff"/><path d="M491.62,435.5c17.33,0,31.86-15.79,42.49-47.66,9.92-29.63,8.94-55.2-17.61-55.2-17.33,0-31.72,15.79-42.49,47.66C463.95,410.06,465.07,435.5,491.62,435.5Zm2.1-17.75c-8.38,0-2.94-17.75,2.52-34.66,8.39-26,13.28-32.7,18.17-32.7,8.38,0,2.94,17.75-2.52,34.66C503.5,411,498.61,417.75,493.72,417.75Z" transform="translate(-228.1 -332.5)" style="fill:#ffffff"/></svg>