<svg width="71" height="77" viewBox="0 0 71 77" fill="none" xmlns="http://www.w3.org/2000/svg">
<path d="M2.7874 12C1.25942 12 0.0185209 13.2693 0.0185209 14.8347L0 48.1127H5.53313L5.55165 14.8441C5.55165 13.2693 4.32001 12 2.78277 12L2.7874 12Z" fill="#8613DA"/>
<path d="M39.9544 22.6006L37.5327 25.6562C35.8381 24.763 33.9026 24.2647 31.8607 24.2647C25.0913 24.2647 19.6137 29.7272 19.6045 36.4684C19.6045 40.5864 21.6464 44.2343 24.7672 46.4438L24.795 46.4626C24.9663 46.5801 25.1469 46.7023 25.3321 46.8105C26.4943 47.6096 29.0965 49.4994 29.1242 50.6229C29.0965 51.7559 26.4572 53.6738 25.3043 54.4542C25.1422 54.5576 24.9848 54.6563 24.832 54.7692C24.795 54.788 24.7764 54.8068 24.7764 54.8068C21.6464 57.0162 19.5952 60.6548 19.5952 64.7728C19.5952 71.5139 25.0635 76.9858 31.8329 76.9952C38.5931 76.9952 44.0799 71.5327 44.0799 64.7916C44.0799 60.6736 42.038 57.0256 38.9079 54.8162C38.9079 54.8162 38.8894 54.8068 38.8524 54.7786C38.6996 54.6657 38.5329 54.567 38.3801 54.4636C37.2271 53.6785 34.5972 51.7653 34.5694 50.6323C34.5972 49.5088 37.1901 47.619 38.3616 46.8293C38.5421 46.7164 38.7135 46.5989 38.8987 46.4814C38.9172 46.472 38.9264 46.4626 38.9264 46.4626C42.0565 44.2531 44.1077 40.6146 44.1077 36.4966C44.1077 33.817 43.2464 31.349 41.7833 29.3323L44.4225 25.9806L39.9682 22.6194L39.9497 22.6006H39.9544ZM31.8422 30.1738C35.3334 30.1738 38.1671 33.0038 38.1578 36.4825C38.1578 39.9659 35.3287 42.7912 31.8329 42.7818C28.3417 42.7818 25.508 39.9518 25.508 36.4731C25.508 32.9944 28.3464 30.1644 31.8422 30.1738ZM31.8237 71.0956C28.3325 71.0956 25.4988 68.2656 25.4988 64.7869C25.4988 61.3082 28.3371 58.4782 31.8329 58.4876C35.3241 58.4876 38.1578 61.3176 38.1486 64.7963C38.1486 68.2797 35.3195 71.105 31.8237 71.0956Z" fill="#8613DA"/>
<path d="M13.2008 24.251C11.6219 24.251 10.3347 25.5296 10.3347 27.1045L10.3162 48.113H16.0391L16.0484 27.1045C16.0484 25.5296 14.7704 24.251 13.1915 24.251H13.2008Z" fill="#8613DA"/>
<path d="M13.21 15.4834C11.4505 15.4834 10.0244 16.9031 10.0244 18.6518C10.0244 20.4006 11.4505 21.8203 13.2008 21.8297C14.9602 21.8297 16.3864 20.41 16.3864 18.6612C16.3864 16.9125 14.9602 15.4928 13.21 15.4928V15.4834Z" fill="#8613DA"/>
<path d="M58.7577 24.2881C51.9883 24.2881 46.5015 29.7506 46.5015 36.5011C46.5015 43.2517 51.979 48.7236 58.7392 48.733C65.5086 48.733 70.9954 43.2705 70.9954 36.52C70.9954 29.7694 65.5178 24.2975 58.7577 24.2975V24.2881ZM58.7577 30.1925C62.2489 30.1925 65.0826 33.0224 65.0826 36.5011C65.0826 39.9798 62.2535 42.8098 58.7577 42.8004C55.2665 42.8004 52.4328 39.9704 52.4328 36.4917C52.4328 33.013 55.2619 30.1925 58.7577 30.1925Z" fill="#8613DA"/>
</svg>
