<?xml version="1.0" encoding="UTF-8" standalone="no"?>
<!DOCTYPE svg PUBLIC "-//W3C//DTD SVG 1.1//EN" "http://www.w3.org/Graphics/SVG/1.1/DTD/svg11.dtd">
<svg width="100%" height="100%" viewBox="0 0 484 111" version="1.1" xmlns="http://www.w3.org/2000/svg" xmlns:xlink="http://www.w3.org/1999/xlink" xml:space="preserve" xmlns:serif="http://www.serif.com/" style="fill-rule:evenodd;clip-rule:evenodd;stroke-linejoin:round;stroke-miterlimit:2;">
    <g transform="matrix(1,0,0,1,-158,-144.8)">
        <path d="M495.8,229.5C492.7,234.6 487.7,237.2 482.3,237.2C473.4,237.2 464.2,230.4 464.2,217.5C464.2,204.7 473.4,198.2 482.3,198.1C487.7,198 492.8,200.5 495.8,205.3L495.9,205.1L510.3,192.9C503.5,184.3 492.8,179.9 481.8,179.9C462.9,179.9 443.5,192.5 443.5,217.6C443.5,242.8 462.8,255.3 481.7,255.2C492.7,255.1 503.5,250.7 510.4,242.1L496,229.6L495.8,229.5ZM627,226.3L627,144.8L606.5,144.8L606.5,226.3C606.5,252 619.9,257.5 642,253.5L641.3,237.9C631.3,239.6 627,237.3 627,226.3M586.7,232.7L586.7,207.7C586.7,187.1 571.3,179.9 552.9,179.9C543.2,179.9 531.7,182.1 522.9,187.3L529.9,201.1C534.6,198.6 541.8,196.4 550.2,196.4C557.3,196.4 566.8,198.4 566.8,207.2L566.8,211.3C561.5,207.9 554.2,206.7 547.8,206.7C531.9,206.7 519.3,215 520,232.5C520.5,246.3 532.6,254.9 546,254.9C555.2,254.9 566.5,251.5 570.8,242.6C570.8,255.4 582.7,256 593.5,253.6L593.4,242C586.6,242.4 586.7,238.8 586.7,232.7M566.4,227.8C565.7,235.3 557,238.8 550.2,238.8C545.4,238.8 540.9,236.3 540.4,231.1C539.7,224.1 545,220.4 551.5,220C556.7,220 562.2,221.4 566.3,224.2L566.3,227.8L566.4,227.8ZM394.6,179.9C375.7,180.1 357,192.7 357,217.5C357,242.6 376.2,255.1 395.2,255.1C414.1,255.1 432.9,242.6 432.9,217.5C433,192.2 413.8,179.7 394.6,179.9M394.8,236.9C386.2,236.9 377.7,230.4 377.7,217.5C377.7,204.6 386.5,198.2 395.2,198.2C404,198.2 412.3,204.7 412.3,217.5C412.3,230.5 403.6,237 394.8,236.9M335.5,226.3L335.5,144.8L315,144.8L315,226.3C315,252 328.4,257.5 350.5,253.5L349.8,237.9C339.8,239.6 335.5,237.3 335.5,226.3M229.3,229.6L229.3,145L208.5,145L208.5,184.6C183.6,172.3 158,189.5 158,217.6C158,237.6 169.4,255.6 191.1,255.1C200.4,254.9 208.6,250.2 212.6,241.3L212.6,243.2C213,255.6 225.8,255.8 236.2,253.4L236,240C229.5,240.5 229.3,236.6 229.3,229.6M209.1,220.5C209.1,229.3 203.3,236.8 194.3,236.8C183.2,236.8 178.6,227.9 178.6,217.7C178.6,199.8 194.3,193.6 209.1,202.1L209.1,220.5Z" style="fill:rgb(29,29,27);fill-rule:nonzero;"/>
    </g>
    <g transform="matrix(1,0,0,1,-158,-144.8)">
        <rect x="262.8" y="202" width="20.6" height="20.6" style="fill:rgb(72,38,131);"/>
    </g>
</svg>
