<?xml version="1.0" encoding="UTF-8" standalone="no"?>
<!DOCTYPE svg PUBLIC "-//W3C//DTD SVG 1.1//EN" "http://www.w3.org/Graphics/SVG/1.1/DTD/svg11.dtd">
<svg width="100%" height="100%" viewBox="0 0 119 52" version="1.1" xmlns="http://www.w3.org/2000/svg" xmlns:xlink="http://www.w3.org/1999/xlink" xml:space="preserve" xmlns:serif="http://www.serif.com/" style="fill-rule:evenodd;clip-rule:evenodd;stroke-linejoin:round;stroke-miterlimit:2;">
    <g transform="matrix(0.991667,0,0,0.991667,0,0.216667)">
        <path d="M30.885,5.937C31.033,7.368 30.868,8.478 30.392,9.269C29.916,10.059 29.284,10.68 28.497,11.13C27.709,11.581 26.836,11.941 25.882,12.204C24.927,12.468 24.054,12.808 23.261,13.221C22.47,13.635 21.833,14.222 21.354,14.972C20.875,15.726 20.705,16.783 20.844,18.137C20.929,18.982 21.187,19.585 21.612,19.951C22.04,20.316 22.533,20.534 23.096,20.605C23.66,20.679 24.284,20.698 24.966,20.665C25.649,20.633 26.273,20.653 26.836,20.724C27.4,20.798 27.893,20.996 28.315,21.325C28.738,21.653 28.993,22.237 29.078,23.081C29.225,24.512 28.908,25.767 28.128,26.85C27.349,27.929 26.358,28.329 24.828,28.414C23.309,28.499 20.498,29.284 19.255,30.357C18.011,31.431 17.229,33.735 16.974,35.846C16.778,37.472 16.381,40.744 16.214,42.348C16.093,43.493 15.937,44.742 15.582,45.816C15.228,46.89 14.792,47.862 14.268,48.731C13.744,49.598 13.115,50.332 12.378,50.927C11.641,51.522 10.74,51.874 9.678,51.981C8.87,52.063 8.054,51.876 7.23,51.426C6.405,50.973 5.853,50.111 5.74,49.012C5.623,47.876 5.728,44.549 5.983,42.524C6.238,40.498 6.734,37.506 7.009,36.358C7.516,34.248 7.037,32.454 6.887,32.004C6.816,31.791 6.601,31.666 6.383,31.706C5.578,31.856 3.654,32.111 2.283,31.459C1.77,31.216 0.087,30.193 0.002,27.49C-0.069,25.212 1.708,23.909 2.872,23.52C4.391,23.013 6.604,23.067 7.304,22.475C8.003,21.886 8.621,21.135 9.159,20.228C9.882,18.967 10.437,17.69 10.825,16.389C11.211,15.089 11.565,13.822 11.882,12.584C12.2,11.346 12.571,10.159 12.993,9.022C13.415,7.886 14.004,6.872 14.767,5.977C15.529,5.084 16.554,4.33 17.843,3.716C19.133,3.104 20.824,2.687 22.915,2.475C23.686,2.395 24.524,2.347 25.431,2.33C26.338,2.313 27.171,2.404 27.933,2.602C28.695,2.803 29.352,3.16 29.905,3.679C30.457,4.197 30.786,4.951 30.888,5.943L30.885,5.937Z" style="fill:rgb(103,112,35);fill-rule:nonzero;"/>
    </g>
    <g transform="matrix(0.991667,0,0,0.991667,0,0.216667)">
        <path d="M49.516,3.656C49.635,4.832 49.516,6.178 49.151,7.697C48.785,9.218 48.312,10.842 47.731,12.567C47.148,14.296 46.507,16.103 45.81,17.99C45.113,19.877 44.481,21.778 43.917,23.688C43.354,25.6 42.909,27.507 42.583,29.411C42.257,31.318 42.184,33.131 42.362,34.857C42.453,35.738 42.637,36.452 42.914,36.996C43.192,37.543 43.473,38.025 43.756,38.438C44.039,38.855 44.311,39.243 44.569,39.605C44.83,39.968 44.986,40.424 45.042,40.974C45.144,41.966 44.991,42.841 44.589,43.606C44.184,44.371 43.64,45.029 42.957,45.581C42.271,46.133 41.481,46.567 40.588,46.879C39.693,47.193 38.823,47.392 37.982,47.479C35.633,47.72 33.647,47.236 32.023,46.032C30.4,44.827 29.456,42.94 29.193,40.37C29.034,38.829 29.085,36.786 29.346,34.239C29.604,31.692 30.046,28.949 30.675,26.014C31.301,23.079 32.083,20.107 33.018,17.1C33.953,14.094 35.018,11.363 36.211,8.906C37.407,6.45 38.727,4.404 40.172,2.775C41.617,1.146 43.13,0.248 44.708,0.086C45.11,0.044 45.572,0.018 46.091,0.001C46.609,-0.013 47.099,0.084 47.567,0.296C48.034,0.509 48.451,0.874 48.819,1.393C49.188,1.911 49.423,2.665 49.522,3.656L49.516,3.656Z" style="fill:rgb(103,112,35);fill-rule:nonzero;"/>
    </g>
    <g transform="matrix(0.991667,0,0,0.991667,0,0.216667)">
        <path d="M75.751,26.442C75.986,28.754 75.813,30.967 75.235,33.083C74.654,35.2 73.717,37.084 72.422,38.736C71.127,40.387 69.523,41.756 67.614,42.841C65.704,43.926 63.539,44.592 61.117,44.839C59.21,45.034 57.368,44.895 55.597,44.431C53.827,43.963 52.246,43.198 50.86,42.136C49.472,41.073 48.327,39.761 47.429,38.206C46.528,36.647 45.975,34.879 45.774,32.899C45.517,30.369 45.746,28.009 46.469,25.821C47.191,23.634 48.273,21.716 49.718,20.067C51.163,18.418 52.934,17.078 55.036,16.049C57.136,15.021 59.417,14.377 61.873,14.128C63.488,13.964 65.078,14.128 66.65,14.613C68.22,15.1 69.642,15.873 70.917,16.93C72.192,17.987 73.263,19.313 74.133,20.911C75,22.509 75.541,24.354 75.754,26.445L75.751,26.442ZM67.9,25.243C67.719,23.481 67.081,22.138 65.987,21.212C64.891,20.285 63.463,19.914 61.703,20.092C60.604,20.206 59.652,20.515 58.85,21.024C58.048,21.532 57.402,22.175 56.907,22.948C56.411,23.722 56.065,24.6 55.87,25.583C55.674,26.566 55.629,27.572 55.733,28.601C55.813,29.371 56.056,30.04 56.467,30.612C56.878,31.182 57.38,31.641 57.969,31.989C58.561,32.338 59.207,32.587 59.907,32.737C60.607,32.888 61.29,32.93 61.95,32.862C62.868,32.769 63.709,32.497 64.48,32.046C65.248,31.598 65.905,31.029 66.446,30.343C66.987,29.658 67.39,28.876 67.653,27.994C67.914,27.116 67.999,26.198 67.9,25.243Z" style="fill:rgb(103,112,35);fill-rule:nonzero;"/>
    </g>
    <g transform="matrix(0.991667,0,0,0.991667,0,0.216667)">
        <path d="M119.316,13.09C119.435,14.266 119.407,15.714 119.231,17.437C119.056,19.159 118.738,20.973 118.285,22.871C117.829,24.772 117.237,26.685 116.509,28.614C115.778,30.544 114.919,32.289 113.93,33.853C112.942,35.42 111.831,36.717 110.604,37.752C109.374,38.786 108.026,39.378 106.558,39.528C105.459,39.641 104.549,39.446 103.83,38.944C103.11,38.443 102.515,37.791 102.045,36.987C101.574,36.182 101.183,35.287 100.88,34.298C100.574,33.309 100.279,32.405 99.99,31.581C99.701,30.759 99.393,30.076 99.058,29.535C98.724,28.994 98.282,28.753 97.732,28.81C96.962,28.889 96.211,29.263 95.483,29.929C94.754,30.598 94.029,31.402 93.309,32.349C92.59,33.295 91.87,34.32 91.15,35.434C90.431,36.545 89.691,37.576 88.935,38.525C88.178,39.474 87.399,40.285 86.597,40.959C85.796,41.633 84.954,42.016 84.073,42.106C83.228,42.191 82.379,42.132 81.523,41.922C80.667,41.713 79.882,41.367 79.165,40.885C78.449,40.404 77.851,39.806 77.369,39.095C76.888,38.383 76.601,37.57 76.508,36.652C76.406,35.661 76.397,34.403 76.482,32.873C76.567,31.346 76.763,29.722 77.069,28.002C77.375,26.285 77.78,24.548 78.287,22.789C78.794,21.032 79.426,19.428 80.186,17.981C80.945,16.533 81.823,15.332 82.82,14.374C83.815,13.419 84.957,12.878 86.24,12.745C87.303,12.637 88.051,12.875 88.481,13.461C88.912,14.048 89.173,14.782 89.263,15.66C89.368,16.689 89.357,17.762 89.232,18.887C89.105,20.012 89.082,20.942 89.156,21.675C89.23,22.409 89.49,22.772 89.935,22.763C90.816,22.673 91.558,22.338 92.168,21.758C92.777,21.177 93.315,20.471 93.785,19.647C94.256,18.819 94.695,17.924 95.094,16.955C95.497,15.989 95.942,15.088 96.432,14.261C96.922,13.433 97.472,12.728 98.078,12.147C98.687,11.566 99.449,11.229 100.364,11.135C101.025,11.067 101.574,11.28 102.013,11.773C102.453,12.266 102.852,12.892 103.206,13.654C103.563,14.416 103.878,15.255 104.158,16.17C104.436,17.088 104.716,17.93 105,18.698C105.28,19.465 105.598,20.1 105.946,20.602C106.295,21.103 106.705,21.33 107.184,21.282C108.029,21.197 108.669,20.851 109.108,20.25C109.547,19.649 109.879,18.921 110.108,18.063C110.335,17.204 110.519,16.278 110.658,15.283C110.797,14.286 110.998,13.357 111.264,12.498C111.528,11.637 111.879,10.906 112.318,10.305C112.757,9.705 113.418,9.359 114.299,9.268C114.885,9.209 115.466,9.251 116.036,9.396C116.608,9.54 117.124,9.784 117.583,10.127C118.044,10.47 118.43,10.895 118.741,11.399C119.053,11.906 119.24,12.47 119.302,13.093L119.316,13.09Z" style="fill:rgb(103,112,35);fill-rule:nonzero;"/>
    </g>
</svg>
