<?xml version="1.0" encoding="UTF-8" standalone="no"?>
<!DOCTYPE svg PUBLIC "-//W3C//DTD SVG 1.1//EN" "http://www.w3.org/Graphics/SVG/1.1/DTD/svg11.dtd">
<svg width="100%" height="100%" viewBox="0 0 58 74" version="1.1" xmlns="http://www.w3.org/2000/svg" xmlns:xlink="http://www.w3.org/1999/xlink" xml:space="preserve" xmlns:serif="http://www.serif.com/" style="fill-rule:evenodd;clip-rule:evenodd;stroke-linejoin:round;stroke-miterlimit:2;">
    <g transform="matrix(0.0306066,0,0,0.0301965,-90.8967,-205.055)">
        <g transform="matrix(5.81894,0,0,5.89798,4311.37,7364.07)">
            <path d="M0,-46.214L-28.472,5.98C-29.637,8.114 -32.31,8.899 -34.441,7.735C-36.575,6.574 -37.36,3.899 -36.196,1.766L-7.724,-50.428C-6.562,-52.561 -3.889,-53.347 -1.755,-52.183C0.376,-51.021 1.164,-48.348 0,-46.214M-60.85,9.086C-77.292,9.086 -81.813,-1.714 -82.966,-7.103C-83.455,-9.23 -83.481,-10.722 -83.481,-11.449C-83.481,-13.995 -81.416,-16.059 -78.87,-16.059C-76.502,-16.059 -74.571,-14.264 -74.312,-11.967C-74.307,-11.949 -74.288,-11.936 -74.285,-11.918C-74.264,-11.778 -74.249,-11.525 -74.231,-11.199C-74.193,-10.94 -74.151,-10.685 -74.151,-10.396C-74.151,-10.223 -74.141,-10.034 -74.129,-9.841C-74.091,-9.463 -74.039,-9.057 -73.966,-8.643C-73.795,-7.748 -73.491,-6.753 -72.989,-5.747C-72.928,-5.64 -72.882,-5.546 -72.83,-5.447C-71.272,-2.551 -68.073,0.292 -61.881,0.621C-52.565,0.891 -49.821,-2.232 -49.79,-6.096C-50.148,-10.575 -50.415,-13.799 -61.165,-18.188C-73.746,-23.325 -81.767,-26.429 -81.767,-37.177C-81.767,-47.924 -71.778,-52.359 -62.643,-52.359C-60.354,-52.359 -58.345,-52.094 -56.563,-51.658C-52.995,-50.949 -49.054,-49.483 -46.093,-46.591L-46.094,-46.609C-45.337,-45.944 -44.555,-44.967 -43.847,-43.787C-43.776,-43.671 -43.706,-43.554 -43.637,-43.434C-43.455,-43.108 -43.28,-42.762 -43.109,-42.41C-43.054,-42.296 -42.998,-42.188 -42.949,-42.072C-42.04,-40.07 -41.408,-37.707 -41.408,-35.286C-41.408,-34.866 -41.347,-34.143 -41.496,-33.34C-41.51,-33.266 -41.527,-33.196 -41.543,-33.124C-41.587,-32.937 -41.647,-32.751 -41.72,-32.559C-41.749,-32.48 -41.775,-32.398 -41.81,-32.32C-41.838,-32.255 -41.878,-32.192 -41.914,-32.127C-42.671,-30.616 -44.217,-29.569 -46.022,-29.569C-47.604,-29.569 -48.982,-30.379 -49.804,-31.598C-49.873,-31.7 -49.939,-31.806 -50,-31.918C-50.124,-32.138 -50.225,-32.368 -50.313,-32.608C-50.325,-32.64 -50.339,-32.671 -50.351,-32.704C-50.391,-32.826 -50.432,-32.945 -50.461,-33.07C-50.668,-33.801 -50.763,-34.573 -50.763,-35.232C-50.763,-35.377 -50.775,-35.508 -50.781,-35.645C-50.781,-35.856 -50.807,-36.056 -50.827,-36.259C-50.959,-37.392 -51.294,-38.296 -51.707,-39.031C-51.748,-39.104 -51.789,-39.178 -51.835,-39.249C-51.912,-39.379 -51.993,-39.507 -52.074,-39.628C-54.377,-42.935 -59.282,-44.611 -62.865,-44.611C-67.704,-44.611 -72.899,-41.96 -72.899,-37.087C-72.899,-32.213 -68.24,-29.294 -60.358,-26.697C-44.952,-21.054 -41.775,-16.495 -40.384,-10.933C-38.862,-4.843 -41.505,9.086 -60.85,9.086M25.036,-41.881C16.503,-80.147 -22.009,-104.124 -60.98,-95.433C-99.951,-86.743 -124.626,-48.679 -116.093,-10.411C-113.274,2.231 -107.182,13.317 -98.879,22.179C-94.608,26.737 -104.125,51.916 -98.83,55.209C-94.482,57.91 -75.471,38.943 -70.614,40.68C-58.082,45.162 -44.111,46.267 -30.079,43.139C8.89,34.45 33.567,-3.615 25.036,-41.881" style="fill:rgb(10,207,181);fill-rule:nonzero;"/>
        </g>
        <g transform="matrix(5.81894,0,0,5.89798,3328.19,8307.47)">
            <path d="M0,84.028C-0.769,86.073 -1.582,88.102 -2.43,90.115C-4.233,94.399 -6.226,98.59 -8.323,102.736C-12.633,111.257 -17.491,119.59 -23.807,126.797C-26.922,130.352 -36.228,140.133 -41.104,134.208C-44.988,129.489 -40.049,115.88 -29.358,102.517C-15.951,85.758 1.684,79.265 1.684,79.265C1.156,79.459 0.232,83.411 0,84.028M238.306,25.578C236.396,22.524 233.915,20.614 221.887,20.996C209.859,21.378 166.712,26.915 155.32,28.297C143.928,29.678 71.446,40.088 59.515,42.617C54.012,43.783 44.221,45.327 33.397,47.531C33.407,47.497 33.418,47.462 33.428,47.428C33.428,47.428 62.536,-56.388 63.3,-59.315C64.064,-62.243 66.609,-70.643 63.3,-71.789C59.991,-72.934 55.027,-72.425 50.318,-69.625C45.608,-66.825 42.426,-62.752 41.057,-58.537C39.688,-54.323 35.426,-40.86 33.517,-35.387C31.608,-29.915 25.181,-11.672 20.535,-4.586C15.444,3.177 8.953,8.778 4.116,5.341C0.339,2.658 2.207,-5.859 3.353,-10.823C4.498,-15.787 7.807,-25.969 9.334,-30.933C10.862,-35.896 13.153,-42.388 13.534,-47.479C13.916,-52.57 9.844,-57.152 6.101,-57.896C2.358,-58.64 -1.611,-59.315 -3.139,-56.388C-4.666,-53.461 -3.648,-49.006 -4.157,-44.806C-4.617,-41.012 -6.451,-37.396 -7.771,-33.834C-9.246,-29.855 -10.679,-25.859 -12.012,-21.83C-13.99,-15.854 -15.752,-9.8 -17.102,-3.65C-18.415,2.335 -19.685,8.687 -19.119,14.835C-18.68,19.606 -16.846,24.439 -13.18,27.524C-10.157,30.069 -6.077,31.218 -2.134,30.957C4.593,30.512 10.786,26.024 15.424,21.418C17.56,19.296 21.041,16.104 22.022,13.116C17.81,25.948 13.449,38.742 9.445,51.639C9.278,52.176 9.102,52.73 8.735,53.155C8.303,53.654 7.663,53.913 7.049,54.157C6.584,54.342 6.123,54.537 5.659,54.726C2.366,55.861 -0.754,57.086 -3.584,58.416C-10.702,61.761 -16.683,65.545 -21.391,68.976C-28.027,73.473 -34.205,78.6 -39.687,84.458C-46.753,92.01 -52.571,100.79 -56.502,110.368C-60.147,119.248 -63.166,129.701 -60.668,139.173C-58.252,148.333 -50.591,155.217 -41.095,156.243C-34.435,156.962 -27.672,154.978 -21.896,151.584C-16.121,148.189 -11.245,143.449 -6.863,138.382C6.034,123.47 14.342,105.672 20.779,87.226C22.458,82.416 24.065,77.579 25.639,72.73C45.068,67.37 91.985,58.588 104.092,56.507C116.311,54.406 175.494,46.579 189.622,44.67C203.75,42.761 233.724,40.852 237.351,37.224C240.978,33.597 240.215,28.633 238.306,25.578" style="fill:rgb(116,35,132);fill-rule:nonzero;"/>
        </g>
        <g transform="matrix(5.81894,0,0,5.89798,3963,8288.24)">
            <path d="M0,-48.342C-1.333,-41.557 -4.456,-30.366 -8.4,-18.432C-12.615,-5.678 -17.305,4.713 -23.801,3.46C-31.055,2.06 -31.997,-9.009 -31.545,-15.206C-31.093,-21.402 -29.329,-28.73 -26.229,-35.798C-20.382,-49.133 -13.155,-53.247 -7.848,-55.322C-3.564,-56.997 1.4,-55.47 0,-48.342M22.704,-9.549C22.704,-9.549 20.365,-3.541 12.728,-1.25C5.091,1.041 12.982,-30.014 12.982,-30.014C12.982,-30.014 19.567,-60.388 20.602,-64.929C21.637,-69.47 21.215,-73.849 16.208,-75.351C11.201,-76.852 6.265,-77.13 4.771,-72.371L3.277,-67.611C3.277,-67.611 -2.081,-74.707 -13.005,-73.107C-23.928,-71.507 -37.165,-56.233 -45.056,-32.305C-52.947,-8.377 -50.08,5.878 -48.713,11.733C-47.347,17.587 -44.173,25.445 -33.032,27.117C-21.892,28.788 -13.652,20.584 -9.371,9.922C-9.371,9.922 -9.164,18.86 -1.527,21.406C6.109,23.951 16.768,16.379 20.602,12.783C24.437,9.187 22.704,-9.549 22.704,-9.549" style="fill:rgb(116,35,132);fill-rule:nonzero;"/>
        </g>
        <g transform="matrix(5.81894,0,0,5.89798,4372.08,8499.91)">
            <path d="M0,-83.094C-0.566,-75.175 -2.478,-67.522 -5.057,-60.069C-7.25,-53.733 -9.646,-47.13 -14.29,-42.295C-18.36,-38.057 -26.964,-35.252 -31.677,-40.531C-31.677,-40.531 -29.443,-52.919 -26.132,-65.437C-23.002,-77.268 -19.168,-91.219 -11.092,-97.123C-1.082,-104.441 0.518,-90.333 0,-83.094M12.391,-114.115C7.427,-120.988 -2.882,-120.033 -8.419,-116.979C-13.955,-113.924 -19.913,-105.432 -20.943,-102.901L-19.876,-110.419C-19.876,-110.419 -18.346,-112.969 -24.646,-114.497C-30.947,-116.024 -34.222,-116.455 -35.639,-111.275C-37.056,-106.097 -60.824,20.146 -60.824,20.146C-60.824,20.146 -62.446,27.584 -60.824,31.574C-59.202,35.563 -53.674,37.894 -48.324,31.574C-42.974,25.253 -40.95,-0.426 -39.099,-12.978C-37.247,-25.53 -36.611,-28.506 -36.611,-28.506C-36.611,-28.506 -32.065,-21.653 -21.512,-19.953C-9.224,-17.973 -0.442,-27.111 6.049,-40.093C12.732,-53.459 17.053,-72.494 17.789,-83.568C18.5,-94.26 17.355,-107.242 12.391,-114.115" style="fill:rgb(116,35,132);fill-rule:nonzero;"/>
        </g>
        <g transform="matrix(5.81894,0,0,5.89798,4701.94,8236.68)">
            <path d="M0,-63.045C1.324,-64.403 2.85,-65.672 4.689,-66.134C7.341,-66.801 9.598,-65.507 10.086,-62.855C10.839,-58.768 8.687,-54.008 6.311,-50.825C4.056,-47.802 1.091,-45.377 -2.064,-43.345C-3.511,-42.413 -4.999,-41.664 -6.593,-41.005C-10.975,-39.194 -12.243,-39.636 -12.317,-39.235C-11.405,-44.206 -6.317,-56.567 0,-63.045M18.318,-18.546C15.563,-19.452 12.713,-15.06 11.104,-13.101C9.371,-10.99 7.155,-9.322 5.07,-7.554C0.455,-3.638 -9.957,3.279 -15.901,-2.336C-18.405,-4.702 -18.721,-10.318 -18.211,-13.922C-17.769,-17.048 -15.75,-22.363 -15.545,-22.367C-10.487,-22.479 -5.242,-24.571 -2.468,-25.758C5.789,-29.29 13.04,-34.748 18.049,-42.269C24.965,-52.654 32.745,-71.636 19.982,-80.67C18.083,-82.014 15.857,-82.867 13.563,-83.259C5.523,-84.632 -1.35,-83.36 -7.601,-78.064C-15.989,-70.957 -18.802,-67.245 -25.802,-54.262C-33.744,-39.534 -38.2,-21.503 -37.239,-4.774C-37.005,-0.696 -36.456,3.403 -35.053,7.24C-33.65,11.077 -31.343,14.659 -28.067,17.1C-22.934,20.924 -15.972,21.587 -9.893,20.067C-2.256,18.158 6.399,12.685 8.817,10.776C11.236,8.867 21.799,-0.679 23.267,-3.712C24.734,-6.744 22.691,-11.752 22.691,-11.752C21.973,-13.545 20.581,-17.802 18.318,-18.546" style="fill:rgb(116,35,132);fill-rule:nonzero;"/>
        </g>
    </g>
</svg>
