<svg xmlns="http://www.w3.org/2000/svg" width="205" height="52.143" viewBox="0 0 205 52.143">
  <g id="Symbols" transform="translate(-116.251 -81.9)">
    <g id="Logo-_-Nav-" data-name="Logo-/-Nav-" transform="translate(116.251 81.9)">
      <g id="logo-99minutos.6ca31ef5">
        <path id="Fill-1" d="M221.33,125.147v7.777h-3.952v-7.9a4.762,4.762,0,0,0-.51-2.55,1.893,1.893,0,0,0-1.657-.765,2.714,2.714,0,0,0-2.04.892,3.285,3.285,0,0,0-.893,2.55v7.777H208.2V118.517h3.952v1.657a4.839,4.839,0,0,1,3.7-1.912,4.2,4.2,0,0,1,2.422.765,4.763,4.763,0,0,1,1.657,1.912,5.566,5.566,0,0,1,2.168-2.04,5.809,5.809,0,0,1,2.8-.765,5.583,5.583,0,0,1,4.079,1.53,5.8,5.8,0,0,1,1.53,4.335v8.669h-3.952v-7.649c0-2.167-.765-3.314-2.422-3.314a2.535,2.535,0,0,0-2.04.892,3.587,3.587,0,0,0-.765,2.55Zm11.857-8.414a2.111,2.111,0,0,1-.638-1.657,2.421,2.421,0,0,1,.638-1.657,2.11,2.11,0,0,1,1.657-.638,2.683,2.683,0,0,1,1.657.638,2.11,2.11,0,0,1,.638,1.657,2.421,2.421,0,0,1-.638,1.657,2.11,2.11,0,0,1-1.657.637,2.421,2.421,0,0,1-1.657-.637Zm33.657,1.785h-3.57v7.777a3.288,3.288,0,0,1-.892,2.55,2.716,2.716,0,0,1-2.04.892c-1.657,0-2.423-1.147-2.423-3.315v-7.777h-3.952v8.669a5.6,5.6,0,0,0,1.53,4.334,5.483,5.483,0,0,0,3.952,1.53,4.646,4.646,0,0,0,3.824-2.168v1.912h3.952V121.45h2.168v6.629a5.1,5.1,0,0,0,1.4,3.7,4.71,4.71,0,0,0,3.442,1.4,5.719,5.719,0,0,0,3.952-1.657l-1.53-2.8a2.422,2.422,0,0,1-1.913,1.02,1.16,1.16,0,0,1-1.02-.51,1.9,1.9,0,0,1-.383-1.275v-6.374h3.442v-2.932h-3.442V114.31h-3.952v4.334h-2.55Zm-34.04,0h3.952v14.406H232.8V118.517Zm10.072,6.375v8.032h-3.952V118.517h3.952v1.657a5.247,5.247,0,0,1,4.079-1.785,4.428,4.428,0,0,1,3.7,1.657,5.891,5.891,0,0,1,1.53,4.207v8.669H248.23v-8.159c0-2.167-.765-3.314-2.422-3.314a2.537,2.537,0,0,0-2.04.892,3.116,3.116,0,0,0-.892,2.55Zm49.847.765a7.22,7.22,0,0,1-2.167,5.227,7.7,7.7,0,0,1-10.709,0,7.388,7.388,0,0,1,0-10.454,7.7,7.7,0,0,1,10.709,0,7.22,7.22,0,0,1,2.167,5.227Zm-11.091,0a3.969,3.969,0,0,0,1.02,2.8,3.407,3.407,0,0,0,5.1,0,4.2,4.2,0,0,0,1.02-2.8,4.546,4.546,0,0,0-1.02-2.932,3.407,3.407,0,0,0-5.1,0,4.546,4.546,0,0,0-1.02,2.932Zm22.438,2.678a4.366,4.366,0,0,1-1.53,3.442,5.679,5.679,0,0,1-3.952,1.275,16.167,16.167,0,0,1-3.315-.51,8.912,8.912,0,0,1-3.059-1.657l1.785-2.55a7.778,7.778,0,0,0,4.717,1.785,3.768,3.768,0,0,0,1.275-.255c.255-.255.51-.51.51-.765a1.32,1.32,0,0,0-.638-.893,8.211,8.211,0,0,0-1.785-.765c-.765-.255-1.4-.51-1.785-.638a5.184,5.184,0,0,1-1.4-.765,3.432,3.432,0,0,1-1.657-3.06,3.869,3.869,0,0,1,1.53-3.187,6.022,6.022,0,0,1,4.08-1.275,8.594,8.594,0,0,1,4.972,1.657l-1.53,2.678a6.182,6.182,0,0,0-3.7-1.275c-1.275,0-1.785.382-1.785,1.02,0,.382.254.637.637.892a7.272,7.272,0,0,0,1.912.765c.892.254,1.53.51,1.912.637a5.186,5.186,0,0,1,1.4.765c.892.255,1.4,1.275,1.4,2.678Z" transform="translate(-157.332 -95.697)" fill="#323634"/>
        <path id="Fill-8" d="M384.437,145.077a2.11,2.11,0,0,1-.637-1.657,2.42,2.42,0,0,1,.637-1.657,2.111,2.111,0,0,1,1.657-.638,2.681,2.681,0,0,1,1.657.638,2.11,2.11,0,0,1,.638,1.657,2.421,2.421,0,0,1-.638,1.657,2.109,2.109,0,0,1-1.657.637,2.2,2.2,0,0,1-1.657-.637" transform="translate(-235.787 -108.361)" fill="#85c440"/>
        <path id="Fill-9" d="M400.206,133.909a4.416,4.416,0,0,0,3.57-2.04l2.295,2.677a8.2,8.2,0,0,1-5.992,2.932,7.206,7.206,0,0,1-5.355-2.04,6.841,6.841,0,0,1-2.167-5.355,7.19,7.19,0,0,1,7.394-7.394,8.753,8.753,0,0,1,3.06.637,7.864,7.864,0,0,1,2.8,1.912l-2.04,2.678a5.262,5.262,0,0,0-1.658-1.275,5.339,5.339,0,0,0-1.912-.51,4.115,4.115,0,0,0-2.677,1.02,3.559,3.559,0,0,0-1.147,2.8,3.386,3.386,0,0,0,1.147,2.8,3.242,3.242,0,0,0,2.677,1.147" transform="translate(-239.699 -100.124)" fill="#85c440"/>
        <path id="Fill-10" d="M432.028,130.084a7.221,7.221,0,0,1-2.168,5.227,7.7,7.7,0,0,1-10.709,0,7.388,7.388,0,0,1,0-10.454,7.7,7.7,0,0,1,10.709,0,7.221,7.221,0,0,1,2.168,5.227Zm-10.964,0a3.97,3.97,0,0,0,1.02,2.8,3.407,3.407,0,0,0,5.1,0,4.2,4.2,0,0,0,1.02-2.8,4.546,4.546,0,0,0-1.02-2.932,3.407,3.407,0,0,0-5.1,0,3.944,3.944,0,0,0-1.02,2.932Z" transform="translate(-250.613 -100.124)" fill="#85c440"/>
        <path id="Fill-11" d="M459.485,129.471v7.777h-3.952v-7.9a4.768,4.768,0,0,0-.51-2.55,1.893,1.893,0,0,0-1.657-.765,2.713,2.713,0,0,0-2.04.892,3.287,3.287,0,0,0-.892,2.55v7.777h-3.952V122.841h3.952V124.5a4.839,4.839,0,0,1,3.7-1.912,4.2,4.2,0,0,1,2.422.765,4.763,4.763,0,0,1,1.657,1.912,5.566,5.566,0,0,1,2.167-2.04,5.81,5.81,0,0,1,2.8-.765,5.583,5.583,0,0,1,4.079,1.53,5.8,5.8,0,0,1,1.53,4.335v8.669h-3.952v-7.649c0-2.167-.765-3.314-2.422-3.314a2.535,2.535,0,0,0-2.04.892,3.116,3.116,0,0,0-.892,2.55" transform="translate(-263.791 -100.021)" fill="#85c440"/>
        <path id="Fill-12" d="M147.589,118.7a5.146,5.146,0,0,0-2.04-2.295,6.863,6.863,0,0,0-3.315-1.147,6.388,6.388,0,0,0-4.844,1.275,5.478,5.478,0,0,0-2.3,4.334,5.949,5.949,0,0,0,1.275,4.717,5.665,5.665,0,0,0,4.079,2.168,6.275,6.275,0,0,0,3.7-.765,5.815,5.815,0,0,1-1.53,3.06,3.167,3.167,0,0,1-2.8.892,2.672,2.672,0,0,1-1.4-.51l-2.422,2.8a6.9,6.9,0,0,0,1.4.765,7.539,7.539,0,0,0,2.422.637,7.234,7.234,0,0,0,5.482-1.657,9.96,9.96,0,0,0,2.04-2.8,18.907,18.907,0,0,0,1.147-4.462,14.455,14.455,0,0,0-.892-7.012Zm-4.207,4.972a3.08,3.08,0,0,1-2.168.51,2.345,2.345,0,0,1-1.785-1.02,3.738,3.738,0,0,1-.51-2.04,2.67,2.67,0,0,1,.892-1.785,2.29,2.29,0,0,1,2.04-.51,2.853,2.853,0,0,1,1.912,1.02,3,3,0,0,1,.637,2.04,3.159,3.159,0,0,1-1.02,1.785Z" transform="translate(-124.641 -96.777)" fill="#323634"/>
        <path id="Fill-13" d="M173.168,118.7a5.146,5.146,0,0,0-2.04-2.295,6.863,6.863,0,0,0-3.315-1.147,6.389,6.389,0,0,0-4.845,1.275,5.478,5.478,0,0,0-2.295,4.334,5.947,5.947,0,0,0,1.275,4.717,5.664,5.664,0,0,0,4.079,2.168,6.276,6.276,0,0,0,3.7-.765,5.816,5.816,0,0,1-1.53,3.06,3.165,3.165,0,0,1-2.8.892,2.672,2.672,0,0,1-1.4-.51l-2.423,2.8a6.927,6.927,0,0,0,1.4.765,7.542,7.542,0,0,0,2.423.637,7.235,7.235,0,0,0,5.482-1.657,9.97,9.97,0,0,0,2.04-2.8,18.9,18.9,0,0,0,1.147-4.462,13.084,13.084,0,0,0-.892-7.012Zm-4.207,4.972a3.078,3.078,0,0,1-2.167.51,2.347,2.347,0,0,1-1.785-1.02,3.743,3.743,0,0,1-.51-2.04,2.673,2.673,0,0,1,.893-1.785,2.29,2.29,0,0,1,2.04-.51,2.852,2.852,0,0,1,1.912,1.02,3,3,0,0,1,.638,2.04,3.16,3.16,0,0,1-1.02,1.785Z" transform="translate(-136.07 -96.777)" fill="#323634"/>
        <path id="Fill-14" d="M163.931,97.709l3.952-3.952s-2.55-6.5-11.729-11.857L152.2,85.852l4.589,4.59-1.02,1.02a23.964,23.964,0,0,0-39.521,18.358,23.968,23.968,0,1,0,42.2-15.681l1.02-1.02Zm-4.972,11.729a18.805,18.805,0,1,1-18.74-19,18.934,18.934,0,0,1,18.74,19Z" transform="translate(-116.251 -81.9)" fill="#85c440"/>
      </g>
    </g>
  </g>
</svg>
