<?xml version="1.0" encoding="UTF-8" standalone="no"?>
<!DOCTYPE svg PUBLIC "-//W3C//DTD SVG 1.1//EN" "http://www.w3.org/Graphics/SVG/1.1/DTD/svg11.dtd">
<svg width="100%" height="100%" viewBox="0 0 727 185" version="1.1" xmlns="http://www.w3.org/2000/svg" xmlns:xlink="http://www.w3.org/1999/xlink" xml:space="preserve" xmlns:serif="http://www.serif.com/" style="fill-rule:evenodd;clip-rule:evenodd;stroke-linejoin:round;stroke-miterlimit:2;">
    <g transform="matrix(5.095537,0,0,-5.095537,-32.275646,222.715754)">
        <path d="M32.419,40.982C30.745,42.89 27.719,43.708 23.848,43.708L12.613,43.708C11.825,43.708 11.146,43.13 11.023,42.351L6.347,12.68C6.339,12.63 6.335,12.58 6.335,12.53C6.335,12.001 6.77,11.566 7.299,11.566C7.3,11.566 14.236,11.566 14.236,11.566L15.978,22.615L15.924,22.269C16.045,23.046 16.721,23.625 17.507,23.626L20.803,23.626C27.278,23.626 32.348,26.256 33.829,33.864C33.873,34.089 33.911,34.308 33.944,34.522C34.384,37.334 33.941,39.248 32.42,40.981" style="fill:rgb(0,48,135);fill-rule:nonzero;"/>
        <path d="M117.331,26.863C116.907,24.079 114.781,24.079 112.725,24.079L111.555,24.079L112.376,29.277C112.426,29.591 112.696,29.822 113.014,29.822L113.551,29.822C114.951,29.822 116.273,29.822 116.955,29.025C117.362,28.548 117.485,27.84 117.331,26.863M116.436,34.127L108.68,34.127C108.152,34.127 107.697,33.739 107.614,33.217L104.48,13.33C104.475,13.297 104.472,13.263 104.472,13.23C104.472,12.876 104.764,12.584 105.118,12.583L109.098,12.583C109.469,12.583 109.785,12.853 109.843,13.219L110.733,18.859C110.815,19.382 111.267,19.769 111.797,19.769L114.251,19.769C119.361,19.769 122.309,22.24 123.079,27.141C123.426,29.283 123.093,30.967 122.09,32.146C120.987,33.442 119.032,34.128 116.437,34.128" style="fill:rgb(0,156,222);fill-rule:nonzero;"/>
        <path d="M62.011,26.863C61.587,24.079 59.461,24.079 57.404,24.079L56.234,24.079L57.055,29.277C57.105,29.591 57.375,29.822 57.693,29.822L58.23,29.822C59.63,29.822 60.952,29.822 61.634,29.025C62.042,28.548 62.165,27.84 62.011,26.863M61.116,34.127L53.36,34.127C52.83,34.127 52.378,33.741 52.295,33.217L49.16,13.33C49.155,13.297 49.152,13.263 49.152,13.229C49.152,12.875 49.444,12.583 49.798,12.583L53.502,12.583C54.032,12.583 54.483,12.969 54.566,13.493L55.413,18.858C55.495,19.382 55.947,19.768 56.477,19.768L58.931,19.768C64.041,19.768 66.989,22.24 67.759,27.141C68.106,29.283 67.773,30.967 66.77,32.146C65.667,33.442 63.712,34.128 61.117,34.128M79.123,19.723C78.763,17.601 77.08,16.176 74.931,16.176C73.854,16.176 72.991,16.523 72.437,17.179C71.887,17.829 71.681,18.756 71.855,19.787C72.189,21.891 73.901,23.361 76.017,23.361C77.072,23.361 77.927,23.011 78.493,22.349C79.062,21.682 79.286,20.75 79.123,19.723M84.299,26.953L80.585,26.953C80.267,26.953 79.994,26.72 79.945,26.406L79.783,25.368L79.523,25.744C78.719,26.911 76.926,27.302 75.136,27.302C71.033,27.302 67.528,24.192 66.846,19.832C66.491,17.655 66.995,15.576 68.229,14.125C69.362,12.792 70.979,12.237 72.906,12.237C76.214,12.237 78.048,14.361 78.048,14.361L77.882,13.329C77.877,13.296 77.874,13.262 77.874,13.228C77.874,12.874 78.166,12.582 78.52,12.582C78.52,12.582 78.521,12.582 78.521,12.582L81.865,12.582C82.395,12.582 82.847,12.967 82.93,13.492L84.938,26.205C84.943,26.238 84.946,26.272 84.946,26.305C84.946,26.66 84.654,26.952 84.299,26.952C84.299,26.952 84.298,26.952 84.298,26.952" style="fill:rgb(0,48,135);fill-rule:nonzero;"/>
        <path d="M134.443,19.723C134.083,17.601 132.4,16.176 130.251,16.176C129.174,16.176 128.311,16.523 127.757,17.179C127.207,17.829 127.001,18.756 127.175,19.787C127.509,21.891 129.22,23.361 131.337,23.361C132.392,23.361 133.247,23.011 133.813,22.349C134.382,21.682 134.606,20.75 134.443,19.723M139.619,26.953L135.905,26.953C135.587,26.953 135.314,26.72 135.265,26.406L135.103,25.368L134.843,25.744C134.039,26.911 132.246,27.302 130.456,27.302C126.354,27.302 122.849,24.192 122.166,19.832C121.811,17.655 122.316,15.576 123.55,14.125C124.683,12.792 126.3,12.237 128.227,12.237C131.536,12.237 133.37,14.361 133.37,14.361L133.204,13.329C133.198,13.295 133.196,13.26 133.196,13.226C133.196,12.873 133.486,12.582 133.84,12.582C133.84,12.582 133.841,12.582 133.841,12.582L137.184,12.582C137.714,12.582 138.166,12.967 138.25,13.492L140.258,26.205C140.263,26.238 140.266,26.272 140.266,26.305C140.266,26.66 139.974,26.952 139.619,26.952C139.619,26.952 139.618,26.952 139.618,26.952" style="fill:rgb(0,156,222);fill-rule:nonzero;"/>
        <path d="M104.08,26.952L100.346,26.952C99.989,26.952 99.656,26.775 99.456,26.479L94.306,18.895L92.123,26.183C91.987,26.638 91.565,26.952 91.09,26.953L87.421,26.953C87.066,26.953 86.774,26.661 86.774,26.306C86.774,26.235 86.786,26.164 86.809,26.097L90.919,14.031L87.053,8.576C86.976,8.467 86.935,8.337 86.935,8.203C86.935,7.848 87.226,7.556 87.581,7.556L91.311,7.556C91.663,7.556 91.994,7.729 92.196,8.019L104.61,25.937C104.685,26.045 104.726,26.174 104.726,26.306C104.726,26.66 104.434,26.952 104.08,26.952" style="fill:rgb(0,48,135);fill-rule:nonzero;"/>
        <path d="M143.996,33.58L140.812,13.329C140.807,13.296 140.804,13.262 140.804,13.229C140.804,12.874 141.096,12.582 141.451,12.582L144.652,12.582C145.182,12.582 145.634,12.968 145.717,13.492L148.856,33.38C148.861,33.413 148.864,33.447 148.864,33.481C148.864,33.835 148.572,34.127 148.218,34.127C148.218,34.127 148.217,34.127 148.217,34.127L144.635,34.127C144.318,34.128 144.045,33.894 143.996,33.581" style="fill:rgb(0,156,222);fill-rule:nonzero;"/>
        <path d="M32.419,40.982C30.745,42.89 27.719,43.708 23.848,43.708L12.613,43.708C11.825,43.708 11.146,43.13 11.023,42.351L6.347,12.68C6.339,12.63 6.335,12.58 6.335,12.53C6.335,12.001 6.77,11.566 7.299,11.566C7.3,11.566 14.236,11.566 14.236,11.566L15.978,22.615L15.924,22.269C16.045,23.046 16.721,23.625 17.507,23.626L20.803,23.626C27.278,23.626 32.348,26.256 33.829,33.864C33.873,34.089 33.911,34.308 33.944,34.522C34.384,37.334 33.941,39.248 32.42,40.981" style="fill:rgb(0,48,135);fill-rule:nonzero;"/>
        <path d="M17.849,34.485C17.957,35.165 18.549,35.671 19.238,35.672L28.046,35.672C29.089,35.672 30.062,35.604 30.951,35.462C31.437,35.384 31.918,35.276 32.391,35.14C32.928,34.989 33.448,34.782 33.942,34.522C34.384,37.335 33.94,39.248 32.419,40.982C30.744,42.889 27.719,43.707 23.848,43.707L12.612,43.707C11.824,43.706 11.147,43.128 11.024,42.35L6.346,12.682C6.338,12.632 6.334,12.582 6.334,12.531C6.334,12.002 6.769,11.567 7.298,11.567L14.235,11.567L15.977,22.617L17.849,34.485Z" style="fill:rgb(0,48,135);fill-rule:nonzero;"/>
        <path d="M33.943,34.523C33.909,34.303 33.87,34.084 33.828,33.865C32.347,26.258 27.277,23.627 20.802,23.627L17.505,23.627C16.719,23.626 16.043,23.047 15.923,22.27L14.235,11.568L13.755,8.532C13.748,8.488 13.745,8.444 13.745,8.4C13.745,7.937 14.126,7.556 14.589,7.556C14.589,7.556 20.436,7.556 20.436,7.556C21.128,7.556 21.716,8.06 21.825,8.743L21.882,9.041L22.984,16.025L23.054,16.411C23.162,17.092 23.755,17.598 24.444,17.598L25.319,17.598C30.983,17.598 35.418,19.898 36.714,26.554C37.254,29.334 36.974,31.657 35.544,33.288C35.09,33.794 34.547,34.212 33.943,34.523" style="fill:rgb(0,156,222);fill-rule:nonzero;"/>
        <path d="M32.392,35.14C32.166,35.207 31.933,35.267 31.693,35.32C31.453,35.373 31.205,35.42 30.951,35.46C30.061,35.605 29.089,35.673 28.045,35.673L19.238,35.673C18.548,35.674 17.955,35.166 17.849,34.485L15.977,22.615L15.923,22.27C16.043,23.047 16.719,23.626 17.505,23.627L20.802,23.627C27.277,23.627 32.347,26.257 33.828,33.865C33.872,34.09 33.909,34.308 33.943,34.523C33.552,34.728 33.144,34.9 32.725,35.037C32.616,35.073 32.505,35.107 32.392,35.141" style="fill:rgb(1,33,105);fill-rule:nonzero;"/>
    </g>
</svg>
