<?xml version="1.0" encoding="UTF-8" standalone="no"?><!DOCTYPE svg PUBLIC "-//W3C//DTD SVG 1.1//EN" "http://www.w3.org/Graphics/SVG/1.1/DTD/svg11.dtd"><svg width="100%" height="100%" viewBox="0 0 867 247" version="1.1" xmlns="http://www.w3.org/2000/svg" xmlns:xlink="http://www.w3.org/1999/xlink" xml:space="preserve" xmlns:serif="http://www.serif.com/" style="fill-rule:evenodd;clip-rule:evenodd;stroke-linejoin:round;stroke-miterlimit:2;"><g><path d="M157.604,16.837c-83.672,0 -151.497,43.392 -151.497,96.923c0,53.526 67.825,96.918 151.497,96.918c83.674,0 151.502,-43.392 151.502,-96.918c0,-53.531 -67.828,-96.923 -151.502,-96.923Z" style="fill:#11b1e8;fill-rule:nonzero;"/><path d="M843.875,101.058c-2.762,3.664 -6.707,5.495 -11.871,5.495c-5.148,0 -9.116,-1.831 -11.898,-5.495c-2.784,-3.66 -4.169,-8.871 -4.169,-15.623c0,-6.742 1.385,-11.94 4.169,-15.582c2.782,-3.642 6.75,-5.464 11.898,-5.464c5.164,0 9.109,1.822 11.871,5.464c2.754,3.642 4.14,8.84 4.14,15.582c0,6.752 -1.386,11.963 -4.14,15.623Zm14.09,-40.876c-5.685,-7.127 -14.319,-10.687 -25.905,-10.687c-11.573,0 -20.209,3.56 -25.891,10.687c-5.693,7.122 -8.54,15.541 -8.54,25.253c0,9.886 2.847,18.335 8.54,25.369c5.682,7.008 14.318,10.527 25.891,10.527c11.586,0 20.22,-3.519 25.905,-10.527c5.693,-7.034 8.533,-15.483 8.533,-25.369c0,-9.712 -2.84,-18.131 -8.533,-25.253Z" style="fill:#273576;fill-rule:nonzero;"/><path d="M703.66,92.739c-0.117,5.912 -1.814,9.983 -5.065,12.216c-3.255,2.234 -6.809,3.353 -10.664,3.353c-2.443,-0 -4.509,-0.678 -6.211,-2.019c-1.698,-1.344 -2.543,-3.527 -2.543,-6.545c0,-3.388 1.386,-5.886 4.168,-7.501c1.656,-0.947 4.356,-1.763 8.128,-2.41l4.03,-0.747c2.003,-0.381 3.582,-0.787 4.734,-1.223c1.166,-0.424 2.292,-0.985 3.423,-1.696l0,6.572Zm8.959,-38.516c-5.765,-2.924 -12.368,-4.4 -19.796,-4.4c-11.418,0 -19.478,2.981 -24.167,8.927c-2.95,3.81 -4.607,8.664 -4.992,14.576l17.061,0c0.418,-2.609 1.257,-4.675 2.516,-6.202c1.76,-2.066 4.75,-3.099 8.979,-3.099c3.78,0 6.636,0.519 8.591,1.585c1.942,1.051 2.922,2.966 2.922,5.73c0,2.279 -1.266,3.946 -3.813,5.028c-1.418,0.62 -3.77,1.136 -7.069,1.549l-6.046,0.745c-6.87,0.864 -12.085,2.318 -15.616,4.346c-6.462,3.722 -9.686,9.731 -9.686,18.043c0,6.402 1.997,11.358 6.02,14.851c4.001,3.493 9.101,4.958 15.252,5.244c38.58,1.723 38.144,-20.33 38.498,-24.916l0,-25.384c0,-8.14 -2.889,-13.685 -8.654,-16.623Z" style="fill:#273576;fill-rule:nonzero;"/><path d="M624.652,64.943c4.411,0 7.646,1.361 9.741,4.083c1.435,2.015 2.332,4.287 2.681,6.805l19.029,0c-1.044,-9.6 -4.404,-16.303 -10.075,-20.1c-5.69,-3.78 -12.978,-5.687 -21.889,-5.687c-10.481,0 -18.715,3.221 -24.659,9.646c-5.961,6.434 -8.941,15.427 -8.941,26.987c0,10.236 2.695,18.579 8.088,25.009c5.392,6.426 13.807,9.645 25.238,9.645c11.446,0 20.087,-3.855 25.907,-11.564c3.653,-4.777 5.699,-9.849 6.129,-15.21l-18.965,0c-0.386,3.544 -1.492,6.434 -3.329,8.66c-1.829,2.216 -4.912,3.336 -9.274,3.336c-6.143,0 -10.324,-2.8 -12.546,-8.414c-1.215,-2.995 -1.831,-6.96 -1.831,-11.894c0,-5.176 0.616,-9.326 1.831,-12.462c2.309,-5.888 6.603,-8.84 12.865,-8.84Z" style="fill:#273576;fill-rule:nonzero;"/><path d="M585.438,50.044c-39.09,-0 -36.777,34.611 -36.777,34.611l0,35.157l17.739,-0l0,-32.976c0,-5.402 0.685,-9.402 2.034,-12.005c2.437,-4.61 7.189,-6.924 14.284,-6.924c0.535,-0 1.237,0.028 2.104,0.068c0.862,0.042 1.844,0.12 2.972,0.25l0,-18.048c-0.787,-0.053 -1.298,-0.075 -1.518,-0.098c-0.229,-0.02 -0.508,-0.035 -0.838,-0.035Z" style="fill:#273576;fill-rule:nonzero;"/><path d="M496.43,68.414c2.499,-2.562 6.001,-3.848 10.521,-3.848c4.16,0 7.64,1.206 10.455,3.633c2.8,2.419 4.369,5.974 4.685,10.642l-30.35,0c0.634,-4.387 2.205,-7.858 4.689,-10.427Zm23.846,33.029c-0.745,1.062 -1.544,1.973 -2.429,2.682c-2.506,2.064 -5.907,2.691 -9.915,2.691c-3.792,0 -6.756,-0.574 -9.442,-2.267c-4.427,-2.72 -6.916,-7.324 -7.182,-14.082l49.082,0c0.069,-5.816 -0.12,-10.272 -0.59,-13.372c-0.815,-5.278 -2.608,-9.931 -5.364,-13.934c-3.06,-4.54 -6.955,-7.862 -11.647,-9.974c-4.698,-2.094 -9.975,-3.147 -15.838,-3.147c-9.884,0 -17.908,3.114 -24.099,9.337c-6.186,6.238 -9.294,15.18 -9.294,26.852c0,12.462 3.431,21.454 10.291,26.98c6.852,5.526 14.774,8.294 23.736,8.294c10.86,0 19.315,-3.276 25.348,-9.832c3.257,-3.449 5.296,-6.863 6.156,-10.228l-18.813,0Z" style="fill:#273576;fill-rule:nonzero;"/><path d="M466.436,119.805l-16.203,0l-0,-40.8c-0,-3.728 -1.23,-12.594 -11.919,-12.594c-7.126,0 -12.282,5.14 -12.282,12.594l-0,40.8l-16.219,0l-0,-40.8c-0,-3.728 -1.106,-12.594 -11.788,-12.594c-7.25,0 -12.289,5.14 -12.289,12.594l-0,40.8l-16.212,0l-0,-40.412c-0,-16.846 11.174,-29.584 28.501,-29.584c8.601,0 15.596,3.611 20.147,9.397c4.786,-5.786 11.907,-9.397 20.142,-9.397c17.689,0 28.122,12.221 28.122,29.584l-0,40.412Z" style="fill:#273576;fill-rule:nonzero;"/><path d="M771.078,101.204c-2.589,3.712 -6.396,5.565 -11.371,5.565c-4.996,-0 -8.712,-1.87 -11.16,-5.596c-2.449,-3.735 -3.672,-9.17 -3.672,-15.389c0,-5.773 1.197,-10.605 3.611,-14.499c2.405,-3.891 6.182,-5.846 11.338,-5.846c3.383,-0 6.345,1.074 8.908,3.215c4.161,3.546 6.242,9.907 6.242,18.145c0,5.893 -1.302,10.695 -3.896,14.405Zm21.276,-72.467c0,-0 -17.868,-1.908 -17.868,12.446l-0.013,19.001c-1.977,-3.174 -4.551,-5.659 -7.724,-7.447c-3.166,-1.791 -6.792,-2.693 -10.884,-2.693c-8.862,-0 -15.924,3.301 -21.226,9.892c-5.303,6.599 -7.94,16.105 -7.94,27.601c0,9.975 2.686,18.153 8.066,24.522c5.377,6.359 15.924,9.152 25.289,9.152c32.664,-0 32.287,-28.011 32.287,-28.011l0.013,-64.463Z" style="fill:#273576;fill-rule:nonzero;"/><path d="M416.986,184.396c0,-6.689 -1.301,-11.829 -3.919,-15.438c-2.605,-3.588 -6.342,-5.406 -11.211,-5.406c-4.688,-0 -8.342,1.818 -10.961,5.406c-2.426,3.263 -3.636,8.424 -3.636,15.438c0,6.539 1.297,11.408 3.91,14.67c2.6,3.609 6.344,5.407 11.212,5.407c4.513,-0 8.081,-1.798 10.686,-5.407c2.618,-3.601 3.919,-8.476 3.919,-14.67Zm-29.727,47.999c0,2.401 -0.873,4.462 -2.62,6.173c-1.731,1.718 -3.819,2.575 -6.255,2.575l-8.86,-0l0,-61.64c0,-11.987 4.041,-19.495 10.689,-24.569c4.395,-3.354 10.943,-6.554 23.207,-6.554c8.282,0 17.983,3.214 23.221,9.601c5.879,7.185 8.33,15.189 8.33,25.644c0,10.815 -2.606,19.54 -7.818,26.247c-5.213,6.525 -11.912,9.775 -20.084,9.775c-4.345,0 -8.166,-0.773 -11.466,-2.307c-3.492,-1.72 -6.258,-4.376 -8.344,-7.983l0,23.038Z" style="fill:#273576;fill-rule:nonzero;"/><path d="M523.307,184.406c0,11.823 3.42,18.375 10.249,19.672c6.821,1.264 11.863,-0.319 15.109,-4.768c1.538,-1.873 2.642,-4.841 3.327,-8.86c0.677,-4.025 0.731,-8.013 0.131,-11.952c-0.588,-3.952 -2.006,-7.465 -4.23,-10.551c-2.212,-3.078 -5.462,-4.628 -9.73,-4.628c-5.808,0 -9.725,2.153 -11.778,6.419c-2.063,4.294 -3.078,9.177 -3.078,14.668Zm29.201,29.558l0,-4.356c-3.07,4.808 -7.219,7.787 -12.423,8.997c-5.214,1.191 -10.376,0.765 -15.488,-1.296c-5.131,-2.048 -9.532,-5.866 -13.204,-11.429c-3.665,-5.588 -5.498,-12.913 -5.498,-22c0,-10.612 2.435,-19.236 7.293,-25.831c4.869,-6.595 12.688,-9.606 23.442,-9.9c10.598,-0.279 16.76,2.119 22.794,6.687c6.597,5.008 10.497,12.69 10.497,24.678l0,36.265c0.027,11.54 -8.019,32.926 -33.291,31.113c-15.657,-1.135 -24.349,-7.559 -29.196,-22.114l18.694,0c1.366,2.393 3.455,4.237 6.285,5.511c2.801,1.304 5.636,1.636 8.434,1.035c2.815,-0.598 5.379,-2.276 7.7,-5.007c2.292,-2.744 3.613,-6.863 3.961,-12.353Z" style="fill:#273576;fill-rule:nonzero;"/><path d="M481.757,191.557c-0.111,5.918 -1.809,9.981 -5.058,12.217c-3.25,2.23 -6.805,3.347 -10.662,3.347c-2.443,-0 -4.509,-0.676 -6.206,-2.015c-1.705,-1.34 -2.556,-3.528 -2.556,-6.547c0,-3.383 1.394,-5.885 4.176,-7.501c1.658,-0.947 4.353,-1.76 8.126,-2.406l4.027,-0.749c2.013,-0.381 3.591,-0.782 4.729,-1.22c1.171,-0.424 2.298,-0.988 3.424,-1.699l0,6.573Zm8.966,-38.516c-5.772,-2.917 -12.373,-4.396 -19.795,-4.396c-11.425,-0 -19.476,2.98 -24.172,8.924c-2.943,3.806 -4.607,8.662 -4.989,14.579l17.07,-0c0.417,-2.611 1.25,-4.677 2.511,-6.202c1.761,-2.066 4.753,-3.101 8.976,-3.101c3.788,-0 6.64,0.521 8.589,1.583c1.942,1.054 2.923,2.965 2.923,5.736c0,2.274 -1.267,3.948 -3.812,5.025c-1.414,0.619 -3.766,1.135 -7.066,1.549l-6.047,0.738c-6.867,0.87 -12.087,2.326 -15.612,4.35c-6.467,3.719 -9.691,9.731 -9.691,18.038c0,6.404 1.998,11.361 6.02,14.852c4.001,3.491 9.1,4.963 15.253,5.246c38.569,1.724 38.136,-20.333 38.489,-24.916l0,-25.385c0,-8.142 -2.879,-13.677 -8.647,-16.62Z" style="fill:#273576;fill-rule:nonzero;"/><path d="M622.922,199.499c-2.754,3.666 -6.707,5.497 -11.86,5.497c-5.154,0 -9.126,-1.831 -11.899,-5.497c-2.793,-3.655 -4.174,-8.864 -4.174,-15.612c0,-6.745 1.381,-11.943 4.174,-15.58c2.773,-3.649 6.745,-5.462 11.899,-5.462c5.153,0 9.106,1.813 11.86,5.462c2.765,3.637 4.141,8.835 4.141,15.58c0,6.748 -1.376,11.957 -4.141,15.612Zm14.1,-40.865c-5.694,-7.134 -14.33,-10.689 -25.916,-10.689c-11.562,0 -20.2,3.555 -25.888,10.689c-5.692,7.119 -8.536,15.533 -8.536,25.253c0,9.883 2.844,18.329 8.536,25.362c5.688,7.005 14.326,10.522 25.888,10.522c11.586,0 20.222,-3.517 25.916,-10.522c5.684,-7.033 8.519,-15.479 8.519,-25.362c0,-9.72 -2.835,-18.134 -8.519,-25.253Z" style="fill:#273576;fill-rule:nonzero;"/><path d="M157.604,210.678c-83.672,0 -151.497,-43.392 -151.497,-96.918c0,-53.531 67.825,-96.923 151.497,-96.923c83.674,0 151.502,43.392 151.502,96.923c0,53.526 -67.828,96.918 -151.502,96.918Zm-0.029,-199.925c-87.017,0 -157.558,46.282 -157.558,103.057c0,1.466 -0.017,5.52 -0.017,6.034c0,60.231 61.656,109.014 157.555,109.014c96.493,0 157.584,-48.769 157.584,-109.003l0,-6.045c0,-56.775 -70.543,-103.057 -157.564,-103.057Z" style="fill:#273576;fill-rule:nonzero;"/><path d="M308.671,105.99l-4.131,0.612l-18.975,-0.918l-40.377,4.798l-36.438,13.258l2.065,-53.939l8.034,-22.494l7.574,-0.459l7.575,-2.066l15.837,-5.509l10.787,-1.147l4.591,-2.126l-1.835,-7.973l-6.428,-2.276l2.296,-8.283l-5.739,-5.738l-15.149,-9.334l-4.131,0l-14.46,12.318l-16.756,19.74l-19.969,38.101l-26.874,61.284l-11.916,-24.1l-32.364,-70.466l-4.431,-3.67l-23.878,-27.852l-8.416,-5.355l-5.815,1.683l-15.761,12.088l-0.306,9.029l-3.213,1.377l-4.897,6.427l4.591,4.131l12.853,2.142l30.137,8.957l1.462,0.877l2.754,8.529l6.419,21.759l0.009,42.049l-5.28,1.148l-10.788,-4.132l-38.331,-9.64l-19.051,-1.606l-23.995,1.372c0.156,34.779 17.891,50.719 17.891,50.719l7.686,-3.606l34.83,6.077l54.252,-1.311l28.232,-4.766l7.326,-9.35l4.567,8.331l27.969,7.162l41.009,0l34.582,-4.285l15.302,-1.683l9.999,5.394c21.862,-21.817 19.075,-55.278 19.075,-55.278Z" style="fill:#fff;fill-rule:nonzero;"/><path d="M153.052,148.591c-5.073,7.411 -13.043,8.895 -20.898,9.391c-3.66,0.233 -7.321,0.509 -10.983,0.786c-12.835,0.97 -26.107,1.973 -39.112,0.923l-1.241,-0.099c-13.912,-1.121 -28.297,-2.278 -41.947,-5.366c-6.517,-1.473 -9.975,-0.571 -13.705,3.575c-0.451,0.5 -2.832,3.023 -3.278,4.577c-0.179,0.622 0.87,0.975 1.071,1.156c0.7,0.632 4.115,-2.748 4.744,-3.449c2.866,-3.186 5.103,-3.73 10.415,-2.527c13.887,3.138 28.396,4.307 42.426,5.437l1.24,0.101c4.029,0.323 8.07,0.456 12.108,0.456c9.262,0 18.506,-0.699 27.536,-1.38c3.649,-0.276 7.296,-0.55 10.942,-0.782c8.3,-0.527 17.584,-2.229 23.499,-10.872c0.533,-0.777 0.334,-1.84 -0.444,-2.373c-0.778,-0.533 -1.839,-0.331 -2.373,0.446Z" style="fill:#273576;fill-rule:nonzero;"/><path d="M309.585,105.199c-0.456,-0.824 -1.495,-1.124 -2.32,-0.667c-2.605,1.445 -5.124,0.714 -8.041,-0.137c-2.087,-0.608 -4.24,-1.245 -6.603,-1.1c-22.94,1.307 -46.247,5.863 -71.251,13.926c-2.78,0.897 -5.554,1.914 -8.236,2.898c-0.79,0.289 -1.582,0.575 -2.374,0.862c0.068,-1.966 0.137,-3.934 0.209,-5.9c0.387,-10.529 0.785,-21.416 0.537,-32.136c-0.258,-11.238 3.122,-21.451 6.913,-31.79c0.859,-2.339 1.382,-3.344 4.964,-2.754c5.115,0.854 10.885,-1.307 15.34,-3.285c6.201,-2.753 11.825,-4.996 18.101,-4.808c5.175,0.203 8.508,-2.449 9.41,-7.378c1.153,-6.311 -3.851,-7.792 -7.163,-8.77c-0.069,-0.021 -0.138,-0.007 -0.209,-0.019c0.89,-1.753 1.687,-3.754 2.372,-6.067c0.16,-0.539 0.044,-1.121 -0.307,-1.557c-3.635,-4.51 -8.504,-7.637 -13.212,-10.663c-1.762,-1.131 -3.585,-2.302 -5.295,-3.519c-3.827,-2.72 -8.476,-2.135 -13.084,1.656c-20.252,16.645 -36.035,38.922 -48.251,68.105c-2.168,5.178 -4.293,10.376 -6.418,15.571c-5.885,14.395 -11.989,29.235 -18.943,43.453l-4.716,-10.688c-3.725,-8.452 -7.452,-16.904 -11.214,-25.34c-1.914,-4.296 -3.817,-8.596 -5.72,-12.897c-5.328,-12.041 -10.835,-24.491 -16.542,-36.609c-6.212,-13.188 -16.585,-22.948 -26.616,-32.387c-3.431,-3.229 -6.979,-6.566 -10.287,-9.978c-3.346,-3.451 -8.456,-3.236 -10.65,-1.566c-1.753,1.341 -3.696,2.569 -5.573,3.756c-3.974,2.514 -8.082,5.114 -11.148,9.115c-2.534,3.308 -3.001,6.88 -1.562,9.907c-3.273,0.872 -6.556,2.587 -7.755,8.167c-0.132,0.611 0.082,1.247 0.557,1.653c0.389,0.335 0.857,0.857 1.353,1.41c1.456,1.626 3.107,3.468 5.272,3.56c5.991,0.256 11.502,2.187 17.336,4.232c5.891,2.065 11.983,4.199 18.528,4.395c3.65,0.108 5.236,0.968 6.061,3.292c0.403,1.132 0.815,2.265 1.228,3.399c1.796,4.928 3.653,10.023 4.608,15.123c1.515,8.09 1.273,16.468 1.039,24.57c-0.251,8.721 -0.511,17.724 1.394,26.511c-2.481,0.692 -4.355,-0.29 -6.472,-1.405c-0.942,-0.497 -1.915,-1.01 -2.956,-1.367c-18.85,-6.486 -39.046,-12.809 -60.614,-12.809c-0.193,0 -0.389,0 -0.582,0.001c-5.653,0.03 -11.306,0.024 -16.961,0.014l-7.781,-0.007c-0.943,0 -1.707,0.763 -1.707,1.707c-0,0.944 0.764,1.707 1.707,1.707l7.776,0.007c5.661,0.01 11.321,0.016 16.985,-0.013c0.187,-0.002 0.373,-0.002 0.561,-0.002c21.041,0 40.93,6.232 59.506,12.622c0.792,0.274 1.609,0.704 2.474,1.16c1.792,0.944 3.873,2.041 6.427,2.041c1.321,0 2.768,-0.294 4.366,-1.052c0.734,-0.347 1.121,-1.162 0.927,-1.95c-2.164,-8.799 -1.908,-17.672 -1.637,-27.067c0.24,-8.282 0.486,-16.847 -1.096,-25.296c-1.007,-5.377 -2.913,-10.606 -4.756,-15.664c-0.41,-1.125 -0.819,-2.25 -1.219,-3.374c-1.683,-4.737 -5.788,-5.461 -9.177,-5.563c-6.017,-0.176 -11.594,-2.132 -17.5,-4.202c-5.813,-2.037 -11.823,-4.143 -18.319,-4.421c-0.729,-0.032 -2.02,-1.472 -2.875,-2.427c-0.303,-0.337 -0.596,-0.665 -0.888,-0.969c1.05,-3.559 3.248,-4.312 6.178,-4.951c0.087,-0.019 0.154,-0.072 0.235,-0.103c0.19,0.173 0.347,0.36 0.556,0.525c3.755,2.969 11.487,9.056 20.239,3.046c2.762,3.387 5.819,6.6 9.686,9.1c0.286,0.185 0.607,0.273 0.925,0.273c0.56,0 1.108,-0.275 1.435,-0.78c0.512,-0.792 0.285,-1.848 -0.506,-2.361c-5.224,-3.377 -8.837,-8.171 -12.663,-13.249c-1.291,-1.712 -2.625,-3.482 -4.015,-5.177c-0.597,-0.727 -1.673,-0.832 -2.403,-0.237c-0.729,0.598 -0.835,1.674 -0.236,2.404c1.345,1.638 2.658,3.381 3.927,5.066c0.573,0.76 1.152,1.523 1.736,2.285c-5.457,3.644 -10.204,1.541 -16.008,-3.047c-3.91,-3.094 -2.069,-6.72 -0.623,-8.607c2.695,-3.519 6.37,-5.844 10.262,-8.306c1.94,-1.227 3.947,-2.498 5.819,-3.928c0.822,-0.628 3.989,-0.977 6.128,1.229c3.363,3.467 6.939,6.833 10.399,10.086c9.799,9.221 19.931,18.754 25.866,31.355c5.691,12.084 11.19,24.515 16.508,36.538c1.906,4.304 3.809,8.608 5.726,12.905c3.759,8.432 7.483,16.88 11.207,25.327l5.015,11.366c0.26,0.587 0.813,0.939 1.41,0.994c-1.264,3.078 -1.252,6.87 0.083,10.796c1.919,5.646 6.212,10.664 11.203,13.095c3.633,1.766 7.888,2.851 12.647,3.225l2.444,0.191c12.92,1.017 26.159,2.058 39.397,2.058c4.91,0 9.822,-0.143 14.714,-0.483c12.235,-0.854 25.278,-2.103 37.776,-5.434c6.824,-1.813 10.1,0.064 13.76,4.168c0.627,0.703 3.148,3.5 3.836,1.749c1.078,-2.741 -0.661,-3.316 -1.287,-4.019c-4.228,-4.745 -8.774,-7.444 -17.187,-5.195c-12.221,3.256 -25.07,4.483 -37.134,5.323c-17.832,1.247 -36.018,-0.185 -53.607,-1.571l-2.445,-0.191c-4.331,-0.338 -8.173,-1.312 -11.421,-2.893c-4.201,-2.045 -7.827,-6.305 -9.464,-11.122c-1.148,-3.375 -1.127,-6.544 0.057,-8.92c7.485,-15.019 13.922,-30.762 20.146,-45.987c2.121,-5.188 4.242,-10.375 6.406,-15.546c11.997,-28.656 27.459,-50.502 47.27,-66.785c2.338,-1.924 5.789,-3.753 8.939,-1.509c1.775,1.262 3.632,2.454 5.428,3.608c4.417,2.838 8.605,5.529 11.824,9.245c-1.766,5.553 -4.116,8.99 -7.168,10.495c-2.813,1.385 -6.527,1.255 -11.298,-0.368c2.313,-3.001 4.355,-6.101 6.28,-9.05c0.515,-0.79 0.293,-1.847 -0.496,-2.363c-0.79,-0.518 -1.848,-0.294 -2.363,0.496c-4.627,7.088 -9.872,15.121 -18.202,19.94c-0.817,0.472 -1.095,1.516 -0.623,2.332c0.317,0.547 0.89,0.852 1.479,0.852c0.29,0 0.584,-0.073 0.853,-0.23c4.297,-2.485 7.774,-5.697 10.776,-9.169c6.239,2.343 11.188,2.554 15.105,0.623c2.002,-0.988 3.737,-2.55 5.236,-4.693c0.211,0.267 0.479,0.493 0.831,0.596c3.9,1.154 5.321,1.873 4.771,4.883c-0.6,3.283 -2.436,4.67 -5.938,4.581c-6.96,-0.273 -13.006,2.171 -19.599,5.098c-3.705,1.647 -9.123,3.756 -13.394,3.039c-5.416,-0.895 -7.402,1.323 -8.731,4.946c-3.907,10.661 -7.393,21.209 -7.119,33.045c0.245,10.617 -0.153,21.452 -0.537,31.931c-0.096,2.61 -0.191,5.221 -0.278,7.83c-0.186,0.2 -0.591,0.516 -0.85,0.718c-0.399,0.313 -0.796,0.63 -1.112,0.945c-0.666,0.667 -0.666,1.747 0,2.414c0.334,0.334 0.77,0.5 1.207,0.5c0.437,0 0.874,-0.166 1.208,-0.5c0.226,-0.227 0.515,-0.447 0.802,-0.67c0.51,-0.399 1.081,-0.855 1.509,-1.408c0.157,-0.01 0.314,-0.026 0.47,-0.082c1.267,-0.452 2.532,-0.915 3.796,-1.379c2.652,-0.972 5.393,-1.977 8.109,-2.852c24.724,-7.975 47.751,-12.478 70.398,-13.769c1.764,-0.099 3.561,0.42 5.454,0.97c3.185,0.927 6.795,1.978 10.648,-0.154c0.825,-0.457 1.124,-1.495 0.667,-2.32Z" style="fill:#273576;fill-rule:nonzero;"/></g></svg>