<?xml version="1.0" encoding="UTF-8" standalone="no"?>
<!DOCTYPE svg PUBLIC "-//W3C//DTD SVG 1.1//EN" "http://www.w3.org/Graphics/SVG/1.1/DTD/svg11.dtd">
<svg width="100%" height="100%" viewBox="0 0 150 29" version="1.1" xmlns="http://www.w3.org/2000/svg" xmlns:xlink="http://www.w3.org/1999/xlink" xml:space="preserve" xmlns:serif="http://www.serif.com/" style="fill-rule:evenodd;clip-rule:evenodd;stroke-linejoin:round;stroke-miterlimit:2;">
    <g transform="matrix(0.032206,0,0,0.0317745,-126.422,-130.212)">
        <g transform="matrix(5.81894,0,0,5.89798,4212.23,4626.75)">
            <path d="M0,-63.281L-5.791,-36.035L9.677,-36.035C18.115,-36.035 24.722,-41.484 26.478,-49.746C28.197,-57.832 23.906,-63.281 15.469,-63.281L0,-63.281ZM57.24,-49.746C52.121,-25.664 29.385,-9.668 3.897,-9.668L-11.396,-9.668L-19.055,26.367L-49.289,26.367L-24.63,-89.648L20.898,-89.648C46.386,-89.648 62.471,-74.355 57.24,-49.746" style="fill:rgb(173,56,239);fill-rule:nonzero;"/>
        </g>
        <g transform="matrix(5.81894,0,0,5.89798,4714.19,4523.08)">
            <path d="M0,-0.001C-2.317,10.897 2.97,18.28 13.165,18.28C22.657,18.28 31.609,10.897 33.926,-0.001C36.205,-10.723 30.429,-18.282 20.936,-18.282C10.742,-18.282 2.279,-10.723 0,-0.001M64.863,-0.001C59.296,26.191 33.453,46.054 7.086,46.054C-19.457,46.054 -36.504,26.191 -30.937,-0.001C-25.37,-26.192 0.121,-46.055 26.664,-46.055C53.031,-46.055 70.43,-26.192 64.863,-0.001" style="fill:rgb(173,56,239);fill-rule:nonzero;"/>
        </g>
        <g transform="matrix(5.81894,0,0,5.89798,6008.21,4576.99)">
            <path d="M0,-18.281L30.586,-18.281C31.953,-26.367 26.533,-31.464 18.798,-31.464C11.416,-31.464 4.255,-26.718 0,-18.281M53.12,1.406L-3.13,1.406C-1.247,8.261 4.936,11.426 14.428,11.426C22.865,11.426 30.771,8.965 38.913,4.57L45.439,25.137C33.211,33.047 20.788,36.914 7.956,36.914C-21.048,36.914 -37.217,17.051 -31.649,-9.141C-26.082,-35.332 -1.294,-55.195 25.073,-55.195C51.089,-55.195 62.975,-35.859 58.229,-13.535C57.109,-8.262 54.997,-2.461 53.12,1.406" style="fill:rgb(173,56,239);fill-rule:nonzero;"/>
        </g>
        <g transform="matrix(5.81894,0,0,5.89798,6804.09,4773.97)">
            <path d="M0,-86.483L-5.679,-59.764L-12.886,-59.764C-26.245,-59.764 -35.037,-53.964 -38.287,-38.671L-46.806,1.407L-77.04,1.407L-58.359,-86.483L-30.762,-86.483L-32.742,-77.167C-25.835,-84.022 -17.279,-87.89 -8.314,-87.89C-4.974,-87.89 -2.274,-87.362 0,-86.483" style="fill:rgb(173,56,239);fill-rule:nonzero;"/>
        </g>
        <g transform="matrix(5.81894,0,0,5.89798,7176.27,4697.25)">
            <path d="M0,-29.531C2.615,-41.835 -4.301,-48.164 -13.266,-48.164C-21.703,-48.164 -31.512,-42.538 -34.24,-29.706C-36.93,-17.051 -29.801,-10.898 -21.187,-10.898C-12.398,-10.898 -2.615,-17.226 0,-29.531M30.974,-29.706C25.258,-2.812 3.57,16.524 -21.039,16.524C-30.532,16.524 -37.455,13.535 -41.82,8.437L-49.816,46.054L-80.05,46.054L-54.643,-73.476L-27.046,-73.476L-28.989,-64.335C-21.971,-71.718 -12.711,-75.585 -1.461,-75.585C23.148,-75.585 36.691,-56.601 30.974,-29.706" style="fill:rgb(7,51,130);fill-rule:nonzero;"/>
        </g>
        <g transform="matrix(5.81894,0,0,5.89798,7691.56,4453.61)">
            <path d="M0,23.555L0.149,22.852L-14.089,22.852C-19.186,22.852 -22.697,25.313 -23.594,29.532C-24.491,33.75 -21.888,36.387 -16.087,36.387C-8.528,36.387 -1.719,31.641 0,23.555M34.232,4.746L23.397,55.723L-4.201,55.723L-2.669,48.516C-10.054,54.317 -19.415,57.832 -29.962,57.832C-49.824,57.832 -57.506,45.176 -54.405,30.586C-50.892,14.063 -35.478,4.395 -14.384,4.395L4.073,4.395L4.372,2.989C5.717,-3.34 2.896,-8.261 -6.597,-8.261C-15.034,-8.261 -21.87,-4.218 -30.848,2.461L-40.838,-16.698C-26.946,-28.3 -13.723,-34.277 2.625,-34.277C26.531,-34.277 39.762,-21.269 34.232,4.746" style="fill:rgb(7,51,130);fill-rule:nonzero;"/>
        </g>
        <g transform="matrix(5.81894,0,0,5.89798,8552.17,4981.32)">
            <path d="M0,-121.64L-60.999,-29.004C-73.973,-9.317 -87.203,0 -105.484,0C-111.109,0 -117.075,-0.879 -121.911,-2.11L-116.531,-27.422C-112.349,-27.246 -109.222,-27.07 -106.41,-27.07C-99.379,-27.07 -93.14,-28.301 -86.979,-37.441L-84.937,-40.43L-99.843,-121.64L-67.676,-121.64L-61.299,-72.246L-31.992,-121.64L0,-121.64Z" style="fill:rgb(7,51,130);fill-rule:nonzero;"/>
        </g>
        <g transform="matrix(-5.81894,0,0,5.89798,5149.56,4671.55)">
            <path d="M-31.499,-70.39L8.823,-70.39L-19.837,0L-40.322,-39.767L-31.499,-70.39Z" style="fill:rgb(173,56,239);fill-rule:nonzero;"/>
        </g>
        <g transform="matrix(5.81894,0,0,5.89798,5776.37,4990.57)">
            <path d="M0,-148.183L-39.427,-89.23L-43.072,-122.31L-105.151,0L-58.142,-50.771L-51.376,-27.369L41.299,-148.183L0,-148.183Z" style="fill:rgb(173,56,239);fill-rule:nonzero;"/>
        </g>
    </g>
</svg>
