<?xml version="1.0" encoding="UTF-8"?>
<svg width="133px" height="32px" viewBox="0 0 133 32" version="1.1" xmlns="http://www.w3.org/2000/svg" xmlns:xlink="http://www.w3.org/1999/xlink">
    <title>Group 3</title>
    <g id="Symbols" stroke="none" stroke-width="1" fill="none" fill-rule="evenodd">
        <g id="header/1.Desktop/1.-Default" transform="translate(-64.000000, -24.000000)" fill-rule="nonzero">
            <g id="Group" transform="translate(64.000000, 24.000000)">
                <path d="M26.2781995,31.7124281 L31.3477448,31.7124281 L31.3477448,6.59579345 L26.2781995,6.59579345 L26.2781995,31.7124281 Z M89.7998676,31.7124281 L94.8694128,31.7124281 L94.8694128,6.59579345 L89.7998676,6.59579345 L89.7998676,31.7124281 Z M121.599557,6.83033774 L98.9880349,6.83033774 L98.9880349,11.8842574 L114.820395,11.8842574 L98.9880349,25.6142764 L98.9880349,31.4941999 L121.599557,31.4941999 L121.599557,26.4382407 L105.767197,26.4382407 L121.599557,12.7061822 L121.599557,6.83033774 Z M73.6689385,6.7589547 C70.9320404,6.75599499 68.2686768,7.64235824 66.0820031,9.28387501 L66.0820031,0 L61.0124578,0 L61.0124578,19.3753982 C61.0124578,26.3466467 66.6789573,31.9979602 73.6689385,31.9979602 C80.6589198,31.9979602 86.3254192,26.3466467 86.3254192,19.3753982 C86.3254192,12.4041497 80.6589198,6.75283615 73.6689385,6.75283615 L73.6689385,6.7589547 Z M73.6689385,26.9501591 C69.4812511,26.9501591 66.085935,23.5654547 66.084055,19.3889904 C66.0821765,15.2125261 69.4744453,11.8247877 73.6621311,11.8210324 C77.8498168,11.8172833 81.2481837,15.1989373 81.253829,19.3753982 C81.2504497,23.552455 77.8572173,26.9384186 73.6689385,26.9440406 L73.6689385,26.9501591 Z M52.4009794,20.7683874 C52.4009793,24.1813592 49.6267842,26.9481194 46.2046413,26.9481194 C42.7824983,26.9481194 40.0083033,24.1813592 40.0083032,20.7683874 L40.0083032,6.59579345 L34.9367129,6.59579345 L34.9367129,20.7622688 C34.9367129,24.7771234 37.0843678,28.4870022 40.570677,30.4944295 C44.0569862,32.5018568 48.3522963,32.5018568 51.8386055,30.4944295 C55.3249147,28.4870022 57.4725696,24.7771234 57.4725696,20.7622688 L57.4725696,6.59579345 L52.4009794,6.59579345 L52.4009794,20.7683874 Z M11.2679284,6.30822175 C5.050018,6.31495888 0.0101415855,11.338592 0,17.5398342 L0,31.7063095 L5.06954527,31.7063095 L5.06954527,17.5398342 C5.02883627,15.3049028 6.20106224,13.2221455 8.13527002,12.0927952 C10.0694778,10.9634449 12.4643339,10.9634449 14.3985417,12.0927952 C16.3327495,13.2221455 17.5049755,15.3049028 17.4642665,17.5398342 L17.4642665,31.7063095 L22.5338117,31.7063095 L22.5338117,17.5398342 C22.5247962,11.3389219 17.4855063,6.31496147 11.2679284,6.30822175 Z" id="Shape" fill="#292623"></path>
                <path d="M132.8,14.9822816 C132.8,16.6718716 131.426636,18.041555 129.732506,18.041555 C128.038376,18.041555 126.665012,16.6718716 126.665012,14.9822816 C126.665012,13.2926916 128.038376,11.9230082 129.732506,11.9230082 C130.546056,11.9230082 131.326285,12.2453236 131.901552,12.8190486 C132.476819,13.3927737 132.8,14.1709118 132.8,14.9822816 L132.8,14.9822816 Z" id="Path" fill="#43A5DD"></path>
                <path d="M132.8,28.1453153 C132.8,29.8349053 131.426636,31.2045887 129.732506,31.2045887 C128.038376,31.2045887 126.665012,29.8349053 126.665012,28.1453153 C126.665012,26.4557252 128.038376,25.0860419 129.732506,25.0860419 C130.546056,25.0860419 131.326285,25.4083573 131.901552,25.9820823 C132.476819,26.5558074 132.8,27.3339455 132.8,28.1453153 L132.8,28.1453153 Z" id="Path" fill="#43A5DD"></path>
            </g>
        </g>
    </g>
</svg>