<?xml version="1.0" encoding="UTF-8" standalone="no"?>
<!DOCTYPE svg PUBLIC "-//W3C//DTD SVG 1.1//EN" "http://www.w3.org/Graphics/SVG/1.1/DTD/svg11.dtd">
<svg width="100%" height="100%" viewBox="0 0 72 72" version="1.1" xmlns="http://www.w3.org/2000/svg" xmlns:xlink="http://www.w3.org/1999/xlink" xml:space="preserve" xmlns:serif="http://www.serif.com/" style="fill-rule:evenodd;clip-rule:evenodd;stroke-linejoin:round;stroke-miterlimit:2;">
    <g transform="matrix(0.489843,0,0,0.489843,-4124.99,-2696.36)">
        <path d="M8421.05,5577.87C8421.05,5586.39 8422.52,5594.55 8425.18,5602.16C8426.86,5611.72 8427.08,5615.97 8425.85,5622.51C8424.96,5627.19 8422.26,5630.25 8422.71,5634.64C8423.12,5638.63 8423.41,5640.9 8426.98,5644.76C8431.19,5649.03 8435.08,5648.77 8436.33,5648.96C8440.66,5649.62 8443.87,5647.17 8448.58,5646.58C8455.98,5645.65 8461.35,5645.15 8473.47,5648.18C8473.52,5648.19 8473.56,5648.19 8473.61,5648.2C8480.2,5650.15 8487.17,5651.21 8494.38,5651.21C8534.88,5651.21 8567.72,5618.37 8567.72,5577.87C8567.72,5537.37 8534.88,5504.54 8494.38,5504.54C8453.88,5504.54 8421.05,5537.37 8421.05,5577.87Z" style="fill:url(#_Linear1);"/>
        <g transform="matrix(0,-0.432928,-0.432928,0,8504.56,5549.21)">
            <path d="M-11.464,-11.464C-5.132,-11.464 -0,-6.332 -0,-0C-0,6.331 -5.132,11.464 -11.464,11.464C-17.795,11.464 -22.927,6.331 -22.927,-0C-22.927,-6.332 -17.795,-11.464 -11.464,-11.464" style="fill:rgb(253,113,200);fill-rule:nonzero;"/>
        </g>
        <g transform="matrix(0.432928,0,0,0.432928,8487.67,5613.17)">
            <path d="M0,-157.503C-5.918,-157.503 -10.823,-153.09 -11.409,-147.24L-11.43,-147.028L-11.43,-43.394L-11.409,-43.181C-10.823,-37.33 -5.917,-32.918 0,-32.918C6.342,-32.918 11.502,-38.025 11.502,-44.302L11.502,-146.119C11.502,-152.397 6.342,-157.503 0,-157.503M38.682,-120.568C33.916,-120.568 27.135,-117.7 27.135,-111.17L27.135,-44.302C27.135,-34.931 33.916,-32.918 38.682,-32.918C44.958,-32.918 50.066,-38.025 50.066,-44.302L50.066,-109.184C50.066,-115.461 44.958,-120.568 38.682,-120.568M109.033,-122.365C103.395,-122.365 98.051,-121.144 93.284,-118.792C91.283,-117.806 86.515,-118.09 85.318,-118.69C84.1,-119.299 83.279,-120.568 81.826,-120.568L68.993,-120.568C66.505,-120.568 64.543,-118.454 64.73,-115.974C65.18,-109.962 65.373,-103.655 65.373,-94.883L65.373,-44.302C65.473,-40.213 65.877,-40.027 65.877,-40.027C67.673,-35.61 72.661,-32.565 77.794,-32.951C83.84,-33.405 88.303,-38.858 88.303,-44.921L88.303,-84.75C88.303,-86.788 88.573,-88.747 89.026,-89.989L89.097,-90.201C90.877,-96.017 96.267,-101.884 104.294,-101.884C113.604,-101.884 118.324,-95.46 118.324,-82.79L118.324,-44.302C118.661,-34.274 125.611,-32.565 130.746,-32.951C136.792,-33.405 141.254,-38.858 141.254,-44.921L141.254,-84.424C141.254,-112.428 123.897,-122.365 109.033,-122.365M-63.69,-50.946C-71.925,-50.946 -78.896,-56.357 -81.086,-64.431C-81.087,-64.436 -81.088,-64.44 -81.089,-64.445C-81.384,-66.079 -81.642,-67.69 -81.642,-69.387L-81.642,-82.953C-81.642,-84.492 -81.168,-86.405 -80.797,-87.77C-78.581,-96.37 -71.345,-102.375 -63.2,-102.375C-49.896,-102.375 -43.941,-89.748 -43.941,-77.233C-43.941,-60.773 -51.324,-50.946 -63.69,-50.946M-58.787,-122.365C-65.103,-122.365 -70.878,-121.085 -75.931,-118.605C-82.211,-115.219 -83.117,-118.09 -83.721,-118.862C-84.329,-119.638 -84.185,-120.585 -87.273,-120.568L-98.056,-120.568C-98.056,-120.568 -105.396,-120.99 -105.06,-116.107C-105.06,-116.107 -104.411,-100.345 -104.411,-90.471L-104.411,-12.542C-104.411,-6.546 -100.043,-1.141 -94.072,-0.606C-87.326,0 -81.642,-5.32 -81.642,-11.942L-81.642,-30.624C-81.642,-33.413 -78.77,-35.39 -76.229,-34.236C-71.739,-32.197 -66.64,-31.12 -61.239,-31.12C-41.863,-31.12 -21.01,-45.754 -21.01,-77.887C-21.01,-103.66 -36.897,-122.365 -58.787,-122.365" style="fill:white;fill-rule:nonzero;"/>
        </g>
    </g>
    <defs>
        <linearGradient id="_Linear1" x1="0" y1="0" x2="1" y2="0" gradientUnits="userSpaceOnUse" gradientTransform="matrix(121.845,-116.023,116.023,121.845,8426.98,5644.76)"><stop offset="0" style="stop-color:rgb(41,130,248);stop-opacity:1"/><stop offset="0.3" style="stop-color:rgb(16,188,223);stop-opacity:1"/><stop offset="0.6" style="stop-color:rgb(5,215,211);stop-opacity:1"/><stop offset="1" style="stop-color:rgb(0,226,206);stop-opacity:1"/></linearGradient>
    </defs>
</svg>
