<?xml version="1.0" encoding="iso-8859-1"?>
<svg version="1.1" id="Capa_1" xmlns="http://www.w3.org/2000/svg" xmlns:xlink="http://www.w3.org/1999/xlink" x="0px" y="0px" viewBox="0 0 185 38" enable-background="new 0 0 185 38" xml:space="preserve">
<path fill="#FFFFFF" d="M21.937,37.555c-4.733,0-9.466,0.007-14.199-0.006c-0.844-0.003-1.702-0.02-2.531-0.157 c-4.078-0.675-5.955-3.273-4.934-7.263c0.803-3.134,1.983-6.173,3.044-9.238c1.245-3.597,2.415-7.227,3.845-10.751 c2.579-6.361,7.448-9.593,14.283-9.66c8.971-0.088,17.943-0.05,26.915-0.025c2.048,0.005,4.068,0.152,5.779,1.603 c3.08,2.612,3.117,5.909,1.982,9.292c-1.84,5.486-3.82,10.928-5.913,16.322c-2.582,6.654-7.189,9.774-14.284,9.857 c-4.662,0.055-9.325,0.011-13.988,0.011V37.555z M28.033,6.759c-1.584,0.08-2.595,0.867-3.135,2.377 c-2.299,6.434-4.663,12.846-6.93,19.292c-0.65,1.848,0.089,2.844,2.081,2.913c2.605,0.093,5.217,0.118,7.822,0.044 c2.97-0.085,3.91-0.874,4.918-3.717c1.72-4.846,3.462-9.686,5.182-14.532c0.494-1.392,1.019-2.782,1.391-4.208 c0.382-1.465-0.225-2.316-1.825-2.306C36.199,6.631,29.861,6.667,28.033,6.759 M175.837,37.555c-2.259,0-4.521-0.054-6.778,0.017 c-1.706,0.055-2.617-0.551-2.793-2.354c-0.185-1.891-0.627-3.758-0.898-5.642c-0.195-1.35-0.854-1.917-2.266-1.903 c-5.365,0.059-10.731,0.046-16.097,0.016c-1.283-0.007-2.285,0.36-3.184,1.323c-2.117,2.268-4.414,4.374-6.457,6.706 c-1.186,1.353-2.238,1.87-4.223,1.87c-1.985,0-3.778-0.036-4.023-0.036c-0.246,0-1.143,0.036-1.319-0.415 c-0.202-0.522,0.306-0.893,0.64-1.244c3.209-3.378,24.88-26.188,32.486-34.235c0.726-0.768,1.541-1.186,2.6-1.184 c4.73,0.009,9.461-0.009,14.191,0.011c1.339,0.005,2.191,0.467,2.41,2.041c1.258,9.011,4.47,31.073,4.818,33.088 c0.245,1.424-0.329,1.946-1.694,1.927c-2.471-0.032-4.942-0.01-7.413-0.01V37.555z M162.41,21.312 c1.348,0.019,1.99-0.555,1.737-1.942c-0.518-2.843-1.052-5.679-1.551-8.523c-0.257-1.466-0.824-1.436-1.718-0.448 c-2.834,3.131-5.685,6.248-8.525,9.374c-0.281,0.309-0.652,0.645-0.508,1.091c0.196,0.606,0.802,0.482,1.266,0.49 C154.661,21.378,160.861,21.289,162.41,21.312 M101.327,37.572c1.449,0,10.65,0.01,13.977,0.01c3.327,0,4.557-0.963,6.244-3.022 c6.303-7.694,12.732-15.284,19.124-22.906c2.674-3.188,5.37-6.358,8.053-9.54c0.311-0.368,0.782-0.735,0.52-1.276 c-0.26-0.539-0.843-0.403-1.327-0.406c-1.342-0.005-2.689,0.082-4.023-0.02c-1.716-0.131-2.856,0.537-3.954,1.87 c-6.458,7.845-12.993,15.625-19.548,23.389c-0.72,0.853-1.706,2.277-2.539,2.021c-0.833-0.258-0.926-2.001-1.039-3.138 c-0.697-6.953-1.325-13.915-1.959-20.875c-0.279-3.068-0.391-3.211-3.385-3.219c-4.025-0.012-8.051,0.009-12.076,0.012 c-3.283,0.003-3.396,0.029-3.114,3.308c0.91,10.618,1.9,21.229,2.844,31.843C99.247,37.006,99.878,37.572,101.327,37.572 M72.702,37.556c4.946,0,9.89,0.004,14.835-0.001c4.269-0.006,4.19-0.041,5.626-4.167c0.576-1.653,0.077-1.975-1.437-1.961 c-4.874,0.043-9.749,0.021-14.622,0.013c-3.889-0.006-3.866-0.054-2.52-3.717c3.063-8.347,6.037-16.725,9.085-25.078 c0.579-1.585,0.216-2.208-1.531-2.184C77.9,0.517,73.658,0.558,69.424,0.416c-2.066-0.07-3.019,0.777-3.675,2.648 C61.967,13.847,58.12,24.609,54.217,35.35c-0.626,1.722-0.333,2.279,1.533,2.254c5.65-0.067,11.302-0.024,16.952-0.024V37.556z"/>
</svg>