<?xml version="1.0" encoding="UTF-8" standalone="no"?>
<!DOCTYPE svg PUBLIC "-//W3C//DTD SVG 1.1//EN" "http://www.w3.org/Graphics/SVG/1.1/DTD/svg11.dtd">
<svg width="100%" height="100%" viewBox="0 0 146 36" version="1.1" xmlns="http://www.w3.org/2000/svg" xmlns:xlink="http://www.w3.org/1999/xlink" xml:space="preserve" xmlns:serif="http://www.serif.com/" style="fill-rule:evenodd;clip-rule:evenodd;stroke-linejoin:round;stroke-miterlimit:2;">
    <g id="Capa_1-2" transform="matrix(0.219452,0,0,0.219452,-15.5109,-15.5262)">
        <path d="M257,145.69C257,132.02 252.24,123.42 241.18,123.42C234.89,123.42 229.18,127.26 225.06,131.42L225.06,161.68C230.43,166.75 234.89,169.2 241.49,169.2C251.78,169.2 257,160.6 257,145.71M200.32,219.1L200.32,104.68L223.21,104.68L225.05,117.12C230.42,109.75 238.05,102.99 250.24,102.99C268.82,102.99 281.72,117.28 281.72,145.53C281.72,173.78 268.66,187.76 249.93,187.76C238.87,187.76 231.19,183.76 225.05,176.86L225.05,215.41L200.32,219.1Z" style="fill:rgb(0,68,129);fill-rule:nonzero;"/>
        <path d="M346.83,137.7C345.6,126.18 340.38,120.7 331.16,120.7C323.48,120.7 316.88,125.77 315.03,137.7L346.83,137.7ZM290.16,145.7C290.16,113.91 314.42,103 331.32,103C348.22,103 368.94,111.45 368.94,148.61L368.94,152.3L314.73,152.3C315.96,165.81 323.48,171.04 333.73,171.04C342.739,170.91 351.429,167.649 358.3,161.82L367.52,176C358,184.14 346.17,188.29 331.89,188.29C310.54,188.29 290.12,177.38 290.12,145.75" style="fill:rgb(0,68,129);fill-rule:nonzero;"/>
        <path d="M381.83,186.54L381.83,104.68L404.71,104.68L406.56,117.58C411.47,111.13 420.56,102.99 434.82,102.99C448.64,102.99 458.62,109.9 458.62,126.8L458.62,186.54L434.05,186.54L434.05,134.63C434.05,127.26 431.28,123.42 424.37,123.42C417.77,123.42 412.09,126.8 406.56,131.56L406.56,186.56L381.83,186.54Z" style="fill:rgb(0,68,129);fill-rule:nonzero;"/>
        <path d="M531.71,145.69C531.71,132.02 526.95,123.42 515.9,123.42C509.6,123.42 503.9,127.26 499.77,131.42L499.77,161.68C505.15,166.75 509.6,169.2 516.2,169.2C526.49,169.2 531.71,160.6 531.71,145.71M475,219.1L475,104.68L497.89,104.68L499.73,117.12C505.15,109.75 512.83,103 525,103C543.58,103 556.48,117.29 556.48,145.54C556.48,173.79 543.42,187.77 524.69,187.77C513.63,187.77 505.95,183.77 499.81,176.87L499.81,215.42L475,219.1Z" style="fill:rgb(20,200,190);fill-rule:nonzero;"/>
        <path d="M615.86,162.12L615.86,146.91C596.36,148.91 588.07,153.83 588.07,161.35C588.07,166.57 591.75,169.18 597.13,169.18C605.73,169.18 611.72,166.27 615.86,162.12M564,165.65C564,146.76 580,136.32 615.91,133.4L615.91,131.4C615.91,125.4 612.54,121.57 603.63,121.57C594.42,121.57 586.63,125.87 579.83,131.25L566.47,117.89C574.6,110.36 586.89,102.99 607.16,102.99C630.51,102.99 640.03,114.05 640.03,135.09L640.03,186.54L617.71,186.54L615.86,174.54C608.34,182.98 599.43,187.75 587.3,187.75C574.71,187.75 563.95,179.61 563.95,165.63" style="fill:rgb(20,200,190);fill-rule:nonzero;"/>
        <path d="M653.94,216.64L652.1,196.06C656.85,197.384 661.759,198.056 666.69,198.06C672.06,198.06 675.14,196.06 677.13,190.99L678.67,186.99L648.11,106.52L672.37,102.83L690.8,157.83L691.11,157.83L709.23,104.69L733.23,104.69L698.83,195.15C693.3,209.28 685.77,217.88 669.34,217.88C664.198,217.99 659.059,217.577 654,216.65" style="fill:rgb(20,200,190);fill-rule:nonzero;"/>
        <path d="M129.68,70.75C97.314,70.75 70.68,97.384 70.68,129.75C70.68,162.116 97.314,188.75 129.68,188.75C162.046,188.75 188.68,162.116 188.68,129.75C188.68,97.384 162.046,70.75 129.68,70.75ZM128.6,164.75C109.331,164.427 93.656,148.487 93.656,129.215C93.656,109.943 109.331,94.003 128.6,93.68L164.11,93.68L164.11,129.22C164.11,129.23 164.11,129.24 164.11,129.25C164.11,148.735 148.085,164.774 128.6,164.79L128.6,164.75Z" style="fill:rgb(0,68,129);fill-rule:nonzero;"/>
        <path d="M164.14,129.26C164.14,148.757 148.097,164.8 128.6,164.8C109.103,164.8 93.06,148.757 93.06,129.26C93.06,109.763 109.103,93.72 128.6,93.72L164.11,93.72L164.14,129.26Z" style="fill:rgb(20,200,190);fill-rule:nonzero;"/>
        <path d="M619.2,201.92L610.14,219.17C609.989,219.43 609.651,219.52 609.39,219.37C609.309,219.319 609.241,219.251 609.19,219.17L600.12,201.92C600.029,201.75 599.853,201.643 599.66,201.64L595.28,201.64C595.064,201.645 594.89,201.824 594.89,202.04C594.89,202.043 594.89,202.047 594.89,202.05C594.875,202.106 594.875,202.164 594.89,202.22L609.16,228.93C609.253,229.1 609.432,229.206 609.625,229.206C609.818,229.206 609.997,229.1 610.09,228.93L624.36,202.22C624.388,202.164 624.403,202.102 624.403,202.039C624.403,201.887 624.317,201.747 624.18,201.68C624.124,201.67 624.066,201.67 624.01,201.68L619.62,201.68C619.427,201.683 619.251,201.79 619.16,201.96" style="fill:rgb(0,68,129);fill-rule:nonzero;"/>
        <path d="M624.34,224.93L633.4,207.69C633.486,207.494 633.681,207.366 633.895,207.366C633.976,207.366 634.057,207.385 634.13,207.42C634.252,207.472 634.348,207.568 634.4,207.69L643.47,224.93C643.561,225.1 643.737,225.207 643.93,225.21L648.31,225.21C648.313,225.21 648.317,225.21 648.32,225.21C648.53,225.21 648.705,225.04 648.71,224.83C648.709,224.76 648.692,224.692 648.66,224.63L634.39,197.92C634.297,197.75 634.118,197.644 633.925,197.644C633.732,197.644 633.553,197.75 633.46,197.92L619.19,224.63C619.086,224.817 619.154,225.056 619.34,225.16C619.402,225.192 619.47,225.209 619.54,225.21L623.93,225.21C624.123,225.207 624.299,225.1 624.39,224.93" style="fill:rgb(0,68,129);fill-rule:nonzero;"/>
        <path d="M556.58,225.21L548.42,225.21C548.417,225.21 548.413,225.21 548.41,225.21C548.128,225.21 547.895,224.981 547.89,224.7L547.89,217.38C547.89,217.089 548.129,216.85 548.42,216.85L556.58,216.85C560.47,216.85 562.21,217.95 562.21,221.04C562.21,224.13 560.51,225.22 556.58,225.22M548.42,205.64L556.47,205.64C559.47,205.64 560.95,206.91 560.95,209.25C560.95,211.59 559.45,212.86 556.47,212.86L548.42,212.86C548.135,212.86 547.9,212.625 547.9,212.34L547.9,206.17C547.9,205.885 548.135,205.65 548.42,205.65M562.42,214.38C564.415,213.289 565.612,211.141 565.49,208.87C565.49,204.58 562.15,201.66 557.42,201.66L543.86,201.66C543.575,201.66 543.34,201.895 543.34,202.18L543.34,228.7C543.34,228.985 543.575,229.22 543.86,229.22L556.86,229.22C563.36,229.22 566.79,226.42 566.79,220.95C566.977,218.045 565.202,215.348 562.46,214.37" style="fill:rgb(0,68,129);fill-rule:nonzero;"/>
        <path d="M584.44,225.21L576.27,225.21C575.985,225.21 575.75,224.975 575.75,224.69L575.75,217.37C575.75,217.367 575.75,217.363 575.75,217.36C575.75,217.078 575.979,216.845 576.26,216.84L584.44,216.84C588.33,216.84 590.07,217.94 590.07,221.03C590.07,224.12 588.37,225.21 584.44,225.21M576.28,205.63L584.33,205.63C587.33,205.63 588.81,206.9 588.81,209.24C588.81,211.58 587.3,212.85 584.33,212.85L576.28,212.85C575.989,212.85 575.75,212.611 575.75,212.32L575.75,206.15C575.75,205.865 575.985,205.63 576.27,205.63M590.27,214.36C592.265,213.269 593.462,211.121 593.34,208.85C593.34,204.56 589.99,201.64 585.26,201.64L571.72,201.64C571.429,201.64 571.19,201.879 571.19,202.17L571.19,228.69C571.19,228.975 571.425,229.21 571.71,229.21L584.71,229.21C591.21,229.21 594.63,226.41 594.63,220.94C594.822,218.036 593.051,215.339 590.31,214.36" style="fill:rgb(0,68,129);fill-rule:nonzero;"/>
        <path d="M517.56,222.72C517.56,219.15 515.78,217.42 513.61,217.42C512.01,217.42 510.87,218.24 509.61,219.54L509.61,225.91C510.61,227.16 512.101,227.922 513.7,228C515.87,228 517.6,226.4 517.6,222.72M509.6,227.44L509.55,229.21L507.89,229.21L507.89,211.09L509.6,210.84L509.6,218.11C510.648,216.778 512.245,215.991 513.94,215.97C516.94,215.97 519.29,218.16 519.29,222.7C519.29,227.24 516.9,229.43 513.89,229.43C512.242,229.4 510.682,228.673 509.6,227.43" style="fill:rgb(0,68,129);fill-rule:nonzero;"/>
        <path d="M520.61,234L520.49,232.52C521.105,232.671 521.736,232.748 522.37,232.75C523.625,232.822 524.762,231.974 525.05,230.75L525.59,229.32L520.59,216.43L522.29,216.11L526.39,227.23L530.39,216.28L532.17,216.28L526.57,230.75C525.68,233.07 524.72,234.21 522.23,234.21C521.648,234.23 521.066,234.169 520.5,234.03" style="fill:rgb(0,68,129);fill-rule:nonzero;"/>
    </g>
</svg>
