<?xml version="1.0" encoding="UTF-8" standalone="no"?>
<!DOCTYPE svg PUBLIC "-//W3C//DTD SVG 1.1//EN" "http://www.w3.org/Graphics/SVG/1.1/DTD/svg11.dtd">
<svg width="100%" height="100%" viewBox="0 0 146 50" version="1.1" xmlns="http://www.w3.org/2000/svg" xmlns:xlink="http://www.w3.org/1999/xlink" xml:space="preserve" xmlns:serif="http://www.serif.com/" style="fill-rule:evenodd;clip-rule:evenodd;stroke-linejoin:round;stroke-miterlimit:2;">
    <g transform="matrix(0.700531,0,0,0.700531,-32.3806,-79.3918)">
        <rect x="47.651" y="131.68" width="9.99" height="36.699" style="fill:rgb(230,68,66);"/>
        <path d="M57.029,115.166C56.418,114.554 55.806,114.146 54.99,113.738C54.175,113.331 53.359,113.331 52.544,113.331C51.728,113.331 50.913,113.535 50.097,113.738C49.282,114.146 48.67,114.554 48.058,115.166C47.447,115.777 47.039,116.389 46.631,117.204C46.223,118.02 46.223,118.836 46.223,119.651C46.223,120.467 46.427,121.282 46.631,122.098C47.039,122.913 47.447,123.525 48.058,124.137C48.67,124.748 49.282,125.156 50.097,125.564C50.913,125.971 51.728,125.971 52.544,125.971C53.359,125.971 54.175,125.768 54.99,125.564C55.806,125.156 56.418,124.748 57.029,124.137C57.641,123.525 58.049,122.913 58.456,122.098C58.864,121.282 58.864,120.467 58.864,119.651C58.864,118.836 58.66,118.02 58.456,117.204C58.049,116.389 57.437,115.777 57.029,115.166Z" style="fill:rgb(230,68,66);fill-rule:nonzero;"/>
        <path d="M115.951,115.166C115.34,114.554 114.728,114.146 113.913,113.738C113.097,113.331 112.282,113.331 111.466,113.331C110.651,113.331 109.835,113.535 109.019,113.738C108.204,114.146 107.592,114.554 106.981,115.166C106.369,115.777 105.961,116.389 105.553,117.204C105.146,118.02 105.146,118.836 105.146,119.651C105.146,120.467 105.35,121.282 105.553,122.098C105.961,122.913 106.369,123.525 106.981,124.137C107.592,124.748 108.204,125.156 109.019,125.564C109.835,125.971 110.651,125.971 111.466,125.971C112.282,125.971 113.097,125.768 113.913,125.564C114.728,125.156 115.34,124.748 115.951,124.137C116.563,123.525 116.971,122.913 117.379,122.098C117.786,121.282 117.786,120.467 117.786,119.651C117.786,118.836 117.583,118.02 117.379,117.204C116.971,116.389 116.563,115.777 115.951,115.166Z" style="fill:rgb(230,68,66);fill-rule:nonzero;"/>
        <rect x="106.573" y="131.68" width="9.99" height="36.699" style="fill:rgb(230,68,66);"/>
        <path d="M158.359,136.37C156.728,134.738 154.893,133.311 152.65,132.292C150.408,131.272 148.165,130.865 145.515,130.865C143.068,130.865 140.825,131.272 138.99,132.292C137.155,133.311 135.728,134.535 134.505,135.962L134.505,131.884L124.922,131.884L124.922,183.874L134.709,183.874L134.709,164.913C135.932,166.34 137.359,167.564 139.194,168.379C141.029,169.195 143.068,169.602 145.515,169.602C147.961,169.602 150.408,169.195 152.65,168.175C154.893,167.156 156.728,165.933 158.359,164.098C159.99,162.467 161.214,160.428 162.029,157.981C162.845,155.535 163.456,153.088 163.456,150.234C163.456,147.379 163.049,144.933 162.029,142.486C161.214,140.039 159.99,138.001 158.359,136.37ZM152.65,154.107C152.243,155.331 151.631,156.35 150.816,157.369C150,158.185 148.981,159.001 147.757,159.612C146.534,160.224 145.311,160.428 143.883,160.428C142.456,160.428 141.233,160.224 140.01,159.612C138.786,159.204 137.767,158.389 136.951,157.573C136.136,156.758 135.524,155.535 135.117,154.311C134.709,153.088 134.505,151.661 134.505,150.234C134.505,148.806 134.709,147.379 135.117,146.156C135.524,144.933 136.136,143.913 136.951,142.894C137.767,142.078 138.786,141.263 140.01,140.855C141.233,140.447 142.456,140.039 143.883,140.039C145.311,140.039 146.738,140.243 147.757,140.855C148.981,141.467 150,142.078 150.816,143.098C151.631,143.913 152.243,145.136 152.65,146.36C153.058,147.583 153.262,149.01 153.262,150.234C153.262,151.457 153.058,152.884 152.65,154.107Z" style="fill:rgb(42,210,201);fill-rule:nonzero;"/>
        <path d="M197.709,135.758C196.485,134.331 195.058,133.107 193.223,132.088C191.388,131.069 189.349,130.661 186.699,130.661C184.252,130.661 181.806,131.069 179.563,132.088C177.32,133.107 175.485,134.331 173.854,136.166C172.223,137.797 171,139.836 170.184,142.282C169.369,144.729 168.757,147.175 168.757,150.03C168.757,152.884 169.165,155.331 170.184,157.777C171,160.224 172.427,162.263 173.854,163.894C175.485,165.525 177.32,166.952 179.563,167.971C181.806,168.991 184.049,169.399 186.699,169.399C189.146,169.399 191.388,168.991 193.223,167.971C195.058,166.952 196.485,165.933 197.709,164.302L197.709,168.379L207.291,168.379L207.291,131.68L197.709,131.68L197.709,135.758ZM197.301,154.107C196.893,155.331 196.282,156.35 195.466,157.369C194.65,158.185 193.631,159.001 192.408,159.408C191.184,159.816 189.961,160.224 188.534,160.224C187.107,160.224 185.883,160.02 184.66,159.408C183.437,158.797 182.417,158.185 181.602,157.166C180.786,156.35 180.175,155.127 179.767,153.903C179.359,152.68 179.155,151.253 179.155,150.03C179.155,148.603 179.359,147.379 179.767,146.156C180.175,144.933 180.786,143.913 181.602,142.894C182.417,142.078 183.437,141.263 184.66,140.651C185.883,140.039 187.107,139.836 188.534,139.836C189.961,139.836 191.184,140.039 192.408,140.651C193.631,141.059 194.65,141.874 195.466,142.69C196.282,143.505 196.893,144.729 197.301,145.952C197.709,147.175 197.913,148.603 197.913,150.03C197.913,151.457 197.709,152.884 197.301,154.107Z" style="fill:rgb(42,210,201);fill-rule:nonzero;"/>
        <path d="M242.971,131.68L233.184,150.641L222.99,131.68L211.777,131.68L227.68,160.632L214.835,183.874L225.641,183.874L253.777,131.68L242.971,131.68Z" style="fill:rgb(42,210,201);fill-rule:nonzero;"/>
        <path d="M77.214,160.224L81.087,156.554L76.806,149.418L65.388,160.224L67.427,168.379L98.385,168.313L96.583,160.224L77.214,160.224Z" style="fill:rgb(230,68,66);fill-rule:nonzero;"/>
        <path d="M98.621,140.243L96.583,131.884L66.204,131.884L68.447,140.039L86.796,140.243L82.922,143.709L87,151.049L98.621,140.243Z" style="fill:rgb(230,68,66);fill-rule:nonzero;"/>
    </g>
</svg>
