<?xml version="1.0" encoding="UTF-8" standalone="no"?>
<!DOCTYPE svg PUBLIC "-//W3C//DTD SVG 1.1//EN" "http://www.w3.org/Graphics/SVG/1.1/DTD/svg11.dtd">
<svg width="100%" height="100%" viewBox="0 0 143 46" version="1.1" xmlns="http://www.w3.org/2000/svg" xmlns:xlink="http://www.w3.org/1999/xlink" xml:space="preserve" xmlns:serif="http://www.serif.com/" style="fill-rule:evenodd;clip-rule:evenodd;stroke-linejoin:round;stroke-miterlimit:2;">
    <g transform="matrix(0.262063,0,0,0.262063,-33.6738,-78.6818)">
        <g transform="matrix(1,0,0,1,279.984,356.891)">
            <path d="M0,117.603C-1.082,118.679 -2.831,118.675 -3.908,117.594L-88.069,33.058C-97.102,24.025 -111.803,24 -120.822,33.023L-136.987,16.858C-119.056,-1.076 -89.851,-1.051 -71.886,16.91L12.46,101.632C13.444,102.622 13.44,104.221 12.452,105.207L0,117.603Z" style="fill:rgb(108,83,163);fill-rule:nonzero;"/>
        </g>
        <g transform="matrix(1,0,0,1,261.315,316.131)">
            <path d="M0,8.694L-16.285,24.979C-40.084,1.176 -78.807,1.181 -102.609,24.979C-104.575,26.941 -106.376,29.006 -108.018,31.16C-108.1,31.267 -108.182,31.378 -108.26,31.489C-108.268,31.502 -108.276,31.514 -108.289,31.522C-109.062,32.571 -110.514,32.78 -111.509,31.995C-111.574,31.942 -111.641,31.884 -111.706,31.819L-124.866,18.658L-125.055,18.473C-125.059,18.469 -125.063,18.461 -125.067,18.457C-125.713,17.655 -125.754,16.495 -125.121,15.665C-125.038,15.554 -124.956,15.447 -124.87,15.34C-124.541,14.933 -124.208,14.526 -123.866,14.123C-122.304,12.256 -120.646,10.446 -118.895,8.694L-118.891,8.694C-86.114,-24.086 -32.78,-24.086 0,8.694" style="fill:rgb(237,26,124);fill-rule:nonzero;"/>
        </g>
        <g transform="matrix(1,0,0,1,285.94,408.854)">
            <path d="M0,-24.584C0,-2.126 -8.747,18.983 -24.625,34.861C-41.014,51.253 -62.542,59.445 -84.07,59.445C-105.599,59.445 -127.128,51.253 -143.516,34.861L-127.234,18.58C-103.436,42.378 -64.709,42.378 -40.91,18.58C-29.38,7.048 -23.03,-8.278 -23.03,-24.584C-23.03,-40.886 -29.38,-56.217 -40.91,-67.744L-24.625,-84.029C-8.747,-68.151 0,-47.038 0,-24.584" style="fill:rgb(245,127,41);fill-rule:nonzero;"/>
        </g>
        <g transform="matrix(0.958277,0.28584,0.28584,-0.958277,132.92,443.054)">
            <path d="M9.988,1.93C-14.145,14.974 -23.167,45.22 -10.123,69.354L9.988,58.482C2.939,45.439 7.815,29.092 20.858,22.042L9.988,1.93Z" style="fill:rgb(20,191,241);fill-rule:nonzero;"/>
        </g>
        <g transform="matrix(1,0,0,1,354.8,389.714)">
            <path d="M0,0C0,23.808 16.339,37.035 32.056,37.035C43.415,37.035 55.086,30.81 61.776,18.05C62.088,17.273 63.021,16.961 63.645,17.428L77.96,26.609C78.427,26.92 78.738,27.698 78.427,28.165C68.935,47.616 50.885,56.797 32.834,56.797C5.914,56.797 -21.162,36.723 -21.162,0C-21.162,-36.724 5.914,-56.797 32.834,-56.797C50.885,-56.797 68.935,-47.616 78.427,-28.165C78.738,-27.698 78.427,-26.92 77.96,-26.609L63.645,-17.428C63.021,-16.961 62.088,-17.272 61.776,-18.05C55.086,-30.811 43.415,-37.035 32.056,-37.035C16.184,-37.035 0,-23.652 0,0" style="fill:rgb(35,31,32);fill-rule:nonzero;"/>
        </g>
        <g transform="matrix(1,0,0,1,441.474,398.74)">
            <path d="M0,21.318C0,45.127 20.54,53.685 38.28,42.326L49.173,35.323C50.262,34.546 51.195,35.168 51.195,36.256L51.195,44.193C51.195,44.815 51.817,45.437 52.44,45.437L70.18,45.437C70.802,45.437 71.425,44.815 71.425,44.193L71.425,-31.121C71.425,-31.744 70.802,-32.367 70.18,-32.367L52.44,-32.367C51.817,-32.367 51.195,-31.744 51.195,-31.121L51.195,10.892C51.195,24.275 42.793,30.655 34.701,30.655C27.231,30.655 20.229,26.764 20.229,14.938L20.229,-31.121C20.229,-31.744 19.607,-32.367 18.984,-32.367L1.245,-32.367C0.623,-32.367 0,-31.744 0,-31.121L0,21.318Z" style="fill:rgb(35,31,32);fill-rule:nonzero;"/>
        </g>
        <g transform="matrix(1,0,0,1,528.148,335.252)">
            <path d="M0,108.926L17.74,108.926C18.362,108.926 18.984,108.303 18.984,107.681L18.984,1.244C18.984,0.622 18.362,0 17.74,0L0,0C-0.622,0 -1.245,0.622 -1.245,1.244L-1.245,107.681C-1.245,108.303 -0.622,108.926 0,108.926" style="fill:rgb(35,31,32);fill-rule:nonzero;"/>
        </g>
        <g transform="matrix(1,0,0,1,579.032,434.53)">
            <path d="M0,-29.099C0,-16.961 8.559,-7.002 19.763,-7.002C28.788,-7.002 38.436,-16.651 38.436,-29.877C38.436,-44.66 28.32,-52.285 19.918,-52.285C9.959,-52.285 0,-44.815 0,-29.099M38.436,-56.797L38.436,-66.912C38.436,-67.534 39.058,-68.157 39.68,-68.157L57.42,-68.157C58.042,-68.157 58.664,-67.534 58.664,-66.912L58.664,39.524C58.664,40.147 58.042,40.769 57.42,40.769L39.68,40.769C39.058,40.769 38.436,40.147 38.436,39.524L38.436,0.933C38.436,-0.312 37.035,-0.779 36.102,0.156C29.722,7.625 20.852,11.359 13.227,11.359C-3.89,11.359 -21.007,-2.179 -21.007,-28.944C-21.007,-52.596 -5.135,-69.868 11.204,-69.868C15.094,-69.868 20.074,-68.623 24.742,-64.889L36.412,-55.864C37.346,-55.241 38.436,-55.708 38.436,-56.797" style="fill:rgb(35,31,32);fill-rule:nonzero;"/>
        </g>
        <g transform="matrix(1,0,0,1,651.389,331.362)">
            <path d="M0,112.816L17.74,112.816C18.362,112.816 18.984,112.193 18.984,111.571L18.984,36.256C18.984,35.634 18.362,35.011 17.74,35.011L0,35.011C-0.622,35.011 -1.244,35.634 -1.244,36.256L-1.244,111.571C-1.244,112.193 -0.622,112.816 0,112.816M9.025,25.208C16.028,25.208 21.475,19.918 21.475,12.448C21.475,5.29 16.028,0 9.025,0C1.712,0 -3.89,5.29 -3.89,12.448C-3.89,19.607 1.712,25.208 9.025,25.208" style="fill:rgb(35,31,32);fill-rule:nonzero;"/>
        </g>
    </g>
</svg>
