<?xml version="1.0" encoding="UTF-8" standalone="no"?>
<!DOCTYPE svg PUBLIC "-//W3C//DTD SVG 1.1//EN" "http://www.w3.org/Graphics/SVG/1.1/DTD/svg11.dtd">
<svg width="100%" height="100%" viewBox="0 0 725 122" version="1.1" xmlns="http://www.w3.org/2000/svg" xmlns:xlink="http://www.w3.org/1999/xlink" xml:space="preserve" xmlns:serif="http://www.serif.com/" style="fill-rule:evenodd;clip-rule:evenodd;stroke-linejoin:round;stroke-miterlimit:2;">
    <g transform="matrix(1,0,0,1,-32.340997,-180.727025)">
        <path d="M593.663,299.566C591.595,294.599 586.769,287.745 583.674,282.69C580.502,277.51 577.298,271.849 574.014,266.602C566.384,254.413 566.026,255.32 569.864,249.765C576.975,239.471 576.129,236.821 582.563,236.837L605.794,237.039L605.838,241.872C606.083,293.214 601.071,300.557 649.76,299.335L649.802,279.746C645.62,278.006 636.809,280.315 629.871,278.158L629.584,236.739L651.276,236.871L651.106,216.105L629.431,216.281L629.356,193.335L608.354,193.458L608.333,216.193L566.304,216.246L547.266,244.363L540.523,244.311L540.379,180.948C532.753,180.875 525.02,180.335 517.445,181.272L517.412,299.324L540.549,299.309L540.582,265.356L547.957,265.546C553.345,273.281 562.932,294.571 567.121,299.562L593.663,299.566Z" style="fill:rgb(7,21,54);fill-rule:nonzero;"/>
    </g>
    <g transform="matrix(1,0,0,1,-32.340997,-180.727025)">
        <path d="M694.051,235.949C721.381,231.114 726.238,272.12 702.885,278.38C689.72,281.91 679.829,272.29 678.249,261.638C676.222,247.977 682.678,237.962 694.051,235.949ZM718.129,216.421C717.341,220.998 719.549,228.606 714.218,223.531C704.937,214.695 691.294,212.243 679.316,217.987C636.606,238.468 654.368,308.473 698.166,301.586C712.387,299.35 712.609,292.503 717.428,290.344C720.339,298.931 722.274,299.606 732.571,299.549C740.298,299.505 749.434,300.014 756.937,299.447L756.627,280.361L742.26,279.85C738.953,274.474 741.652,227.708 740.671,216.161L718.129,216.421Z" style="fill:rgb(7,21,54);fill-rule:nonzero;"/>
    </g>
    <g transform="matrix(1,0,0,1,-32.340997,-180.727025)">
        <path d="M276.978,262.462C271.84,232.463 313.444,226.486 317.969,253.489C323.153,284.426 281.473,288.705 276.978,262.462ZM254.318,264.667C262.429,317.622 348.902,311.249 341.274,250.001C338.563,228.232 316.746,210.181 290.611,214.515C267.523,218.344 250.152,237.465 254.318,264.667Z" style="fill:rgb(7,21,54);fill-rule:nonzero;"/>
    </g>
    <g transform="matrix(1,0,0,1,-32.340997,-180.727025)">
        <path d="M452.193,247.955C449.757,242.089 458.846,235.493 463.53,233.898C477.954,228.986 488.127,241.674 488.043,246.561C488.007,248.643 486.688,248.171 484.12,248.154C474.826,248.095 459.845,248.581 452.193,247.955ZM488.305,270.603C481.742,283.163 453.007,287.153 450.876,262.874L510.158,262.819C513.15,252.241 507.214,237.379 502.717,230.551C486.605,206.088 440.258,206.765 429.366,245.295C419.543,280.052 452.601,312.257 489.238,297.115C496.548,294.094 506.818,284.601 508.309,275.697C505.294,273.586 492.587,271.166 488.305,270.603Z" style="fill:rgb(7,21,54);fill-rule:nonzero;"/>
    </g>
    <g transform="matrix(1,0,0,1,-32.340997,-180.727025)">
        <path d="M371.378,299.264C371.535,286.32 371.375,273.218 371.357,260.255C371.348,254.274 370.641,247.829 373.306,242.916C378.303,233.7 393.013,233.779 397.543,243.056C400.763,249.651 399.248,289.892 399.235,298.758L422.332,298.631C422.07,282.315 424.81,240.764 418.894,229.07C414.744,220.865 406.88,215.707 397.464,214.305C379.727,211.664 376.323,222.704 371.432,223.646L371.139,216.21L348.228,216.516L348.246,299.077C351.384,300.024 367.856,299.938 371.378,299.264Z" style="fill:rgb(7,21,54);fill-rule:nonzero;"/>
    </g>
    <g transform="matrix(1,0,0,1,-32.340997,-180.727025)">
        <path d="M229.698,265.651C228.046,267.492 228.124,269.434 225.901,272.013C213.222,286.725 189.095,280.122 188.864,258.056C188.658,238.377 208.312,230.746 221.46,239.705C227.097,243.547 227.866,247.967 229.676,250.957L250.147,246.219C250.088,242.294 246.434,235.438 244.422,232.214C225.923,202.564 165.676,209.256 166.015,258.05C166.172,280.601 180.608,298.213 202.896,300.848C215.471,302.334 226.114,300.01 234.595,293.953C241.511,289.014 249.582,279.893 250.241,270.508L229.698,265.651Z" style="fill:rgb(7,21,54);fill-rule:nonzero;"/>
    </g>
    <g transform="matrix(1,0,0,1,-32.340997,-180.727025)">
        <path d="M82.345,276.433C80.573,266.917 78.718,257.563 79.392,247.012C80.904,223.347 85.233,225.993 76.927,221.731C71.899,219.152 60.728,211.732 53.876,212.338C41.987,213.389 19.988,249.025 41.214,279.518C45.62,285.847 50.672,292.474 62.115,288.355C67.955,286.253 79.544,280.135 82.345,276.433Z" style="fill:rgb(0,169,199);fill-rule:nonzero;"/>
    </g>
    <g transform="matrix(1,0,0,1,-32.340997,-180.727025)">
        <path d="M61.644,202.163C62.546,203.501 61.282,202.542 63.243,203.75C67.014,206.073 73.359,205.758 92.037,220.635C97.034,224.615 100.83,227.972 104.69,232.221C106.373,234.074 109.128,236.832 110.811,238.583C113.547,241.43 113.939,243.148 119.563,242.619C122.499,238.709 122.284,239.028 122.118,232.322C121.851,221.546 121.457,207.317 111.733,202.354C105.447,199.145 67.938,199.154 61.644,202.163Z" style="fill:rgb(202,0,123);fill-rule:nonzero;"/>
    </g>
    <g transform="matrix(1,0,0,1,-32.340997,-180.727025)">
        <path d="M64.686,299.672C72.619,301.611 103.965,301.702 109.189,300.196C124.862,295.678 122.772,265.014 121.844,262.076C120.644,258.276 116.321,258.143 113.421,260.257C107.494,264.578 92.773,287.303 61.851,298.419L64.686,299.672Z" style="fill:rgb(7,21,54);fill-rule:nonzero;"/>
    </g>
</svg>
