<?xml version="1.0" encoding="UTF-8" standalone="no"?><!DOCTYPE svg PUBLIC "-//W3C//DTD SVG 1.1//EN" "http://www.w3.org/Graphics/SVG/1.1/DTD/svg11.dtd"><svg width="100%" height="100%" viewBox="0 0 64 64" version="1.1" xmlns="http://www.w3.org/2000/svg" xmlns:xlink="http://www.w3.org/1999/xlink" xml:space="preserve" xmlns:serif="http://www.serif.com/" style="fill-rule:evenodd;clip-rule:evenodd;stroke-linejoin:round;stroke-miterlimit:2;"><g><path d="M7.2,27c-3.424,0 -6.2,-2.776 -6.2,-6.2l6.364,-12.4l12.235,-0l7.473,0l9.854,0l7.473,-0l12.236,0l6.364,12.4c0,3.424 -2.776,6.2 -6.2,6.2l-0,18.6c0,6.844 -5.556,12.4 -12.4,12.4l-24.8,0c-6.844,0 -12.4,-5.556 -12.4,-12.4l0,-18.6Z" style="fill:#00b2a6;stroke:#fff;stroke-width:2px;"/><path d="M7.2,20.8c0,-6.844 5.556,-12.4 12.4,-12.4l24.8,0c6.844,0 12.4,5.556 12.4,12.4l0,24.8c0,6.844 -5.556,12.4 -12.4,12.4l-24.8,0c-6.844,0 -12.4,-5.556 -12.4,-12.4l0,-24.8Z" style="fill:#00b2a6;"/><path d="M13.401,20.8l3.818,-12.4l9.854,0l-1.272,12.4l-0.001,0c0,3.425 -2.775,6.2 -6.2,6.2c-3.424,0 -6.2,-2.775 -6.2,-6.2l0.001,0Zm24.8,0l-1.274,-12.4l9.854,0l3.82,12.4l-0.001,0c0,3.425 -2.775,6.2 -6.2,6.2c-3.424,0 -6.2,-2.775 -6.2,-6.2l0.001,0Z" style="fill:#fff;fill-rule:nonzero;"/><g><path d="M13.4,20.8c0,3.424 -2.776,6.2 -6.2,6.2c-3.424,0 -6.2,-2.776 -6.2,-6.2l6.364,-12.4l9.855,0l-3.819,12.4Zm24.8,0c0,3.424 -2.776,6.2 -6.2,6.2c-3.424,0 -6.2,-2.776 -6.2,-6.2l1.273,-12.4l9.855,0l1.273,12.4Zm24.8,0c0,3.424 -2.776,6.2 -6.2,6.2c-3.424,0 -6.2,-2.776 -6.2,-6.2l-3.819,-12.4l9.855,0l6.364,12.4Z" style="fill:#293f54;fill-rule:nonzero;"/></g><text x="8.335px" y="47.4px" style="font-family:'GraphikCompact-Bold', 'Graphik Compact';font-weight:700;font-size:23.49px;fill:#fff;">ADM</text></g></svg>